<?xml version="1.0" encoding="UTF-8"?>
<svg width="60px" height="60px" viewBox="0 0 60 60" version="1.1" xmlns="http://www.w3.org/2000/svg" xmlns:xlink="http://www.w3.org/1999/xlink">
    <title>Group 5</title>
    <defs>
        <linearGradient x1="50%" y1="100%" x2="50%" y2="0%" id="linearGradient-1">
            <stop stop-color="#FFC2FA" offset="0%"></stop>
            <stop stop-color="#FFEDFE" offset="100%"></stop>
        </linearGradient>
        <linearGradient x1="50%" y1="0%" x2="50%" y2="100%" id="linearGradient-2">
            <stop stop-color="#9831FF" offset="0%"></stop>
            <stop stop-color="#FF72FF" offset="100%"></stop>
        </linearGradient>
    </defs>
    <g id="Page-1" stroke="none" stroke-width="1" fill="none" fill-rule="evenodd">
        <g id="Artboard" transform="translate(-705.000000, -366.000000)">
            <g id="Group-5" transform="translate(705.000000, 366.000000)">
                <g id="background" fill="url(#linearGradient-1)">
                    <circle id="Oval" cx="30" cy="30" r="30"></circle>
                </g>
                <path d="M42.9928444,44 C43.7370304,44 44.4120453,43.8106884 45.0178891,43.4320652 C45.6237329,43.053442 46.1055456,42.5477808 46.4633274,41.9150815 C46.8211091,41.2823822 47,40.5824275 47,39.8152174 L47,15.1997283 C47,14.4225543 46.8211091,13.7176178 46.4633274,13.0849185 C46.1055456,12.4522192 45.6237329,11.946558 45.0178891,11.5679348 C44.4120453,11.1893116 43.7370304,11 42.9928444,11 C42.2581992,11 41.5879547,11.1893116 40.9821109,11.5679348 C40.3762671,11.946558 39.8944544,12.4522192 39.5366726,13.0849185 C39.1788909,13.7176178 39,14.4225543 39,15.1997283 L39,39.8152174 C39,40.5824275 39.1788909,41.2823822 39.5366726,41.9150815 C39.8944544,42.5477808 40.3762671,43.053442 40.9821109,43.4320652 C41.5879547,43.8106884 42.2581992,44 42.9928444,44 Z M36,41 C35.9712821,40.8614125 35.9521368,40.7154007 35.9425641,40.5619646 C35.9329915,40.4085285 35.9282051,40.2575671 35.9282051,40.1090805 L35.9282051,15.7424329 C35.9282051,15.6137445 35.9305983,15.4900057 35.9353846,15.3712164 C35.9401709,15.2524272 35.9473504,15.1286884 35.9569231,15 C34.5210256,15.8414239 33.0013675,16.5987055 31.3979487,17.2718447 C29.7945299,17.9449838 28.1887179,18.5042833 26.5805128,18.949743 C24.9723077,19.3952027 23.4454701,19.702075 22,19.8703598 L22,36.1444889 C23.5507692,36.3523701 25.1015385,36.6691414 26.6523077,37.094803 C28.2030769,37.5204645 29.7538462,38.0599657 31.3046154,38.7133067 C32.8553846,39.3666476 34.4205128,40.1288787 36,41 Z M19,36 L19,20 L16.6226994,20 C14.1789366,20 12.297546,20.6112633 10.9785276,21.83379 C9.6595092,23.0563166 9,24.7878234 9,27.0283105 L9,28.9716895 C9,31.2219178 9.6595092,32.95586 10.9785276,34.173516 C12.297546,35.391172 14.1789366,36 16.6226994,36 L19,36 Z M23.5087266,47 C24.2577031,47 24.9308339,46.7952381 25.5281189,46.3857143 C26.125404,45.9761905 26.5520362,45.4238095 26.8080155,44.7285714 C27.0639948,44.0333333 27.0639948,43.2571429 26.8080155,42.4 L25.7840983,38.8857143 C25.3005818,38.6952381 24.7293687,38.5333333 24.070459,38.4 C23.4115492,38.2666667 22.6649429,38.1666667 21.8306399,38.1 C20.996337,38.0333333 20.0861883,38 19.1001939,38 L16,38 L19.2566257,44.0571429 C19.7591036,45 20.3160957,45.7261905 20.9276018,46.2357143 C21.539108,46.7452381 22.3994829,47 23.5087266,47 Z" id="􀬳" fill="url(#linearGradient-2)" fill-rule="nonzero"></path>
            </g>
        </g>
    </g>
</svg>