<?xml version="1.0" encoding="UTF-8"?>
<svg width="60px" height="60px" viewBox="0 0 60 60" version="1.1" xmlns="http://www.w3.org/2000/svg" xmlns:xlink="http://www.w3.org/1999/xlink">
    <title>Group 12</title>
    <defs>
        <linearGradient x1="50%" y1="100%" x2="50%" y2="0%" id="linearGradient-1">
            <stop stop-color="#FFCBD3" offset="0%"></stop>
            <stop stop-color="#FFF4F5" offset="100%"></stop>
        </linearGradient>
        <linearGradient x1="50%" y1="0%" x2="50%" y2="100%" id="linearGradient-2">
            <stop stop-color="#FD1B6F" offset="0%"></stop>
            <stop stop-color="#FF957D" offset="100%"></stop>
        </linearGradient>
    </defs>
    <g id="Page-1" stroke="none" stroke-width="1" fill="none" fill-rule="evenodd">
        <g id="Artboard" transform="translate(-863.000000, -366.000000)">
            <g id="Group-12" transform="translate(863.000000, 366.000000)">
                <g id="background" fill="url(#linearGradient-1)">
                    <circle id="Oval" cx="30" cy="30" r="30"></circle>
                </g>
                <path d="M30,12 C23.703,12 18,17.1045 18,23.403 C18,29.7 23.2035,37.218 30,48 C36.7965,37.218 42,29.7 42,23.403 C42,17.1045 36.2985,12 30,12 Z M30.5,29 C28.0145,29 26,26.9855 26,24.5 C26,22.0145 28.0145,20 30.5,20 C32.9855,20 35,22.0145 35,24.5 C35,26.9855 32.9855,29 30.5,29 Z" id="Shape" fill="url(#linearGradient-2)" fill-rule="nonzero"></path>
            </g>
        </g>
    </g>
</svg>