<?xml version="1.0" encoding="UTF-8"?>
<svg width="60px" height="60px" viewBox="0 0 60 60" version="1.1" xmlns="http://www.w3.org/2000/svg" xmlns:xlink="http://www.w3.org/1999/xlink">
    <title>Group 11</title>
    <defs>
        <linearGradient x1="50%" y1="100%" x2="50%" y2="20.1544915%" id="linearGradient-1">
            <stop stop-color="#BAE2FF" offset="0%"></stop>
            <stop stop-color="#EAF6FF" offset="100%"></stop>
        </linearGradient>
        <linearGradient x1="71.9329697%" y1="27.9898443%" x2="18.8650041%" y2="82.0427071%" id="linearGradient-2">
            <stop stop-color="#323AFF" offset="0%"></stop>
            <stop stop-color="#00B8FF" offset="100%"></stop>
        </linearGradient>
    </defs>
    <g id="Page-1" stroke="none" stroke-width="1" fill="none" fill-rule="evenodd">
        <g id="Artboard" transform="translate(-786.000000, -366.000000)">
            <g id="Group-11" transform="translate(786.000000, 366.000000)">
                <g id="background" fill="url(#linearGradient-1)">
                    <circle id="Oval" cx="30" cy="30" r="30"></circle>
                </g>
                <path d="M40.5418032,47.609375 C41.8450859,47.609375 43.0645861,47.3766459 44.2003039,46.9111878 C45.3360217,46.4457297 46.3631326,45.6978937 47.2816366,44.6676798 C47.8153619,44.0718934 48.2187589,43.4543856 48.4918277,42.8151565 C48.7648964,42.1759273 48.9014308,41.5211829 48.9014308,40.8509233 C48.9014308,40.2179002 48.7679995,39.6128047 48.5011369,39.0356366 C48.2342742,38.4584686 47.8029497,37.9526708 47.2071633,37.5182432 L41.4168644,33.4035935 C40.9079636,33.031227 40.4425055,32.7643644 40.0204901,32.6030056 C39.5984748,32.4416468 39.2074899,32.3609674 38.8475357,32.3609674 C38.3634592,32.3609674 37.9042072,32.4881926 37.4697797,32.742643 C37.0353521,32.9970934 36.5885123,33.3539447 36.1292603,33.8131967 L34.6956493,35.265426 C34.4970539,35.4640214 34.2488096,35.5633191 33.9509164,35.5633191 C33.7895576,35.5633191 33.6313018,35.5384947 33.4761491,35.4888458 C33.3209964,35.439197 33.1937712,35.3771359 33.0944735,35.3026626 C32.4614504,34.9427083 31.6546564,34.3407158 30.6740913,33.4966851 C29.6935262,32.6526544 28.7129611,31.7403565 27.732396,30.7597915 C26.751831,29.7792264 25.8395331,28.7986613 24.9955024,27.8180962 C24.1514717,26.8375311 23.5494792,26.0307371 23.1895249,25.397714 C23.1150516,25.2984163 23.0529905,25.1711911 23.0033417,25.0160384 C22.9536928,24.8608857 22.9288684,24.708836 22.9288684,24.5598895 C22.9288684,24.249584 23.0281661,23.9951336 23.2267615,23.7965382 L24.6789908,22.3629272 C25.1382428,21.9036752 25.4950941,21.4568354 25.7495445,21.0224078 C26.0039949,20.5879803 26.1312201,20.1287283 26.1312201,19.6446518 C26.1312201,19.2846976 26.0505407,18.8937127 25.8891819,18.4716974 C25.7278231,18.049682 25.4609605,17.5842239 25.088594,17.0753231 L20.9739443,11.2850242 C20.5519289,10.6892378 20.0461311,10.2610164 19.4565509,10.0003598 C18.8669706,9.73970327 18.2618751,9.609375 17.6412642,9.609375 C16.251096,9.609375 14.9788439,10.1431003 13.8245077,11.2105509 C12.806706,12.1290549 12.061973,13.1592688 11.5903088,14.3011927 C11.1186446,15.4431166 10.8828125,16.6595138 10.8828125,17.9503843 C10.8828125,19.8991023 11.3482706,21.9626332 12.2791868,24.1409772 C13.210103,26.3193211 14.4761491,28.5069742 16.077325,30.7039365 C17.6785009,32.9008988 19.4844784,34.9985633 21.4952574,36.9969301 C23.4936242,39.0077091 25.5912887,40.8167897 27.788251,42.4241717 C29.9852133,44.0315537 32.1728664,45.2975997 34.3512103,46.2223098 C36.5295543,47.1470199 38.5930852,47.609375 40.5418032,47.609375 Z" id="􀌿" fill="url(#linearGradient-2)" fill-rule="nonzero"></path>
            </g>
        </g>
    </g>
</svg>