<svg xmlns="http://www.w3.org/2000/svg" width="148" height="48" viewBox="0 0 148 48">
  <g fill="none" fill-rule="evenodd">
    <rect width="148" height="48" fill="#000" rx="10"/>
    <g fill="#FFF" fill-rule="nonzero" transform="translate(13.8 9.6)">
      <path d="M17.922656,14.760816 C17.9488844,12.7250509 19.0161475,10.8446233 20.750528,9.778344 C19.6514151,8.20861532 17.8764704,7.24905402 15.961136,7.189128 C13.946048,6.977616 11.992508,8.394924 10.965656,8.394924 C9.918932,8.394924 8.337932,7.210128 6.635456,7.245156 C4.39544151,7.3175261 2.3577646,8.56023058 1.267952,10.5186 C-1.052848,14.536704 0.67826,20.441964 2.901392,23.689896 C4.013672,25.280316 5.313608,27.056856 7.014548,26.993856 C8.67902,26.92482 9.300668,25.93248 11.309828,25.93248 C13.30034,25.93248 13.883576,26.993856 15.619028,26.9538 C17.405084,26.924808 18.530384,25.356312 19.60364,23.750832 C20.4028113,22.6175996 21.0177724,21.3651311 21.425744,20.03982 C19.3044519,19.1426176 17.9251318,17.0640412 17.922656,14.760816 Z M14.6447,5.053068 C15.6185319,3.88401829 16.098302,2.38140294 15.982124,0.864324 C14.4943254,1.02058858 13.1200162,1.73165962 12.133028,2.855856 C11.1584224,3.96502684 10.6646896,5.41611922 10.760576,6.889524 C12.2683242,6.90504812 13.6998993,6.22818386 14.6447,5.053068 Z"/>
      <path d="M9.962724,12.16758 L4.282644,12.16758 L2.91858,16.19532 L0.512724,16.19532 L5.892804,1.29372 L8.392404,1.29372 L13.772484,16.19532 L11.3256,16.19532 L9.962724,12.16758 Z M4.87092,10.308984 L9.37332,10.308984 L7.153788,3.77226 L7.091676,3.77226 L4.87092,10.308984 Z M25.391628,10.763676 C25.391628,14.139852 23.584596,16.308984 20.857644,16.308984 C19.4481064,16.3827175 18.1203989,15.6444368 17.439288,14.408184 L17.387688,14.408184 L17.387688,19.78944 L15.157608,19.78944 L15.157608,5.330856 L17.31624,5.330856 L17.31624,7.137888 L17.357256,7.137888 C18.068626,5.9093855 19.3977652,5.17142261 20.816628,5.21718 C23.574,5.217192 25.391628,7.396872 25.391628,10.763676 Z M23.099436,10.763676 C23.099436,8.564076 21.962712,7.117968 20.22834,7.117968 C18.524436,7.117968 17.37834,8.594532 17.37834,10.763676 C17.37834,12.95274 18.524436,14.418756 20.22834,14.418756 C21.962724,14.418756 23.099436,12.983208 23.099436,10.763676 Z M37.349436,10.763676 C37.349436,14.139852 35.542404,16.308984 32.815452,16.308984 C31.4059144,16.3827175 30.0782069,15.6444368 29.397096,14.408184 L29.345496,14.408184 L29.345496,19.78944 L27.115416,19.78944 L27.115416,5.330856 L29.274,5.330856 L29.274,7.137888 L29.315016,7.137888 C30.0263911,5.90938625 31.3555354,5.17142768 32.7744,5.217192 C35.531856,5.217192 37.349436,7.396872 37.349436,10.763676 Z M35.057244,10.763676 C35.057244,8.564076 33.92052,7.117968 32.186148,7.117968 C30.482244,7.117968 29.336148,8.594532 29.336148,10.763676 C29.336148,12.95274 30.482244,14.418756 32.186148,14.418756 C33.920532,14.418756 35.057256,12.983208 35.057256,10.763676 L35.057244,10.763676 Z M45.252564,12.043356 C45.417804,13.521096 46.853364,14.491356 48.815064,14.491356 C50.694756,14.491356 52.047096,13.521048 52.047096,12.188616 C52.047096,11.031972 51.231468,10.339416 49.300224,9.864792 L47.36898,9.399552 C44.632656,8.738616 43.362336,7.458924 43.362336,5.38236 C43.362336,2.811264 45.602964,1.045248 48.784596,1.045248 C51.933396,1.045248 54.092016,2.811264 54.164676,5.38236 L51.913476,5.38236 C51.778716,3.895248 50.549412,2.9976 48.752928,2.9976 C46.956444,2.9976 45.727152,3.905808 45.727152,5.22768 C45.727152,6.281196 46.512312,6.901116 48.433008,7.37568 L50.0748,7.778808 C53.13222,8.501856 54.40254,9.730008 54.40254,11.909664 C54.40254,14.697552 52.181832,16.443648 48.6498,16.443648 C45.345108,16.443648 43.113864,14.738568 42.96972,12.043248 L45.252564,12.043356 Z M59.215452,2.75976 L59.215452,5.330856 L61.281468,5.330856 L61.281468,7.096872 L59.215452,7.096872 L59.215452,13.086324 C59.215452,14.016792 59.629128,14.450388 60.537324,14.450388 C60.7825937,14.4461111 61.0274665,14.4288871 61.27092,14.398788 L61.27092,16.154256 C60.862594,16.2305515 60.447565,16.2651054 60.032244,16.257384 C57.832644,16.257384 56.974824,15.431208 56.974824,13.324176 L56.974824,7.096872 L55.395144,7.096872 L55.395144,5.330856 L56.9748,5.330856 L56.9748,2.75976 L59.215452,2.75976 Z M62.478,10.763676 C62.478,7.34532 64.491276,5.197272 67.63074,5.197272 C70.78074,5.197272 72.784644,7.345272 72.784644,10.763676 C72.784644,14.191416 70.791288,16.33008 67.63074,16.33008 C64.471308,16.33008 62.478,14.191404 62.478,10.763676 Z M70.512372,10.763676 C70.512372,8.418756 69.43776,7.034772 67.630728,7.034772 C65.823696,7.034772 64.75026,8.429304 64.75026,10.763676 C64.75026,13.117968 65.823696,14.491416 67.630728,14.491416 C69.43776,14.491416 70.512324,13.117968 70.512324,10.763676 L70.512372,10.763676 Z M74.623272,5.330856 L76.750224,5.330856 L76.750224,7.180056 L76.801824,7.180056 C77.0984352,5.98964209 78.1891831,5.17035787 79.4151,5.217168 C79.6720968,5.21627068 79.9283846,5.2441809 80.179164,5.300376 L80.179164,7.386312 C79.8547212,7.28717198 79.5162715,7.24165355 79.177164,7.251552 C78.5215418,7.22495453 77.8870451,7.48624168 77.4402738,7.96680716 C76.9935024,8.44737266 76.7790919,9.09920489 76.85334,9.751152 L76.85334,16.195296 L74.62326,16.195296 L74.623272,5.330856 Z M90.46116,13.004292 C90.16116,14.976552 88.240452,16.330068 85.783032,16.330068 C82.622484,16.330068 80.660772,14.212488 80.660772,10.815228 C80.660772,7.40742 82.633032,5.19726 85.689288,5.19726 C88.695144,5.19726 90.585384,7.2621 90.585384,10.556244 L90.585384,11.320308 L82.911948,11.320308 L82.911948,11.455068 C82.8403049,12.2639059 83.1195979,13.0645433 83.6787839,13.6533239 C84.23797,14.2421045 85.023153,14.56228 85.834608,14.532408 C86.9168188,14.6338075 87.9371317,14.0123732 88.343592,13.00428 L90.46116,13.004292 Z M82.9224658,9.761724 L88.354128,9.761712 C88.3945986,9.03491699 88.1300358,8.3241877 87.6241801,7.80075786 C87.1183243,7.27732801 86.417041,6.98865649 85.689288,7.004292 C84.9557782,6.99991468 84.2509088,7.28872156 83.7313506,7.80651989 C83.2117924,8.32431823 82.9205956,9.0282035 82.9224658,9.761724 Z" transform="translate(29 10.8)"/>
    </g>
    <g fill="#FFF" fill-rule="nonzero" transform="translate(44 9.6)">
      <path d="M3.391428,0.8772 C4.33816387,0.809261017 5.26547071,1.16945691 5.91811355,1.85864618 C6.57075638,2.54783545 6.87994304,3.49337375 6.760572,4.435008 C6.760572,6.722508 5.524248,8.037408 3.391428,8.037408 L0.805104,8.037408 L0.805104,0.8772 L3.391428,0.8772 Z M1.917204,7.0248 L3.267204,7.0248 C3.94379033,7.06524241 4.60258382,6.79867081 5.06066221,6.29910215 C5.5187406,5.79953348 5.72733553,5.1201533 5.628528,4.4496 C5.72014681,3.78182944 5.5085479,3.10805546 5.0516053,2.61256078 C4.59466268,2.1170661 3.9401948,1.85170356 3.267204,1.889052 L1.917204,1.889052 L1.917204,7.0248 Z M8.016816,5.333208 C7.92416056,4.36467006 8.38858039,3.42733432 9.21529912,2.91431684 C10.0420178,2.40129936 11.0880982,2.40129936 11.9148169,2.91431684 C12.7415356,3.42733432 13.2059555,4.36467006 13.1133,5.333208 C13.2077183,6.30278671 12.7437224,7.24194046 11.9162706,7.75606236 C11.0888189,8.27018426 10.0412971,8.27018426 9.21384535,7.75606236 C8.38639361,7.24194046 7.92239767,6.30278671 8.016816,5.333208 Z M12.016416,5.333208 C12.016416,4.161924 11.49024,3.476964 10.566816,3.476964 C9.639864,3.476964 9.118416,4.161924 9.118416,5.33322 C9.118416,6.513888 9.6399,7.193568 10.566816,7.193568 C11.490264,7.193556 12.016428,6.509184 12.016428,5.333208 L12.016416,5.333208 Z"/>
      <polygon points="19.888 8.038 18.781 8.038 17.665 4.057 17.58 4.057 16.469 8.038 15.373 8.038 13.883 2.634 14.965 2.634 15.932 6.757 16.013 6.757 17.124 2.634 18.146 2.634 19.258 6.757 19.342 6.757 20.305 2.634 21.372 2.634"/>
      <path d="M22.624248,2.633784 L23.6508,2.633784 L23.6508,3.49218 L23.730492,3.49218 C24.0076139,2.86017353 24.6551675,2.47356896 25.342992,2.52948 C25.8755722,2.48943812 26.3974631,2.69374788 26.761309,3.08472248 C27.1251548,3.47569709 27.2914717,4.01090851 27.2133,4.53924 L27.2133,8.03724 L26.146896,8.03724 L26.146896,4.807032 C26.146896,3.938676 25.769556,3.506832 24.98088,3.506832 C24.619639,3.49000694 24.2690642,3.63177908 24.0210655,3.89498014 C23.7730668,4.1581812 23.652378,4.51656121 23.69064,4.876164 L23.69064,8.0373 L22.624236,8.0373 L22.624248,2.633784 Z"/>
      <polygon points="28.913 .524 29.978 .524 29.978 8.038 28.913 8.038"/>
      <path d="M31.461348,5.333208 C31.3687637,4.3646067 31.8332568,3.42724723 32.6600369,2.91422184 C33.486817,2.40119645 34.532951,2.40119645 35.3597311,2.91422184 C36.1865112,3.42724723 36.6510043,4.3646067 36.55842,5.333208 C36.6527184,6.30282143 36.1886375,7.24194863 35.3611446,7.75604789 C34.5336518,8.27014715 33.4861162,8.27014715 32.6586234,7.75604789 C31.8311305,7.24194863 31.3670496,6.30282143 31.461348,5.333208 Z M35.460948,5.333208 C35.460948,4.161924 34.934772,3.476964 34.011348,3.476964 C33.084396,3.476964 32.562948,4.161924 32.562948,5.33322 C32.562948,6.513888 33.084432,7.193568 34.011348,7.193568 C34.934784,7.193556 35.46096,6.509184 35.46096,5.333208 L35.460948,5.333208 Z M37.68108,6.509184 C37.68108,5.536524 38.405304,4.975788 39.69084,4.896096 L41.154516,4.811724 L41.154516,4.34532 C41.154516,3.774612 40.777176,3.452352 40.048272,3.452352 C39.452964,3.452352 39.040464,3.670908 38.922096,4.05294 L37.889676,4.05294 C37.99866,3.124812 38.871708,2.529504 40.097484,2.529504 C41.452176,2.529504 42.21624,3.203904 42.21624,4.34532 L42.21624,8.037312 L41.189676,8.037312 L41.189676,7.27794 L41.105304,7.27794 C40.7566423,7.8324916 40.1366083,8.15659588 39.482256,8.12634 C39.0235393,8.17405417 38.5660453,8.02549279 38.222875,7.71738293 C37.8797046,7.40927308 37.6828873,6.97037197 37.68108,6.509184 Z M41.154516,6.04746 L41.154516,5.595708 L39.834984,5.68008 C39.09084,5.72988 38.75334,5.983008 38.75334,6.459372 C38.75334,6.945696 39.175212,7.228704 39.75534,7.228704 C40.0987633,7.26346783 40.4415917,7.15737006 40.7053445,6.93469871 C40.9690973,6.71202736 41.1311899,6.39184927 41.154516,6.04746 Z M43.617792,5.333208 C43.617792,3.625788 44.495532,2.544144 45.86076,2.544144 C46.5501322,2.51238016 47.195793,2.88176744 47.517792,3.492144 L47.597484,3.492144 L47.597484,0.5244 L48.663888,0.5244 L48.663888,8.037288 L47.642016,8.037288 L47.642016,7.183572 L47.557644,7.183572 C47.211305,7.78888438 46.5576894,8.15202778 45.860772,8.12634 C44.48616,8.1264 43.617792,7.044732 43.617792,5.333208 Z M44.719392,5.333208 C44.719392,6.479304 45.259632,7.168956 46.163148,7.168956 C47.061948,7.168956 47.61744,6.469356 47.61744,5.3379 C47.61744,4.211724 47.056116,3.502152 46.163148,3.502152 C45.265452,3.502152 44.719356,4.196484 44.719356,5.333208 L44.719392,5.333208 Z M53.076,5.333208 C52.9833445,4.36467006 53.4477644,3.42733432 54.2744831,2.91431684 C55.1012018,2.40129936 56.1472822,2.40129936 56.9740009,2.91431684 C57.8007196,3.42733432 58.2651395,4.36467006 58.172484,5.333208 C58.2669023,6.30278671 57.8029064,7.24194046 56.9754546,7.75606236 C56.1480029,8.27018426 55.1004811,8.27018426 54.2730294,7.75606236 C53.4455776,7.24194046 52.9815817,6.30278671 53.076,5.333208 Z M57.0756,5.333208 C57.0756,4.161924 56.549424,3.476964 55.626,3.476964 C54.699048,3.476964 54.1776,4.161924 54.1776,5.33322 C54.1776,6.513888 54.699084,7.193568 55.626,7.193568 C56.549436,7.193556 57.0756,6.509184 57.0756,5.333208 Z M59.60334,2.633784 L60.629904,2.633784 L60.629904,3.49218 L60.709596,3.49218 C60.9867179,2.86017353 61.6342715,2.47356896 62.322096,2.52948 C62.8546762,2.48943812 63.3765671,2.69374788 63.740413,3.08472248 C64.1042588,3.47569709 64.2705757,4.01090851 64.192404,4.53924 L64.192404,8.03724 L63.126,8.03724 L63.126,4.807032 C63.126,3.938676 62.74866,3.506832 61.959984,3.506832 C61.598743,3.49000694 61.2481682,3.63177908 61.0001695,3.89498014 C60.7521708,4.1581812 60.631482,4.51656121 60.669744,4.876164 L60.669744,8.0373 L59.60334,8.0373 L59.60334,2.633784 Z M70.218192,1.288476 L70.218192,2.658396 L71.3889,2.658396 L71.3889,3.556644 L70.218192,3.556644 L70.218192,6.33516 C70.218192,6.901176 70.4514,7.149024 70.982256,7.149024 C71.1181627,7.14858905 71.253933,7.14037159 71.3889,7.124412 L71.3889,8.012688 C71.1973914,8.04694886 71.0033587,8.06517605 70.80882,8.06718 C69.622884,8.06718 69.150612,7.649988 69.150612,6.608196 L69.150612,3.556596 L68.292804,3.556596 L68.292804,2.658348 L69.150612,2.658348 L69.150612,1.288476 L70.218192,1.288476 Z M72.845532,0.5244 L73.902564,0.5244 L73.902564,3.50214 L73.986936,3.50214 C74.2773694,2.86460227 74.9362561,2.47750505 75.634536,2.534172 C76.1640919,2.50535674 76.678918,2.71416445 77.0387872,3.10372062 C77.3986562,3.49327679 77.5660859,4.02300677 77.495472,4.548624 L77.495472,8.0373 L76.428,8.0373 L76.428,4.8117 C76.428,3.948612 76.026,3.5115 75.272532,3.5115 C74.9015268,3.4810724 74.5360069,3.61594915 74.2736908,3.8800722 C74.0113747,4.14419526 73.8790103,4.51063237 73.911984,4.88142 L73.911984,8.037276 L72.84558,8.037276 L72.845532,0.5244 Z M83.7135,6.578316 C83.4144684,7.59757138 82.4281187,8.25612365 81.372096,8.141592 C80.6515727,8.16061224 79.9591097,7.86195684 79.4784338,7.32486619 C78.9977581,6.78777556 78.7774637,6.06654713 78.876,5.35254 C78.7800809,4.63654858 78.9995498,3.91416448 79.477549,3.37253635 C79.9555481,2.83090822 80.6450424,2.5233321 81.367404,2.529492 C82.87092,2.529492 83.777952,3.556692 83.777952,5.253492 L83.777952,5.6256 L79.962324,5.6256 L79.962324,5.68536 C79.9285584,6.08632817 80.0655008,6.4829373 80.339473,6.77764884 C80.6134451,7.07236038 80.9990255,7.2378287 81.401388,7.23336 C81.9231143,7.29599362 82.430979,7.03719965 82.686936,6.57828 L83.7135,6.578316 Z M79.9623,4.836912 L82.691592,4.836912 C82.7187755,4.47019253 82.5898302,4.10904608 82.3365323,3.84247091 C82.0832345,3.57589573 81.729141,3.42868348 81.361512,3.437112 C80.9889024,3.43243069 80.6301936,3.57842549 80.3667556,3.84197866 C80.1033176,4.10553184 79.9574797,4.46430449 79.962324,4.836912 L79.9623,4.836912 Z"/>
    </g>
  </g>
</svg>
