<svg width="1800" height="850" viewBox="0 0 1800 850" fill="none" xmlns="http://www.w3.org/2000/svg">
<g clip-path="url(#clip0_352_45)">
<rect width="1800" height="850" fill="#030D12"/>
<g style="mix-blend-mode:hard-light" filter="url(#filter0_f_352_45)">
<path d="M1519.71 690.66C1512.29 732.795 1211.65 733.598 935.324 691.12C659.003 648.643 441.018 580.05 448.442 537.914C455.866 495.779 756.507 494.976 1032.83 537.454C1309.15 579.931 1527.13 648.524 1519.71 690.66Z" fill="url(#paint0_linear_352_45)"/>
<path d="M1519.22 690.584C1518.78 693.067 1517.25 695.442 1514.64 697.702C1512.01 699.964 1508.32 702.087 1503.62 704.061C1494.2 708.009 1480.81 711.323 1464.06 713.989C1430.55 719.32 1383.67 722.043 1328.36 722.122C1217.76 722.28 1073.55 711.863 935.411 690.628C797.267 669.392 673.717 641.629 585.639 613.914C541.597 600.055 506.445 586.215 482.778 573.218C470.941 566.718 462.004 560.444 456.264 554.504C450.513 548.553 448.05 543.024 448.937 537.99C449.374 535.507 450.898 533.132 453.518 530.872C456.139 528.61 459.83 526.487 464.538 524.513C473.953 520.565 487.338 517.251 504.096 514.585C537.605 509.254 584.486 506.531 639.789 506.452C750.39 506.294 894.605 516.711 1032.74 537.946C1170.89 559.182 1294.44 586.945 1382.51 614.66C1426.56 628.519 1461.71 642.359 1485.38 655.356C1497.21 661.856 1506.15 668.13 1511.89 674.07C1517.64 680.021 1520.1 685.55 1519.22 690.584Z" stroke="#0692E3"/>
</g>
<g style="mix-blend-mode:hard-light" filter="url(#filter1_f_352_45)">
<path d="M293.708 217.035C308.458 173.883 617.007 214.24 893.28 296.633C1169.55 379.027 1381.56 480.801 1366.81 523.953C1352.06 567.105 1043.51 526.748 767.236 444.355C490.963 361.962 278.957 260.187 293.708 217.035Z" fill="url(#paint1_linear_352_45)"/>
<path d="M294.187 217.178C295.061 214.62 297.036 212.333 300.109 210.32C303.184 208.307 307.333 206.586 312.497 205.162C322.825 202.313 337.119 200.673 354.761 200.175C390.039 199.179 438.593 202.749 495.339 210.244C608.826 225.235 755.006 255.917 893.118 297.106C1031.24 338.298 1153.28 384.331 1238.94 425.454C1281.78 446.017 1315.49 465.342 1337.57 482.209C1348.62 490.645 1356.72 498.447 1361.61 505.463C1366.5 512.488 1368.1 518.634 1366.33 523.81C1365.46 526.368 1363.48 528.656 1360.41 530.668C1357.33 532.682 1353.18 534.402 1348.02 535.827C1337.69 538.675 1323.4 540.315 1305.76 540.813C1270.48 541.81 1221.92 538.24 1165.18 530.744C1051.69 515.753 905.511 485.072 767.398 443.882C629.279 402.69 507.235 356.657 421.573 315.535C378.738 294.972 345.022 275.646 322.942 258.779C311.9 250.344 303.794 242.541 298.909 235.526C294.018 228.501 292.417 222.355 294.187 217.178Z" stroke="#0692E3"/>
</g>
</g>
<defs>
<filter id="filter0_f_352_45" x="48.2583" y="105.952" width="1871.64" height="1016.67" filterUnits="userSpaceOnUse" color-interpolation-filters="sRGB">
<feFlood flood-opacity="0" result="BackgroundImageFix"/>
<feBlend mode="normal" in="SourceGraphic" in2="BackgroundImageFix" result="shape"/>
<feGaussianBlur stdDeviation="200" result="effect1_foregroundBlur_352_45"/>
</filter>
<filter id="filter1_f_352_45" x="-107.018" y="-200.483" width="1874.55" height="1141.95" filterUnits="userSpaceOnUse" color-interpolation-filters="sRGB">
<feFlood flood-opacity="0" result="BackgroundImageFix"/>
<feBlend mode="normal" in="SourceGraphic" in2="BackgroundImageFix" result="shape"/>
<feGaussianBlur stdDeviation="200" result="effect1_foregroundBlur_352_45"/>
</filter>
<linearGradient id="paint0_linear_352_45" x1="1574.55" y1="792.688" x2="599.86" y2="675.917" gradientUnits="userSpaceOnUse">
<stop offset="0.217684" stop-color="#0782CA"/>
<stop offset="0.864506" stop-color="#89B9D4"/>
</linearGradient>
<linearGradient id="paint1_linear_352_45" x1="254.729" y1="102.568" x2="1229.18" y2="378.532" gradientUnits="userSpaceOnUse">
<stop offset="0.103883" stop-color="#601092"/>
<stop offset="0.864506" stop-color="#A629F4"/>
</linearGradient>
<clipPath id="clip0_352_45">
<rect width="1800" height="850" fill="white"/>
</clipPath>
</defs>
</svg>
