<svg width="44" height="44" viewBox="0 0 44 44" fill="none" xmlns="http://www.w3.org/2000/svg">
<rect x="40.4326" y="30.9189" width="2.37838" height="3.56757" fill="#022032"/>
<rect y="3.56738" width="41.6216" height="35.6757" rx="4" fill="#022032"/>
<path d="M5.32888 21.5363C5.21795 21.5363 5.1189 21.049 5.1189 20.4508C5.1189 19.8525 5.20606 19.3691 5.32888 19.3691H10.6696C10.7806 19.3691 10.8796 19.8565 10.8796 20.4508C10.8796 21.049 10.7925 21.5363 10.6696 21.5363H5.32888ZM13.8432 21.5363C13.7322 21.5363 13.6332 21.049 13.6332 20.4508C13.6332 19.8525 13.7204 19.3691 13.8432 19.3691H19.1839C19.2949 19.3691 19.3939 19.8565 19.3939 20.4508C19.3939 21.049 19.3068 21.5363 19.1839 21.5363H13.8432ZM5.34077 27.7487C5.22983 27.7487 5.13078 27.2614 5.13078 26.6632C5.13078 26.0649 5.21795 25.5776 5.34077 25.5776H10.6815C10.7925 25.5776 10.8915 26.0649 10.8915 26.6632C10.8915 27.2614 10.8043 27.7487 10.6815 27.7487H5.34077ZM13.8551 27.7487C13.7441 27.7487 13.6451 27.2614 13.6451 26.6632C13.6451 26.0649 13.7322 25.5776 13.8551 25.5776H19.1958C19.3068 25.5776 19.4058 26.0649 19.4058 26.6632C19.4058 27.2614 19.3186 27.7487 19.1958 27.7487H13.8551ZM5.35265 33.9651C5.24172 33.9651 5.14267 33.4778 5.14267 32.8795C5.14267 32.2812 5.22983 31.7939 5.35265 31.7939H10.6934C10.8043 31.7939 10.9034 32.2812 10.9034 32.8795C10.9034 33.4778 10.8162 33.9651 10.6934 33.9651H5.35265ZM13.867 33.9651C13.756 33.9651 13.657 33.4778 13.657 32.8795C13.657 32.2812 13.7441 31.7939 13.867 31.7939H19.2077C19.3186 31.7939 19.4177 32.2812 19.4177 32.8795C19.4177 33.4778 19.3305 33.9651 19.2077 33.9651H13.867Z" fill="white"/>
<path d="M21.5906 20.4508C21.5906 21.049 21.6896 21.5363 21.8006 21.5363H27.1413C27.2641 21.5363 27.3513 21.049 27.3513 20.4508C27.3513 19.8565 27.2523 19.3691 27.1413 19.3691H21.8006C21.6777 19.3691 21.5906 19.8525 21.5906 20.4508Z" fill="white"/>
<rect y="10.7021" width="41.6216" height="2.37838" rx="1.18919" fill="white"/>
<rect x="8.32446" width="3.56757" height="8.32432" rx="1" fill="white"/>
<rect x="29.7295" width="3.56757" height="8.32432" rx="1" fill="white"/>
<path d="M34.4865 24.9736C36.3681 24.9736 38.2074 25.5316 39.7719 26.5769C41.3364 27.6223 42.5558 29.1081 43.2758 30.8465C43.9959 32.5848 44.1843 34.4977 43.8172 36.3431C43.4501 38.1886 42.544 39.8837 41.2136 41.2142C39.8831 42.5447 38.1879 43.4508 36.3425 43.8179C34.497 44.1849 32.5842 43.9965 30.8458 43.2765C29.1075 42.5564 27.6216 41.3371 26.5763 39.7726C25.5309 38.2081 24.973 36.3687 24.973 34.4871C24.9758 31.9649 25.979 29.5467 27.7625 27.7632C29.546 25.9797 31.9642 24.9764 34.4865 24.9736ZM33.5351 34.4871C33.5351 34.7395 33.6354 34.9814 33.8138 35.1598C33.9922 35.3383 34.2342 35.4385 34.4865 35.4385H39.1838C39.4361 35.4385 39.6781 35.3383 39.8565 35.1598C40.0349 34.9814 40.1351 34.7395 40.1351 34.4871C40.1351 34.2348 40.0349 33.9928 39.8565 33.8144C39.6781 33.636 39.4361 33.5358 39.1838 33.5358H35.4378V29.7898C35.4378 29.5375 35.3376 29.2956 35.1592 29.1171C34.9808 28.9387 34.7388 28.8385 34.4865 28.8385C34.2342 28.8385 33.9922 28.9387 33.8138 29.1171C33.6354 29.2956 33.5351 29.5375 33.5351 29.7898V34.4871Z" fill="white"/>
</svg>
