<svg width="44" height="34" viewBox="0 0 44 34" fill="none" xmlns="http://www.w3.org/2000/svg">
<rect x="6.65503" y="2.2002" width="29.7" height="17.6" fill="white"/>
<path d="M42.5139 33.6611H1.53665C1.0976 33.6611 0.512216 33.3684 0.219521 32.9294C-0.0731736 32.4903 -0.0731736 31.9049 0.219521 31.4659L3.14647 27.0755C3.43916 26.6364 3.8782 26.3438 4.46359 26.3438H39.5869C40.1723 26.3438 40.6114 26.6364 40.9041 27.2218L43.831 31.6123C44.1237 32.0513 43.9774 32.6367 43.831 33.0757C43.5383 33.3684 42.9529 33.6611 42.5139 33.6611Z" fill="#022032"/>
<path d="M38.1235 0H5.9271C5.04901 0 4.46362 0.585389 4.46362 1.46347V21.9521C4.46362 22.8302 5.04901 23.4156 5.9271 23.4156H38.1235C39.0016 23.4156 39.587 22.8302 39.587 21.9521V1.46347C39.587 0.585389 39.0016 0 38.1235 0ZM15.7324 15.0738C16.3178 15.6592 16.3178 16.5372 15.7324 17.1226C15.4397 17.4153 15.147 17.5617 14.7079 17.5617C14.2689 17.5617 13.9762 17.4153 13.6835 17.1226L9.29308 12.7322C8.70769 12.1468 8.70769 11.2687 9.29308 10.6834L13.6835 6.29293C14.2689 5.70754 15.147 5.70754 15.7324 6.29293C16.3178 6.87832 16.3178 7.75641 15.7324 8.3418L12.3664 11.7078L15.7324 15.0738ZM26.2694 6.43928L20.4155 18.1471C20.1228 18.7325 19.6837 19.0251 19.0984 19.0251C18.8057 19.0251 18.6593 19.0251 18.513 18.8788C17.7812 18.5861 17.4885 17.708 17.9276 16.9763L23.7815 5.2685C24.0742 4.53677 24.9522 4.24407 25.684 4.68311C26.2694 4.97581 26.5621 5.85389 26.2694 6.43928ZM34.7575 12.7322L30.3671 17.1226C30.0744 17.4153 29.7817 17.5617 29.3427 17.5617C28.9036 17.5617 28.6109 17.4153 28.3182 17.1226C27.7328 16.5372 27.7328 15.6592 28.3182 15.0738L31.6842 11.7078L28.3182 8.3418C27.7328 7.75641 27.7328 6.87832 28.3182 6.29293C28.9036 5.70754 29.7817 5.70754 30.3671 6.29293L34.7575 10.6834C35.3429 11.2687 35.3429 12.1468 34.7575 12.7322Z" fill="#022032"/>
</svg>
