<svg width="164" height="38" viewBox="0 0 164 38" fill="none" xmlns="http://www.w3.org/2000/svg">
<path d="M30.1778 37.5458V23.7364C30.1778 22.4569 29.9572 21.4863 29.5161 21.0451C29.4278 20.9127 29.0749 20.5156 27.8395 20.5156C26.913 20.5156 26.163 20.7804 25.5012 21.3098C25.2806 21.4863 24.6629 22.0157 24.6188 23.604V37.5458H15.3095V23.7364C15.3095 21.751 14.9124 21.3539 14.7801 21.1774C14.5595 20.9127 13.6771 20.5598 12.9712 20.5598C12.0447 20.5598 11.2946 20.7804 10.5887 21.3539C10.0152 21.8833 9.70632 22.6775 9.70632 23.8687V37.5458H0V11.9123H9.70632V12.7506C11.1623 12.0888 12.7065 11.6035 14.2948 11.6035C15.8831 11.6035 17.3831 11.8682 18.6626 12.3976C19.7656 12.7947 20.7362 13.4124 21.5304 14.2065C22.1922 13.7212 22.854 13.28 23.5599 12.8829C25.2806 12.0447 27.1336 11.6035 29.1631 11.6035C32.2956 11.6035 34.8986 12.5741 36.884 14.4712C38.8694 16.3684 39.8842 19.0156 39.8842 22.4128V37.5458H30.1778Z" fill="#0692E3"/>
<path d="M39.8766 24.7511C39.8766 17.692 45.6121 12.0005 52.6713 12.0005C59.7304 12.0005 65.466 17.692 65.466 24.7511C65.466 31.8103 59.7304 37.5458 52.6713 37.5458C45.6121 37.5458 39.8766 31.8103 39.8766 24.7511ZM52.6272 28.5454C54.7008 28.5454 56.3773 26.8689 56.3773 24.7952C56.3773 22.7216 54.7008 21.0451 52.6272 21.0451C50.5977 21.0451 48.9211 22.7216 48.9211 24.7952C48.9211 26.8689 50.5977 28.5454 52.6272 28.5454Z" fill="#0692E3"/>
<path d="M79.2451 19.7215C78.1421 19.7215 77.0832 20.1186 76.3773 20.9127C75.6273 21.7069 75.2302 22.8099 75.2302 24.0452C75.2302 25.4129 75.6273 26.56 76.3773 27.3542C77.0832 28.1483 78.1421 28.5454 79.2451 28.5454C81.5393 28.5454 83.0394 26.7806 83.0394 24.0452C83.0394 21.4863 81.4952 19.7215 79.2451 19.7215ZM81.1423 37.3693C78.848 37.3693 77.1274 36.8399 75.6273 35.6046V37.5458H65.921V0H75.6273V13.5889C76.1567 13.0594 77.2156 12.4417 77.8774 12.1329C79.0245 11.6476 80.3481 11.3388 81.6276 11.3388C84.7159 11.3388 87.6278 12.6623 89.6573 15.0007C90.6721 16.1919 91.4221 17.5596 91.9957 19.1479C92.6134 20.7362 92.834 22.501 92.834 24.3541C92.834 26.2512 92.6134 28.016 91.9957 29.6043C91.4221 31.1485 90.628 32.5603 89.6132 33.7074C88.5544 34.8986 87.2749 35.8252 85.9072 36.4428C84.4071 37.0605 82.7747 37.3693 81.1423 37.3693Z" fill="#0692E3"/>
<path d="M106.241 37.5458C102.535 37.5458 99.3585 36.3546 96.976 34.0604C94.4612 31.722 93.27 28.5895 93.27 24.707C93.27 20.8245 94.5053 17.692 97.0202 15.3978C99.535 13.1035 102.491 11.9123 105.844 11.9123C109.241 11.9123 112.197 13.0153 114.536 15.0448C116.962 17.1625 118.153 19.9862 118.153 23.5599V27.9719H112.109L116.698 32.9133L116.036 33.5751C113.256 36.1781 109.947 37.5458 106.241 37.5458ZM101.785 27.9719C102.094 28.5013 102.491 28.9425 103.02 29.2955C103.991 30.0014 105.05 30.3102 106.241 30.3102C108.227 30.3102 109.815 29.6925 111.094 28.3689L111.491 27.9719H101.785ZM109.594 21.4863C109.374 20.8686 109.065 20.4274 108.624 19.9862C107.918 19.4568 107.035 19.1479 105.976 19.1479C104.962 19.1479 103.991 19.4568 103.065 20.1186C102.535 20.4715 102.138 20.9568 101.917 21.4863H109.594Z" fill="#0692E3"/>
<path d="M132.556 37.5458V24.0011C132.556 22.4569 132.204 21.8834 132.071 21.7069C131.895 21.4863 131.453 21.3539 130.836 21.3539C130.086 21.3539 129.512 21.5745 128.939 22.0598C128.762 22.2363 128.277 22.6775 128.277 24.1776V37.5458H118.615V11.9564H128.277V12.8388C129.468 12.3535 130.748 12.1329 132.027 12.1329C134.983 12.1329 137.454 13.0594 139.351 14.9566C141.248 16.8096 142.219 19.4568 142.219 22.7657V37.5458H132.556Z" fill="#0692E3"/>
<path d="M145.161 3.66193V12.0005H141.984V20.648H145.161V28.2807C145.161 28.2807 144.984 37.6782 154.603 37.5458C161.838 37.4576 164 33.2662 164 33.2662L160.338 26.3394C160.338 26.3394 159.191 29.2513 156.764 29.2513C154.338 29.2513 154.691 27.8395 154.691 26.2512C154.691 24.6629 154.691 20.648 154.691 20.648H161.441V12.0005H154.823V3.66193H145.161Z" fill="#0692E3"/>
</svg>
