<svg width="80" height="80" viewBox="0 0 80 80" fill="none" xmlns="http://www.w3.org/2000/svg">
<path d="M56.6667 71.6667C56.6667 73.4348 55.9643 75.1305 54.7141 76.3807C53.4638 77.631 51.7681 78.3333 50 78.3333H20C18.2319 78.3333 16.5362 77.631 15.286 76.3807C14.0358 75.1305 13.3334 73.4348 13.3334 71.6667V36.6667C13.3334 36.2246 13.509 35.8007 13.8215 35.4882C14.1341 35.1756 14.558 35 15 35H55C55.4421 35 55.866 35.1756 56.1786 35.4882C56.4911 35.8007 56.6667 36.2246 56.6667 36.6667V71.6667Z" fill="#B7DFA9"/>
<path d="M56.27 1.87988C59.7134 7.12655 54.6034 10.0032 53.4267 12.8199C53.1138 13.4741 52.9423 14.1868 52.9234 14.9117C52.9045 15.6366 53.0386 16.3574 53.3169 17.027C53.5952 17.6966 54.0116 18.3 54.5388 18.7979C55.066 19.2958 55.6923 19.6769 56.3767 19.9165C66.0434 23.9999 68.9234 4.93988 56.27 1.87988Z" fill="#B7DFA9" stroke="#B7DFA9" stroke-linecap="round" stroke-linejoin="round"/>
<path d="M26.6667 35H16.6667L11.5 25L10 15L18.5 20L26.6667 35Z" fill="#5FC33B"/>
<path d="M43.3333 3.33366C43.3333 2.89163 43.1577 2.46771 42.8452 2.15515C42.5326 1.84259 42.1087 1.66699 41.6667 1.66699H31.6667C31.2246 1.66699 30.8007 1.84259 30.4882 2.15515C30.1756 2.46771 30 2.89163 30 3.33366V35.0003H43.3333V3.33366Z" fill="#5FC33B"/>
<path d="M43.3333 8.33301H36.6666" stroke="#B7DFA9" stroke-linecap="round" stroke-linejoin="round"/>
<path d="M43.3333 15H40" stroke="#B7DFA9" stroke-linecap="round" stroke-linejoin="round"/>
<path d="M43.3333 21.667H36.6666" stroke="#B7DFA9" stroke-linecap="round" stroke-linejoin="round"/>
<path d="M43.3333 28.333H40" stroke="#B7DFA9" stroke-linecap="round" stroke-linejoin="round"/>
<path d="M10 15.0001L18.5001 19.9997L11.5 25L10 15.0001Z" fill="#B7DFA9"/>
<path d="M55 19.5L59 21L54 35H46.5L55 19.5Z" fill="#5FC33B"/>
</svg>
