<svg width="80" height="80" viewBox="0 0 80 80" fill="none" xmlns="http://www.w3.org/2000/svg">
<path d="M68 27.5C68 26.0167 67.5601 24.5667 66.736 23.3332C65.9119 22.0998 64.7406 21.1385 63.3701 20.5708C61.9997 20.0033 60.4917 19.8547 59.0368 20.1442C57.582 20.4335 56.2457 21.1478 55.1967 22.1967C54.1478 23.2457 53.4335 24.582 53.1442 26.0368C52.8547 27.4917 53.0032 28.9997 53.5708 30.3702C54.1385 31.7405 55.0998 32.912 56.3332 33.736C57.5667 34.5602 59.0167 35 60.5 35C62.4885 34.9978 64.3948 34.2068 65.8009 32.8008C67.2069 31.3948 67.9978 29.4885 68 27.5ZM68 63.3333C69.3261 63.3333 70.5978 62.8065 71.5355 61.8688C72.4732 60.9312 73 59.6595 73 58.3333V50.8333C73.0032 48.6085 72.4117 46.4232 71.2866 44.5037C70.1616 42.5842 68.5439 41.0003 66.6011 39.9162C64.6583 38.8318 62.461 38.2867 60.2367 38.3368C58.0123 38.387 55.8418 39.0308 53.95 40.2017C56.5723 43.4472 58.002 47.4942 58 51.6667V61.6667C58.0005 62.2263 57.9447 62.7848 57.8333 63.3333H68Z" fill="#FFACAC"/>
<path d="M40 13C41.9778 13 43.9112 13.5938 45.5557 14.7064C47.2002 15.8189 48.482 17.4002 49.2388 19.2503C49.9957 21.1005 50.1937 23.1363 49.8078 25.1002C49.422 27.0643 48.4697 28.8684 47.071 30.2844C45.6725 31.7005 43.8907 32.6648 41.9508 33.0554C40.0112 33.4461 38.0005 33.2456 36.1732 32.4793C34.3458 31.713 32.7842 30.4152 31.6853 28.7501C30.5865 27.0851 30 25.1276 30 23.125C30.0027 20.4405 31.057 17.8667 32.9318 15.9685C34.8067 14.0703 37.3487 13.0027 40 13ZM55 61.9375C55 63.2802 54.4732 64.5678 53.5355 65.5172C52.5978 66.4666 51.326 67 50 67H30C28.674 67 27.4022 66.4666 26.4645 65.5172C25.5268 64.5678 25 63.2802 25 61.9375V51.8125C25 47.7846 26.5803 43.9216 29.3933 41.0733C32.2065 38.2251 36.0218 36.625 40 36.625C43.9782 36.625 47.7935 38.2251 50.6067 41.0733C53.4197 43.9216 55 47.7846 55 51.8125V61.9375Z" fill="#FB6666"/>
<path d="M12 27.5C12 26.0167 12.4399 24.5667 13.264 23.3332C14.0881 22.0998 15.2594 21.1385 16.6299 20.5708C18.0003 20.0033 19.5083 19.8547 20.9632 20.1442C22.418 20.4335 23.7543 21.1478 24.8033 22.1967C25.8522 23.2457 26.5665 24.582 26.8558 26.0368C27.1453 27.4917 26.9968 28.9997 26.4292 30.3702C25.8615 31.7405 24.9002 32.912 23.6668 33.736C22.4333 34.5602 20.9833 35 19.5 35C17.5115 34.9978 15.6052 34.2068 14.1991 32.8008C12.7931 31.3948 12.0022 29.4885 12 27.5ZM12 63.3333C10.6739 63.3333 9.40216 62.8065 8.46448 61.8688C7.5268 60.9312 7.00001 59.6595 7.00001 58.3333V50.8333C6.9968 48.6085 7.58833 46.4232 8.7134 44.5037C9.83845 42.5842 11.4561 41.0003 13.3989 39.9162C15.3417 38.8318 17.539 38.2867 19.7633 38.3368C21.9877 38.387 24.1582 39.0308 26.05 40.2017C23.4277 43.4472 21.998 47.4942 22 51.6667V61.6667C21.9995 62.2263 22.0553 62.7848 22.1667 63.3333H12Z" fill="#FFACAC"/>
</svg>
