<svg width="1800" height="850" viewBox="0 0 1800 850" fill="none" xmlns="http://www.w3.org/2000/svg">
<g clip-path="url(#clip0_352_45)">
<rect width="1800" height="850" fill="#030D12"/>
<g style="mix-blend-mode:hard-light" filter="url(#filter0_f_352_45)">
<path d="M1372.71 724.66C1365.29 766.795 1064.65 767.598 788.324 725.12C512.003 682.643 294.018 614.05 301.442 571.914C308.866 529.779 609.507 528.976 885.829 571.454C1162.15 613.931 1380.13 682.524 1372.71 724.66Z" fill="url(#paint0_linear_352_45)"/>
<path d="M1372.22 724.584C1371.78 727.067 1370.25 729.442 1367.64 731.702C1365.01 733.964 1361.32 736.087 1356.62 738.061C1347.2 742.009 1333.81 745.323 1317.06 747.989C1283.55 753.32 1236.67 756.043 1181.36 756.122C1070.76 756.28 926.548 745.863 788.411 724.628C650.267 703.392 526.717 675.629 438.639 647.914C394.597 634.055 359.445 620.215 335.778 607.218C323.941 600.718 315.004 594.444 309.264 588.504C303.513 582.553 301.05 577.024 301.937 571.99C302.374 569.507 303.898 567.132 306.518 564.872C309.139 562.61 312.83 560.487 317.538 558.513C326.953 554.565 340.338 551.251 357.096 548.585C390.605 543.254 437.486 540.531 492.789 540.452C603.39 540.294 747.605 550.711 885.742 571.946C1023.89 593.182 1147.44 620.945 1235.51 648.66C1279.56 662.519 1314.71 676.359 1338.38 689.356C1350.21 695.856 1359.15 702.13 1364.89 708.07C1370.64 714.021 1373.1 719.55 1372.22 724.584Z" stroke="#0692E3"/>
</g>
<g style="mix-blend-mode:hard-light" filter="url(#filter1_f_352_45)">
<path d="M146.708 251.035C161.458 207.883 470.007 248.24 746.28 330.633C1022.55 413.027 1234.56 514.801 1219.81 557.953C1205.06 601.105 896.509 560.748 620.236 478.355C343.963 395.962 131.957 294.187 146.708 251.035Z" fill="url(#paint1_linear_352_45)"/>
<path d="M147.187 251.178C148.061 248.62 150.036 246.333 153.109 244.32C156.184 242.307 160.333 240.586 165.497 239.162C175.825 236.313 190.119 234.673 207.761 234.175C243.039 233.179 291.593 236.749 348.339 244.244C461.827 259.235 608.006 289.917 746.118 331.106C884.238 372.298 1006.28 418.331 1091.94 459.454C1134.78 480.017 1168.49 499.342 1190.57 516.209C1201.62 524.645 1209.72 532.447 1214.61 539.463C1219.5 546.488 1221.1 552.634 1219.33 557.81C1218.46 560.368 1216.48 562.656 1213.41 564.668C1210.33 566.682 1206.18 568.402 1201.02 569.827C1190.69 572.675 1176.4 574.315 1158.76 574.813C1123.48 575.81 1074.92 572.24 1018.18 564.744C904.69 549.753 758.511 519.072 620.398 477.882C482.279 436.69 360.235 390.657 274.573 349.535C231.738 328.972 198.022 309.646 175.942 292.779C164.9 284.344 156.794 276.541 151.909 269.526C147.018 262.501 145.417 256.355 147.187 251.178Z" stroke="#0692E3"/>
</g>
</g>
<defs>
<filter id="filter0_f_352_45" x="-98.7417" y="139.952" width="1871.64" height="1016.67" filterUnits="userSpaceOnUse" color-interpolation-filters="sRGB">
<feFlood flood-opacity="0" result="BackgroundImageFix"/>
<feBlend mode="normal" in="SourceGraphic" in2="BackgroundImageFix" result="shape"/>
<feGaussianBlur stdDeviation="200" result="effect1_foregroundBlur_352_45"/>
</filter>
<filter id="filter1_f_352_45" x="-254.018" y="-166.483" width="1874.55" height="1141.95" filterUnits="userSpaceOnUse" color-interpolation-filters="sRGB">
<feFlood flood-opacity="0" result="BackgroundImageFix"/>
<feBlend mode="normal" in="SourceGraphic" in2="BackgroundImageFix" result="shape"/>
<feGaussianBlur stdDeviation="200" result="effect1_foregroundBlur_352_45"/>
</filter>
<linearGradient id="paint0_linear_352_45" x1="1427.55" y1="826.688" x2="452.86" y2="709.917" gradientUnits="userSpaceOnUse">
<stop offset="0.217684" stop-color="#0782CA"/>
<stop offset="0.864506" stop-color="#89B9D4"/>
</linearGradient>
<linearGradient id="paint1_linear_352_45" x1="107.729" y1="136.568" x2="1082.18" y2="412.532" gradientUnits="userSpaceOnUse">
<stop offset="0.103883" stop-color="#601092"/>
<stop offset="0.864506" stop-color="#A629F4"/>
</linearGradient>
<clipPath id="clip0_352_45">
<rect width="1800" height="850" fill="white"/>
</clipPath>
</defs>
</svg>
