<?xml version="1.0" encoding="UTF-8"?>
<svg width="68px" height="68px" viewBox="0 0 68 68" version="1.1" xmlns="http://www.w3.org/2000/svg" xmlns:xlink="http://www.w3.org/1999/xlink">
    <title>Group 2</title>
    <defs>
        <linearGradient x1="50%" y1="100%" x2="50%" y2="0%" id="linearGradient-1">
            <stop stop-color="#A8D8F4" offset="0%"></stop>
            <stop stop-color="#F7F9F9" offset="100%"></stop>
        </linearGradient>
        <linearGradient x1="50%" y1="-157.922216%" x2="50%" y2="153.486254%" id="linearGradient-2">
            <stop stop-color="#3940FF" offset="0%"></stop>
            <stop stop-color="#00B6FF" offset="100%"></stop>
        </linearGradient>
        <linearGradient x1="65.4809656%" y1="-234.829003%" x2="65.4809656%" y2="227.629101%" id="linearGradient-3">
            <stop stop-color="#0F17E7" offset="0%"></stop>
            <stop stop-color="#00B6FF" offset="100%"></stop>
        </linearGradient>
        <linearGradient x1="231.140175%" y1="-326.680206%" x2="231.140175%" y2="160.913189%" id="linearGradient-4">
            <stop stop-color="#0F17E7" offset="0%"></stop>
            <stop stop-color="#00B6FF" offset="100%"></stop>
        </linearGradient>
        <linearGradient x1="50%" y1="-133.739044%" x2="50%" y2="321.638303%" id="linearGradient-5">
            <stop stop-color="#0F17E7" offset="0%"></stop>
            <stop stop-color="#00B6FF" offset="100%"></stop>
        </linearGradient>
        <linearGradient x1="70.6046179%" y1="-167.866285%" x2="70.6046179%" y2="211.90926%" id="linearGradient-6">
            <stop stop-color="#0F17E7" offset="0%"></stop>
            <stop stop-color="#0F17E7" offset="0%"></stop>
            <stop stop-color="#00B6FF" offset="100%"></stop>
        </linearGradient>
        <linearGradient x1="50%" y1="0%" x2="50%" y2="120.293828%" id="linearGradient-7">
            <stop stop-color="#3940FF" offset="0%"></stop>
            <stop stop-color="#51CDF9" offset="100%"></stop>
        </linearGradient>
    </defs>
    <g id="Page-1" stroke="none" stroke-width="1" fill="none" fill-rule="evenodd">
        <g id="Artboard" transform="translate(-112.000000, -40.000000)">
            <g id="Group-2" transform="translate(112.000000, 40.000000)">
                <circle id="Oval" fill="url(#linearGradient-1)" cx="34" cy="34" r="34"></circle>
                <g id="mobileApp" transform="translate(1.927536, 2.956522)" fill-rule="nonzero">
                    <path d="M22.6743083,42.705314 L13.9301713,42.705314 C13.326576,42.705314 12.8371542,42.2150007 12.8371542,41.610306 L12.8371542,36.1352657 L15.0231884,36.1352657 L15.0231884,40.5152979 L22.6743083,40.5152979 L22.6743083,42.705314 Z" id="Path" fill="url(#linearGradient-2)"></path>
                    <path d="M54.371805,39.4202899 L46.7206851,39.4202899 L46.7206851,37.2302738 L53.2787879,37.2302738 L53.2787879,32.8502415 L55.4648221,32.8502415 L55.4648221,38.3252818 C55.4648221,38.6156529 55.3496643,38.894298 55.1447243,39.0996089 C54.9397842,39.3049198 54.6616482,39.4202899 54.371805,39.4202899 Z" id="Path" fill="url(#linearGradient-3)"></path>
                    <polygon id="Path" fill="url(#linearGradient-4)" points="8.46508564 11.1400966 10.6511199 11.1400966 10.6511199 8.95008052 12.8371542 8.95008052 12.8371542 6.76006441 10.6511199 6.76006441 10.6511199 4.57004831 8.46508564 4.57004831 8.46508564 6.76006441 6.27905138 6.76006441 6.27905138 8.95008052 8.46508564 8.95008052"></polygon>
                    <polygon id="Path" fill="url(#linearGradient-4)" points="57.6508564 6.57004831 59.8368906 6.57004831 59.8368906 4.38003221 62.0229249 4.38003221 62.0229249 2.1900161 59.8368906 2.1900161 59.8368906 0 57.6508564 0 57.6508564 2.1900161 55.4648221 2.1900161 55.4648221 4.38003221 57.6508564 4.38003221"></polygon>
                    <polygon id="Path" fill="url(#linearGradient-4)" points="56.5578393 52.5603865 54.371805 52.5603865 54.371805 54.7504026 52.1857708 54.7504026 52.1857708 56.9404187 54.371805 56.9404187 54.371805 59.1304348 56.5578393 59.1304348 56.5578393 56.9404187 58.7438735 56.9404187 58.7438735 54.7504026 56.5578393 54.7504026"></polygon>
                    <polygon id="Path" fill="url(#linearGradient-4)" points="4.37206851 44.8003221 2.18603426 44.8003221 2.18603426 46.9903382 0 46.9903382 0 49.1803543 2.18603426 49.1803543 2.18603426 51.3703704 4.37206851 51.3703704 4.37206851 49.1803543 6.55810277 49.1803543 6.55810277 46.9903382 4.37206851 46.9903382"></polygon>
                    <path d="M45.627668,49.2753623 L20.488274,49.2753623 L20.488274,50.0966301 C20.488274,50.7499744 20.8193479,51.3769631 21.4085554,51.8388441 C21.997763,52.3007251 22.7974471,52.5603865 23.6306384,52.5603865 L42.4851839,52.5603865 C43.318483,52.5603865 44.1181671,52.3008095 44.7072669,51.8388441 C45.2963667,51.3768786 45.627668,50.7498899 45.627668,50.0966301 L45.627668,49.2753623 Z" id="Shape" fill="#4DB4FA"></path>
                    <path d="M27.1921124,10.2657063 C27.1921124,10.5923785 27.3466136,10.9058728 27.6215771,11.1368133 C27.8965406,11.3677538 28.2697265,11.4975845 28.6585491,11.4975845 L37.457337,11.4975845 C37.8462099,11.4975845 38.2193958,11.3677961 38.4943091,11.1368133 C38.7692223,10.9058306 38.9238296,10.5923363 38.9238296,10.2657063 L38.9238296,9.85507246 L42.4853036,9.85507246 C43.3184949,9.85507246 44.1181791,10.1147339 44.7073866,10.5766149 C45.2965941,11.0384959 45.627668,11.6654845 45.627668,12.3188288 L45.627668,12.3188288 L45.627668,13.1400966 L20.488274,13.1400966 L20.488274,12.3188288 C20.488274,11.665569 20.8195753,11.0385803 21.4086751,10.5766149 C21.9977749,10.1146494 22.7974591,9.85507246 23.6307581,9.85507246 L23.6307581,9.85507246 L27.1921124,9.85507246 L27.1921124,10.2657063 Z" id="Combined-Shape" fill="#3940FF"></path>
                    <path d="M63.115942,20.805153 L63.115942,30.6602254 L53.340704,30.6602254 C53.5812325,30.6602254 53.8106919,30.5406389 53.8779046,30.3591701 L53.8779046,30.3591701 L56.6635895,22.9704768 C56.7475411,22.7517802 56.5739682,22.5209595 56.2775532,22.4632543 C55.9811053,22.4013749 55.6679514,22.5293128 55.5839998,22.7477955 L55.5839998,22.7477955 L52.7983149,30.1364888 C52.7143633,30.3551854 52.8876791,30.5860061 53.1897573,30.6437113 C53.2399805,30.6560494 53.290453,30.6602254 53.340704,30.6602254 L53.340704,30.6602254 L44.5346509,30.6602254 L44.5346509,20.805153 L63.115942,20.805153 Z M52.6134855,24.2481057 C52.3952285,24.0375343 52.0370607,24.0375343 51.8188104,24.2481057 L51.8188104,24.2481057 L49.7646079,26.235252 C49.6581912,26.3322067 49.6022757,26.4726747 49.6022757,26.6131362 C49.6022757,26.7588166 49.6581873,26.8938112 49.7646079,26.9964875 L49.7646079,26.9964875 L51.8188104,28.978415 C51.9306401,29.0810875 52.0705575,29.1350357 52.2161545,29.134972 C52.361481,29.134972 52.5013985,29.0810276 52.6134855,28.9781031 C52.8317358,28.7675253 52.8317358,28.4219593 52.6134855,28.2113878 L52.6134855,28.2113878 L50.9512444,26.6131044 L52.6134855,25.014821 C52.8317358,24.8042432 52.8317358,24.4641441 52.6134855,24.2481057 Z M57.5206822,24.2481155 C57.3023882,24.037531 56.949587,24.037531 56.7313063,24.2481155 C56.5073584,24.4639318 56.5073584,24.8042937 56.7313063,25.0148781 L56.7313063,25.0148781 L58.388105,26.6132604 L56.7313063,28.2116426 C56.5073559,28.4222334 56.5073559,28.7678208 56.7256366,28.9784053 C56.8374819,29.0810841 56.983086,29.1350357 57.1230229,29.1350357 C57.2686269,29.1350357 57.4085639,29.0810879 57.5204092,28.9784053 L57.5204092,28.9784053 L59.5749134,26.9964189 C59.6813448,26.8937363 59.7372678,26.7587397 59.7375255,26.6132922 C59.7375255,26.4730702 59.6816061,26.3325935 59.5751707,26.2353846 L59.5751707,26.2353846 Z" id="Combined-Shape" fill="url(#linearGradient-5)"></path>
                    <path d="M25.9533597,25.1851852 L7.37206851,25.1851852 L7.37206851,35.0402576 L25.9533597,35.0402576 L25.9533597,25.1851852 Z M9.43665642,27.1561997 L11.5012443,27.1561997 L11.5012443,29.1272142 L9.43665642,29.1272142 L9.43665642,27.1561997 Z M19.759596,33.0692432 L11.5012443,33.0692432 L11.5012443,31.0982287 L19.759596,31.0982287 L19.759596,33.0692432 Z M21.8241839,29.1272142 L13.5658322,29.1272142 L13.5658322,27.1561997 L21.8241839,27.1561997 L21.8241839,29.1272142 Z" id="Shape" fill="url(#linearGradient-6)"></path>
                    <path d="M45.627668,15.3301127 L45.627668,17.5201288 L42.4852437,17.5201288 C41.9067983,17.5201288 41.437769,18.0104421 41.437769,18.6151369 L41.437769,18.6151369 L41.437769,31.7552335 C41.437769,32.3599282 41.9067983,32.8502415 42.4852437,32.8502415 L42.4852437,32.8502415 L45.627668,32.8502415 L45.627668,37.2302738 L36.2003953,37.2302738 L36.2003953,39.4202899 L45.627668,39.4202899 L45.627668,48.1803543 L20.488274,48.1803543 L20.488274,43.8003221 L33.057971,43.8003221 L33.057971,41.610306 L20.488274,41.610306 L20.488274,37.2302738 L23.6306983,37.2302738 C23.9084646,37.2302738 24.1750117,37.1149037 24.3714126,36.9095928 C24.5678135,36.7042819 24.678173,36.4256368 24.678173,36.1352657 L24.678173,36.1352657 L24.678173,22.9951691 C24.678173,22.704798 24.5678111,22.4261553 24.3714126,22.220842 C24.1750141,22.0155286 23.9084646,21.900161 23.6306983,21.900161 L23.6306983,21.900161 L20.488274,21.900161 L20.488274,15.3301127 L45.627668,15.3301127 Z M37.24787,25.7038732 L28.868072,25.7038732 L28.868072,27.4328333 L37.24787,27.4328333 L37.24787,25.7038732 Z M28.868072,20.516993 L27.1921124,20.516993 L27.1921124,22.245953 L28.868072,22.245953 L28.868072,20.516993 Z M38.9238296,20.516993 L30.5440316,20.516993 L30.5440316,22.245953 L38.9238296,22.245953 L38.9238296,20.516993 Z" id="Combined-Shape" fill="url(#linearGradient-7)"></path>
                </g>
            </g>
        </g>
    </g>
</svg>