<?xml version="1.0" encoding="UTF-8"?>
<svg width="68px" height="68px" viewBox="0 0 68 68" version="1.1" xmlns="http://www.w3.org/2000/svg" xmlns:xlink="http://www.w3.org/1999/xlink">
    <title>Group 6</title>
    <defs>
        <linearGradient x1="50%" y1="100%" x2="50%" y2="0%" id="linearGradient-1">
            <stop stop-color="#FFE69C" offset="0%"></stop>
            <stop stop-color="#FFFED4" offset="100%"></stop>
        </linearGradient>
        <linearGradient x1="601.109314%" y1="-202.616686%" x2="657.445954%" y2="1249.80689%" id="linearGradient-2">
            <stop stop-color="#FD6300" offset="0%"></stop>
            <stop stop-color="#FFD000" offset="100%"></stop>
        </linearGradient>
        <linearGradient x1="590.472792%" y1="-57.4636785%" x2="657.445954%" y2="1249.80689%" id="linearGradient-3">
            <stop stop-color="#FD6300" offset="0%"></stop>
            <stop stop-color="#FFD000" offset="100%"></stop>
        </linearGradient>
        <linearGradient x1="-126.435964%" y1="-1085.96216%" x2="-161.513525%" y2="396.299357%" id="linearGradient-4">
            <stop stop-color="#FD6300" offset="0%"></stop>
            <stop stop-color="#FFD000" offset="100%"></stop>
        </linearGradient>
        <linearGradient x1="507.221738%" y1="-763.327928%" x2="495.860039%" y2="247.41872%" id="linearGradient-5">
            <stop stop-color="#FD6300" offset="0%"></stop>
            <stop stop-color="#FFD000" offset="100%"></stop>
        </linearGradient>
        <linearGradient x1="50%" y1="-953.633203%" x2="50%" y2="205.468894%" id="linearGradient-6">
            <stop stop-color="#FD6300" offset="0%"></stop>
            <stop stop-color="#FFD500" offset="100%"></stop>
        </linearGradient>
        <linearGradient x1="50%" y1="-49.1446867%" x2="50%" y2="1119.33542%" id="linearGradient-7">
            <stop stop-color="#FD6300" offset="0%"></stop>
            <stop stop-color="#D7CD9B" offset="100%"></stop>
            <stop stop-color="#D7CD9B" offset="100%"></stop>
        </linearGradient>
        <linearGradient x1="100%" y1="-202.853328%" x2="100%" y2="722.877876%" id="linearGradient-8">
            <stop stop-color="#FD6300" offset="0%"></stop>
            <stop stop-color="#FFD500" offset="100%"></stop>
        </linearGradient>
        <linearGradient x1="100%" y1="-202.853328%" x2="100%" y2="722.877876%" id="linearGradient-9">
            <stop stop-color="#FD6300" offset="0%"></stop>
            <stop stop-color="#D7CD9B" offset="100%"></stop>
            <stop stop-color="#D7CD9B" offset="100%"></stop>
        </linearGradient>
        <linearGradient x1="55.5045135%" y1="-35.5550632%" x2="55.5045135%" y2="162.529404%" id="linearGradient-10">
            <stop stop-color="#FD6300" offset="0%"></stop>
            <stop stop-color="#FFD500" offset="100%"></stop>
        </linearGradient>
        <linearGradient x1="41.7111456%" y1="-592.735551%" x2="41.7111456%" y2="338.971358%" id="linearGradient-11">
            <stop stop-color="#FD6300" offset="0%"></stop>
            <stop stop-color="#FFD500" offset="100%"></stop>
        </linearGradient>
        <linearGradient x1="-45.8925375%" y1="-247.39031%" x2="-45.8925375%" y2="248.174811%" id="linearGradient-12">
            <stop stop-color="#FB6808" offset="0%"></stop>
            <stop stop-color="#FFD500" offset="100%"></stop>
        </linearGradient>
    </defs>
    <g id="Page-1" stroke="none" stroke-width="1" fill="none" fill-rule="evenodd">
        <g id="Artboard" transform="translate(-38.000000, -265.000000)">
            <g id="Group-6" transform="translate(38.000000, 265.000000)">
                <g id="background" fill="url(#linearGradient-1)">
                    <circle id="Oval" cx="34" cy="34" r="34"></circle>
                </g>
                <g id="UI/UX" transform="translate(2.000000, 0.000000)" fill-rule="nonzero">
                    <polygon id="Path" fill="url(#linearGradient-2)" points="2.66666667 12 4.33333333 12 4.33333333 10.3333333 6 10.3333333 6 8.66666667 4.33333333 8.66666667 4.33333333 7 2.66666667 7 2.66666667 8.66666667 1 8.66666667 1 10.3333333 2.66666667 10.3333333"></polygon>
                    <polygon id="Path" fill="url(#linearGradient-3)" points="59.3333333 7 61.6666667 7 61.6666667 4.66666667 64 4.66666667 64 2.33333333 61.6666667 2.33333333 61.6666667 0 59.3333333 0 59.3333333 2.33333333 57 2.33333333 57 4.66666667 59.3333333 4.66666667"></polygon>
                    <polygon id="Path" fill="url(#linearGradient-4)" points="55.3333333 57 53.6666667 57 53.6666667 58.6666667 52 58.6666667 52 60.3333333 53.6666667 60.3333333 53.6666667 62 55.3333333 62 55.3333333 60.3333333 57 60.3333333 57 58.6666667 55.3333333 58.6666667"></polygon>
                    <polygon id="Path" fill="url(#linearGradient-5)" points="4.66666667 41 2.33333333 41 2.33333333 43.3333333 0 43.3333333 0 45.6666667 2.33333333 45.6666667 2.33333333 48 4.66666667 48 4.66666667 45.6666667 7 45.6666667 7 43.3333333 4.66666667 43.3333333"></polygon>
                    <path d="M47,54 L19,54 L19,55.2500179 C19,56.2444463 19.3687467,57.19876 20.025,57.90177 C20.6812533,58.6047801 21.5719333,59 22.4999333,59 L43.4999333,59 C44.4280533,59 45.3187333,58.6049086 45.9748667,57.90177 C46.631,57.1986314 47,56.2443178 47,55.2500179 L47,54 Z" id="Path" fill="url(#linearGradient-6)"></path>
                    <path d="M25.8,10.7826421 C25.8,11.2940493 25.9896439,11.7848265 26.3271504,12.1463652 C26.6646569,12.5079039 27.1227275,12.7111546 27.5999914,12.7111546 L38.4001457,12.7111546 C38.8774714,12.7111546 39.3355419,12.50797 39.6729868,12.1463652 C40.0104316,11.7847604 40.2002057,11.2939832 40.2002057,10.7826421 L40.2002057,10 L43.5000667,10.0002003 C44.4280667,10.0002003 45.3187467,10.3954044 45.975,11.0983863 C46.6312533,11.8013682 47,12.7556436 47,13.7500322 L47,13.7500322 L47,15 L19,15 L19,13.7500322 C19,12.7557722 19.369,11.8014968 20.0251333,11.0983863 C20.6812667,10.3952759 21.5719467,10.0002003 22.5000667,10.0002003 L22.5000667,10.0002003 L25.8,10 L25.8,10.7826421 Z" id="Combined-Shape" fill="url(#linearGradient-7)"></path>
                    <path d="M32,21 L13,21 L13,26 L32,26 L32,21 Z M16.4545455,24.3333333 L14.7272727,24.3333333 L14.7272727,22.6666667 L16.4545455,22.6666667 L16.4545455,24.3333333 Z M19.9090909,24.3333333 L18.1818182,24.3333333 L18.1818182,22.6666667 L19.9090909,22.6666667 L19.9090909,24.3333333 Z M23.3636364,24.3333333 L21.6363636,24.3333333 L21.6363636,22.6666667 L23.3636364,22.6666667 L23.3636364,24.3333333 Z M26.8181818,24.3333333 L25.0909091,24.3333333 L25.0909091,22.6666667 L26.8181818,22.6666667 L26.8181818,24.3333333 Z M30.2727273,24.3333333 L28.5454545,24.3333333 L28.5454545,22.6666667 L30.2727273,22.6666667 L30.2727273,24.3333333 Z" id="Shape" fill="url(#linearGradient-8)"></path>
                    <path d="M42,23 C42,24.1044686 41.1044686,25 40,25 C38.8955314,25 38,24.1044686 38,23 C38,21.8955314 38.8955314,21 40,21 C41.1044686,21 42,21.8955314 42,23" id="Path" fill="url(#linearGradient-9)"></path>
                    <polygon id="Path" fill="url(#linearGradient-9)" points="30 32 32 32 32 34 30 34"></polygon>
                    <path d="M33.4,19.71875 L33.4,26.96875 C33.4,27.2090668 33.3051781,27.4396789 33.1364286,27.6095982 C32.9676791,27.7795175 32.7386594,27.875 32.5,27.875 L19,27.875 L19,46 L37.9,46 L37.9,36.03125 C37.9,35.5307929 38.3029943,35.125 38.8,35.125 L46,35.125 L46,17 L19,17 L19,18.8125 L32.5,18.8125 C32.7386594,18.8125 32.9676811,18.9079804 33.1364286,19.0779018 C33.305176,19.2478231 33.4,19.4784332 33.4,19.71875 Z M20.8086124,31.4109063 C20.8086124,30.9066054 21.2038939,30.4976959 21.6913876,30.4976959 L25.222488,30.4976959 C25.4565798,30.4976959 25.6812183,30.5939096 25.8467362,30.7651361 C26.012254,30.9363625 26.1052632,31.1687438 26.1052632,31.4109063 L26.1052632,35.0637481 C26.1052632,35.3059106 26.012256,35.538294 25.8467362,35.7095183 C25.6812163,35.8807427 25.4565798,35.9769585 25.222488,35.9769585 L21.6913876,35.9769585 C21.2038939,35.9769585 20.8086124,35.568049 20.8086124,35.0637481 L20.8086124,31.4109063 Z M20.8086124,37.8479263 L22.6172249,37.8479263 L22.6172249,39.718894 L20.8086124,39.718894 L20.8086124,37.8479263 Z M33.4688995,43.3271889 L20.8086124,43.3271889 L20.8086124,41.4562212 L33.4688995,41.4562212 L33.4688995,43.3271889 Z M33.3397129,39.718894 L24.2966507,39.718894 L24.2966507,37.8479263 L33.3397129,37.8479263 L33.3397129,39.718894 Z M33.3397129,35.0637481 C33.3397129,35.3059106 33.2467057,35.538294 33.0811859,35.7095183 C32.9156661,35.8807427 32.6910296,35.9769585 32.4569378,35.9769585 L28.9258373,35.9769585 C28.4383437,35.9769585 28.0430622,35.568049 28.0430622,35.0637481 L28.0430622,31.4109063 C28.0430622,30.9066054 28.4383437,30.4976959 28.9258373,30.4976959 L32.4569378,30.4976959 C32.6910296,30.4976959 32.9156681,30.5939096 33.0811859,30.7651361 C33.2467037,30.9363625 33.3397129,31.1687438 33.3397129,31.4109063 L33.3397129,35.0637481 Z M35.1483254,28.7544535 C35.1491327,27.2416672 35.8972046,25.8279863 37.1442067,24.9826271 C36.4534614,24.3050503 36.0606928,23.3780151 36.0526316,22.4075523 C36.0445574,21.436684 36.4224256,20.5032324 37.1014201,19.8141748 C37.7808589,19.1248155 38.705401,18.7373272 39.6698565,18.7373272 C40.634312,18.7373272 41.5587713,19.1248675 42.2382928,19.8141748 C42.9173286,20.5031284 43.2952459,21.4366736 43.2870813,22.4075523 C43.2790072,23.3780151 42.8861998,24.3050087 42.1955062,24.9826271 C43.4425187,25.8279759 44.1906641,27.2416672 44.1913876,28.7544535 L44.1913876,32.3942087 C44.1913876,32.6355036 44.0961119,32.8670545 43.926555,33.0376654 C43.7569981,33.2082763 43.5268827,33.3041475 43.2870813,33.3041475 L36.0526316,33.3041475 C35.5532478,33.3041475 35.1483254,32.8967029 35.1483254,32.3942087 L35.1483254,28.7544535 Z" id="Shape" fill="url(#linearGradient-10)"></path>
                    <path d="M42,28.4999821 C42,27.6067472 41.5234381,26.7815889 40.75,26.3348238 C39.9765619,25.8883921 39.0234286,25.8883921 38.25,26.3348238 C37.4765619,26.781627 37,27.6067377 37,28.4999821 L37,31 L42,31 L42,28.4999821 Z" id="Path" fill="url(#linearGradient-9)"></path>
                    <polygon id="Path" fill="url(#linearGradient-9)" points="23 32 25 32 25 34 23 34"></polygon>
                    <polygon id="Path" fill="url(#linearGradient-11)" points="46 47.114011 37.8866995 47.114011 37.8866995 45.0994 19 45 19 51 46 51"></polygon>
                    <path d="M49.838997,43.1162191 L49.1672234,42.4443828 L47.80586,43.8058515 L47.4169074,43.4169868 L48.7784083,42.0554395 L48.3892986,41.6665747 L47.4168878,42.6387268 L47.0280138,42.2498621 L48.0004247,41.2775528 L47.6115507,40.888688 L46.2501873,42.2498621 L45.8613133,41.8609973 L47.2225981,40.4999018 L46.8337241,40.111037 L45.8613919,41.0833463 L45.4724393,40.6944815 L46.4448502,39.7221722 L46.0558976,39.3332289 L45.0834082,40.3056167 L44.6945342,39.9167519 L45.6671808,38.9444427 L45.2780711,38.5553422 L43.9167863,39.9166734 L43.5278337,39.5278086 L44.8891185,38.166556 L44.500166,37.7774555 L43.5278337,38.750079 L43.1389597,38.3612142 L44.111292,37.3885907 L43.7221823,36.9996473 L42.7497715,37.9717995 L42.3608975,37.5829347 L43.3332298,36.6107825 L42.9442772,36.2218392 L41.5832281,37.5828561 L41.1943541,37.1939913 L42.5554818,35.8328958 L41.8837082,35.1611382 C41.6686362,34.9462873 41.3205019,34.9462873 41.1056656,35.1611382 L39.1614529,37.106071 C38.9410772,37.3258325 38.9514487,37.674096 39.1611459,37.8838006 L47.1165918,45.8388618 C47.3314478,46.0537127 47.6794838,46.0537127 47.8943398,45.8388618 L49.8391615,43.8945576 C50.0538603,43.6797067 50.0534674,43.3306771 49.8388545,43.1162191 L49.838997,43.1162191 Z M47.3359372,44.6300104 C47.2347619,44.731173 47.0709774,44.731173 46.9699444,44.6300104 C46.8689151,44.5288479 46.868769,44.3650103 46.9699444,44.2639901 C47.0711198,44.1629698 47.2349042,44.1629735 47.3359372,44.2640623 C47.4370405,44.3652248 47.4370405,44.5288406 47.3359372,44.6300087 L47.3359372,44.6300104 Z M49.7076732,37.4932782 C49.9248932,37.278537 49.9248932,36.9303727 49.7076732,36.7159456 L48.135062,35.1610646 C47.9135126,34.9420435 47.5616273,34.9506229 47.3487564,35.1610646 L44.9529412,37.5856887 L47.3120169,39.9176471 L49.7076732,37.4932782 Z M47.7442166,35.6470588 L47.7447272,35.6470588 L49.2235294,37.1261278 L48.1143951,38.2352941 L46.6352941,36.7562252 L47.7442166,35.6470588 Z M39.9197837,42.8765442 L39.1294118,46 L42.2661829,45.2172126 L44.0470588,43.4136592 L41.6908603,41.0823529 L39.9197837,42.8765442 Z M40.4210839,45.0941176 L39.9058824,44.5779844 L40.0678149,43.9294118 L41.0705882,44.9315121 L40.4210839,45.0941176 Z" id="Shape" fill="url(#linearGradient-12)"></path>
                </g>
            </g>
        </g>
    </g>
</svg>