<?xml version="1.0" encoding="UTF-8"?>
<svg width="68px" height="68px" viewBox="0 0 68 68" version="1.1" xmlns="http://www.w3.org/2000/svg" xmlns:xlink="http://www.w3.org/1999/xlink">
    <title>Group 10</title>
    <defs>
        <linearGradient x1="50%" y1="100%" x2="50%" y2="0%" id="linearGradient-1">
            <stop stop-color="#95F6DB" offset="0%"></stop>
            <stop stop-color="#DFF4EC" offset="100%"></stop>
        </linearGradient>
        <linearGradient x1="50%" y1="4.01872477%" x2="50%" y2="100%" id="linearGradient-2">
            <stop stop-color="#20BF55" offset="0%"></stop>
            <stop stop-color="#01BAEF" offset="100%"></stop>
        </linearGradient>
    </defs>
    <g id="Page-1" stroke="none" stroke-width="1" fill="none" fill-rule="evenodd">
        <g id="Artboard" transform="translate(-262.000000, -296.000000)">
            <g id="Group-10" transform="translate(262.000000, 296.000000)">
                <g id="background" fill="url(#linearGradient-1)">
                    <circle id="Oval" cx="34" cy="34" r="34"></circle>
                </g>
                <path d="M55.970686,49.4646523 C58.4137133,50.9689663 60.0327145,53.7233544 60.190343,56.8857483 L60.201211,57.2033165 L57.636,57.201 L57.6363696,57.7037037 L59.7818218,57.7037037 L59.7818218,59.8518519 L57.6363696,59.8518519 L57.6363696,62 L55.4909175,62 L55.4909175,59.8518519 L53.3454654,59.8518519 L53.3454654,57.7037037 L55.4909175,57.7037037 L55.49,57.199 L52.4581809,57.1970989 C54.2718512,55.0278913 55.4949464,52.3434658 55.970686,49.4646523 Z M17.3723102,48.4973192 L18.582424,50.3531409 L17.8377766,57.2033165 L13.415,57.2 L13.4157111,57.9396199 L14.7038698,57.9396199 L14.7038698,59.2293973 L13.4157111,59.2293973 L13.4157111,60.5191747 L12.1275525,60.5191747 L12.1275525,59.2293973 L10.8393938,59.2293973 L10.8393938,57.9396199 L12.1275525,57.9396199 L12.127,57.199 L10.8393938,57.1982688 C10.9207394,53.1041141 13.5580529,49.6235525 17.3723102,48.4973192 Z M20.6326292,51.3993183 L21.4860603,57.2033165 L19.5503028,57.2025771 L20.4027572,51.3993183 L20.6326292,51.3993183 Z M23.6641734,48.4973192 C27.3983146,49.5975463 30.000523,52.9498259 30.1878352,56.9249894 L30.1969692,57.2033165 L23.199147,57.1981955 L22.4539391,50.3511422 L23.6641734,48.4973192 Z M46.0387314,49.4646523 C46.487403,52.1796551 47.6031646,54.7268009 49.2714081,56.8529073 L49.5545446,57.2033165 L41.8115144,57.197142 C41.8779939,53.9060661 43.5166311,51.0199139 46.0387314,49.4646523 Z M37.4133303,7.86933211 L37.8834288,9.78601037 L38.4247116,9.8861103 C40.5598422,10.2812127 42.5504965,11.0866084 44.3500889,12.2824319 L44.7327745,12.5446484 L45.1846019,12.8643564 L46.8423515,11.8501468 L49.5198725,14.5781133 L48.5248524,16.2686281 L48.8377415,16.7299439 C50.0655598,18.5358084 50.9124173,20.5404168 51.356899,22.6955584 L51.4459784,23.159661 L51.5441844,23.7113827 L53.4260596,24.1909346 L53.4260596,29.0977978 C52.6118991,28.8622879 51.7557784,28.7276526 50.8681048,28.7276526 C47.6060058,28.7276526 44.7297926,30.4363439 43.0492406,33.0199908 C42.3777855,32.4058304 40.2993375,31.5526193 38.4577668,30.9055899 C39.1668389,31.2480379 39.978309,31.7037533 40.8915212,32.2718477 C41.5780292,32.6570695 42.2099061,33.1346952 42.7793932,33.6884983 C42.3468932,34.7040354 42.0872161,35.8080741 42.0396057,36.9659239 L42.0316437,37.3538192 L42.0316437,37.4700458 C42.0316437,40.9237411 41.6907163,44.213397 41.0198058,47.2487671 C40.5970793,49.1600204 40.3099695,51.7212825 40.2858026,52.74165 L40.2841489,52.8710342 L40.2841489,57.1813799 L40.2912675,57.1924924 L40.2919501,57.2033165 L31.5389983,57.1971588 C31.4636786,52.465102 28.351678,48.4225393 23.8148638,47.0674923 L23.5294723,46.9863193 L23.4218178,46.5622109 C24.7617566,46.080659 25.8024346,44.9819394 26.164677,43.607228 L26.2161799,43.3879245 L26.3043335,43.3879245 C28.2316485,43.3879245 29.7992832,41.8412247 29.7992832,39.9396479 C29.7992832,39.3149735 29.6279239,38.7292447 29.3323269,38.2243317 L29.2157465,38.0388594 L29.6682126,36.2551152 C29.7548065,35.9083565 29.7992733,35.5531347 29.7992733,35.199844 C29.7992733,34.5567897 29.6549518,33.9406024 29.3947778,33.3810259 C29.8725873,32.9611736 30.3863349,32.5878632 30.9394457,32.2776759 C33.0534256,30.8385917 34.7121493,30.118697 35.915617,30.1179917 L35.9858613,30.1190805 C35.6431589,30.0275967 35.400398,29.9751756 35.3033756,29.9751756 C34.9117254,29.9751756 33.8943992,30.2388211 32.251397,30.7661121 C30.7291946,31.194005 29.343887,31.8269462 28.1501747,32.8760189 C27.9196801,32.66185 27.6640709,32.4710232 27.3859017,32.3088988 L27.1730847,32.1927709 L25.9675814,31.5781962 C25.2798161,29.9270778 23.727038,28.8190549 21.9618001,28.7330548 L21.740086,28.7276625 L17.719663,28.7276625 L17.6667,28.7301844 L17.6145452,28.7327063 L17.6145452,24.1916498 L19.4961281,23.7128725 L19.5943341,23.1611509 C19.9819609,20.9848432 20.7721181,18.9551924 21.9453158,17.1213785 L22.202571,16.7314338 L22.5154601,16.2701179 L21.52044,14.5796031 L24.197961,11.8516367 L25.8557106,12.8658462 L26.307538,12.5461383 C28.0792344,11.2946409 30.0453202,10.4314513 32.1601606,9.97839757 L32.6156009,9.88760018 L33.1568837,9.78750025 L33.6273622,7.86933211 L37.4133303,7.86933211 Z M53.4260596,52.3666513 C52.8463283,53.7669987 52.0360231,55.0782604 51.0053786,56.2359835 C50.0816071,55.203321 49.3322609,54.0366709 48.7679148,52.7864265 L48.5866658,52.3666513 L53.4260596,52.3666513 Z M8.5763173,47.9438453 L8.5763173,49.2336227 L9.86447595,49.2336227 L9.86447595,50.5234001 L8.5763173,50.5234001 L8.5763173,51.8131774 L7.28815865,51.8131774 L7.28815865,50.5234001 L6,50.5234001 L6,49.2336227 L7.28815865,49.2336227 L7.28815865,47.9438453 L8.5763173,47.9438453 Z M51.0062951,30.1179917 C55.1195184,30.1179917 58.4803838,33.3853858 58.610601,37.4515695 L58.6145174,37.6964793 L58.6145174,37.8100075 C58.6145174,41.3037143 58.956815,44.6373827 59.6331014,47.7202633 C59.8923703,48.9058756 60.0893725,50.3230287 60.201211,51.3993183 C58.8899223,49.4580221 56.9373423,47.9671988 54.5788324,47.2403021 L54.2391664,47.1416903 L54.1267,46.693602 C55.6870899,46.1303284 56.8294466,44.6900885 56.9183386,42.9657285 L56.9239173,42.7487466 L56.9239173,35.170259 L55.0878962,35.170259 C53.877614,35.170259 52.690661,34.7140666 51.7921729,33.9105481 L51.6041516,33.7330891 L51.0063627,33.1376365 L50.4085738,33.7327138 C49.5525755,34.58569 48.3893088,35.098714 47.1837207,35.1633262 L46.9248292,35.1702687 L45.0888081,35.1702687 L45.0888081,42.7487562 C45.0888081,44.4957636 46.1687493,45.9832997 47.6935418,46.619012 L47.8864119,46.6939966 L47.7739454,47.1420849 C45.2631837,47.8273726 43.1844725,49.3655891 41.8115144,51.3993183 C41.9228408,50.323125 42.1198431,48.9066455 42.3794887,47.7202633 C43.0037531,44.8745274 43.3434353,41.8151844 43.3920002,38.6133842 L43.3980727,37.8100075 L43.3980727,37.6964793 C43.3980727,33.5173885 46.8108073,30.1179917 51.0062951,30.1179917 Z M52.521572,46.5626532 L52.9392808,48.3850189 L53.4749811,48.515439 C53.7889494,48.5918757 54.0942211,48.6894769 54.3939384,48.797008 C54.3381177,49.2106056 54.2727129,49.6215354 54.1892147,50.0276101 L54.0993701,50.4319853 L47.9149466,50.4319853 C47.7866571,49.8952254 47.6944096,49.3485046 47.618787,48.7978924 C47.8185985,48.7256272 48.0208742,48.6585462 48.226554,48.5992068 L48.5377443,48.5163234 L49.0734447,48.3859033 L49.4911535,46.5626532 L52.521572,46.5626532 Z M22.2485877,47.5299862 L22.4539391,48.0542416 L20.9863877,49.4646523 L20.0499753,49.4646523 L18.582424,48.0542416 L18.7877753,47.5299862 L22.2485877,47.5299862 Z M51.0063627,35.9219899 C52.1195033,36.7483044 53.4941978,37.236712 54.908507,37.2981605 L55.2120987,37.3047605 L55.3618172,37.3047605 L55.3618172,43.1081523 C55.3618172,44.424606 54.2812953,45.5056425 52.9200928,45.5900191 L52.7485385,45.5953202 L49.2641869,45.5953202 C47.880983,45.5953202 46.745133,44.5669418 46.6564781,43.2714278 L46.6509083,43.1081523 L46.6509083,37.3047605 L46.8006267,37.3047605 C48.3207087,37.3047605 49.8137121,36.807308 51.0063627,35.9219899 Z M22.6848473,35.9219899 C23.5752997,35.9219899 24.3086932,36.5457539 24.3834259,37.3375375 L24.3896966,37.470979 L24.3896966,42.2536242 C24.3896966,43.5103705 23.3091772,44.5423768 21.9479779,44.6229265 L21.7764239,44.6279871 L18.2920604,44.6279871 C16.9088596,44.6279871 15.7730122,43.6462507 15.6843575,42.4094944 L15.6787877,42.2536242 L15.6787877,37.470979 C15.6787877,36.6619332 16.3653063,35.9955878 17.2364285,35.9276873 L17.3832388,35.9219899 L22.6848473,35.9219899 Z M53.6196314,41.4500403 L51.8774456,41.4500403 C51.8774456,41.8723101 51.5447641,42.2214195 51.1155348,42.27263 L51.0063528,42.2790963 L48.3930741,42.2790963 L48.3930741,43.9372082 L51.0063528,43.9372082 C52.4471902,43.9372082 53.6196314,42.8213463 53.6196314,41.4500403 Z M22.6475148,40.6707157 L20.905333,40.6707157 C20.905333,41.0738334 20.5726522,41.407109 20.143424,41.4559969 L20.0342421,41.46217 L17.4209695,41.46217 L17.4209695,43.0450785 L20.0342421,43.0450785 C21.4750762,43.0450785 22.6475148,41.9798263 22.6475148,40.6707157 Z M25.3575754,38.823989 C26.4252618,38.823989 27.2933329,39.6915706 27.2933329,40.758655 C27.2933329,41.7749259 26.5059668,42.6102419 25.5086719,42.6874913 L25.3575754,42.6933211 L25.3575754,38.823989 Z M14.7109089,38.823989 L14.7109089,42.6933211 C13.6432225,42.6933211 12.7751514,41.8257394 12.7751514,40.758655 C12.7751514,39.6915706 13.6432225,38.823989 14.7109089,38.823989 Z M22.0993317,30.1179917 C23.2894868,30.1179917 24.3486941,30.7949411 24.7952184,31.8213287 L24.8638835,31.9955726 L24.9764144,32.3139362 L26.8117319,33.1778105 C27.7054598,33.5985598 28.2612117,34.4455226 28.2612117,35.3868599 C28.2612117,35.5204785 28.2497747,35.6547391 28.2265594,35.7879269 L28.1828599,35.9866893 L27.9435807,36.8893229 C27.5860286,36.7373728 27.1978461,36.6384383 26.7885469,36.6096809 L26.5405095,36.6009851 L26.4275952,36.6009851 C26.0731156,35.2668952 24.8368542,34.2570453 23.3335749,34.1752073 L23.1360313,34.1698452 L17.8999306,34.1698452 C16.3753483,34.1698452 15.0902875,35.124108 14.6596419,36.4288618 L14.6083667,36.6009851 L14.4958359,36.6009851 C14.0784541,36.6009851 13.6810921,36.674601 13.3117385,36.8044462 L13.0935512,36.8889617 L12.9326257,36.2826215 C12.8285379,35.8912127 12.7751514,35.4860227 12.7751514,35.0801103 C12.7751514,32.4141466 15.0187123,30.2324809 17.8204007,30.1223533 L18.0427155,30.1179917 L22.0993317,30.1179917 Z M31.2997139,17.1966314 L30.2878357,17.1966314 L30.2878357,23.140251 L31.2997139,23.140251 L31.2997139,20.6229533 L34.1381181,20.6229533 L34.1381181,23.140251 L35.1499963,23.140251 L35.1499963,17.1966314 L34.1381181,17.1966314 L34.1381181,19.670226 L31.2997139,19.670226 L31.2997139,17.1966314 Z M38.8630749,17.1966314 L36.573486,17.1966314 L36.573486,23.140251 L37.5853642,23.140251 L37.5853642,20.8851718 L38.4686139,20.8851718 L39.8406521,23.140251 L40.9897342,23.140251 L40.9897342,23.1140291 L39.4976426,20.7715437 C40.3294408,20.5268065 40.8439551,19.8800008 40.8439551,19.0496422 C40.8439551,17.9920275 40.0207322,17.1966314 38.8630749,17.1966314 Z M38.7773225,18.0881743 C39.4033149,18.0881743 39.8235017,18.5077239 39.8235017,19.0671234 C39.8235017,19.6527448 39.4290407,20.0285913 38.760172,20.0285913 L37.5853642,20.0285913 L37.5853642,18.0881743 L38.7773225,18.0881743 Z M12.5818746,8.48267974 L12.5818746,10.6308279 L14.7273268,10.6308279 L14.7273268,12.778976 L12.5818746,12.778976 L12.5818746,14.9271242 L10.4364225,14.9271242 L10.4364225,12.778976 L8.29097036,12.778976 L8.29097036,10.6308279 L10.4364225,10.6308279 L10.4364225,8.48267974 L12.5818746,8.48267974 Z M60.8545479,4 L60.8545479,6.14814815 L63,6.14814815 L63,8.2962963 L60.8545479,8.2962963 L60.8545479,10.4444444 L58.7090957,10.4444444 L58.7090957,8.2962963 L56.5636436,8.2962963 L56.5636436,6.14814815 L58.7090957,6.14814815 L58.7090957,4 L60.8545479,4 Z M19.5781966,6.54801368 L19.5781966,7.83779105 L20.8663552,7.83779105 L20.8663552,9.12756842 L19.5781966,9.12756842 L19.5781966,10.4173458 L18.2900379,10.4173458 L18.2900379,9.12756842 L17.0018793,9.12756842 L17.0018793,7.83779105 L18.2900379,7.83779105 L18.2900379,6.54801368 L19.5781966,6.54801368 Z" id="Combined-Shape" fill="url(#linearGradient-2)"></path>
            </g>
        </g>
    </g>
</svg>