<?xml version="1.0" encoding="UTF-8"?>
<svg width="68px" height="68px" viewBox="0 0 68 68" version="1.1" xmlns="http://www.w3.org/2000/svg" xmlns:xlink="http://www.w3.org/1999/xlink">
    <title>web</title>
    <defs>
        <linearGradient x1="50%" y1="100%" x2="50%" y2="0%" id="linearGradient-1">
            <stop stop-color="#FFC2FA" offset="0%"></stop>
            <stop stop-color="#FFEDFE" offset="100%"></stop>
        </linearGradient>
        <linearGradient x1="50%" y1="0%" x2="50%" y2="170.261029%" id="linearGradient-2">
            <stop stop-color="#A228FE" offset="0%"></stop>
            <stop stop-color="#FD75FF" offset="100%"></stop>
        </linearGradient>
        <linearGradient x1="50%" y1="0%" x2="50%" y2="170.261029%" id="linearGradient-3">
            <stop stop-color="#A228FE" offset="0%"></stop>
            <stop stop-color="#FD75FF" offset="100%"></stop>
        </linearGradient>
        <linearGradient x1="50%" y1="0%" x2="50%" y2="170.261029%" id="linearGradient-4">
            <stop stop-color="#A228FE" offset="0%"></stop>
            <stop stop-color="#FD75FF" offset="100%"></stop>
        </linearGradient>
        <linearGradient x1="50%" y1="0%" x2="50%" y2="170.261029%" id="linearGradient-5">
            <stop stop-color="#A228FE" offset="0%"></stop>
            <stop stop-color="#FD75FF" offset="100%"></stop>
        </linearGradient>
        <linearGradient x1="50%" y1="0%" x2="50%" y2="170.261029%" id="linearGradient-6">
            <stop stop-color="#A228FE" offset="0%"></stop>
            <stop stop-color="#FD75FF" offset="100%"></stop>
        </linearGradient>
        <linearGradient x1="50%" y1="0%" x2="50%" y2="170.261029%" id="linearGradient-7">
            <stop stop-color="#A228FE" offset="0%"></stop>
            <stop stop-color="#FD75FF" offset="100%"></stop>
        </linearGradient>
        <linearGradient x1="50%" y1="0%" x2="50%" y2="129.989901%" id="linearGradient-8">
            <stop stop-color="#A228FE" offset="0%"></stop>
            <stop stop-color="#FD75FF" offset="100%"></stop>
        </linearGradient>
        <linearGradient x1="50%" y1="0%" x2="50%" y2="169.350982%" id="linearGradient-9">
            <stop stop-color="#A228FE" offset="0%"></stop>
            <stop stop-color="#FD75FF" offset="100%"></stop>
        </linearGradient>
        <linearGradient x1="50%" y1="0%" x2="50%" y2="170.261029%" id="linearGradient-10">
            <stop stop-color="#A228FE" offset="0%"></stop>
            <stop stop-color="#FD75FF" offset="100%"></stop>
        </linearGradient>
    </defs>
    <g id="Page-1" stroke="none" stroke-width="1" fill="none" fill-rule="evenodd">
        <g id="Artboard" transform="translate(-117.000000, -107.000000)">
            <g id="web" transform="translate(117.000000, 107.000000)">
                <g id="background" fill="url(#linearGradient-1)">
                    <circle id="Oval" cx="34" cy="34" r="34"></circle>
                </g>
                <g id="web1" transform="translate(4.000000, 4.000000)" fill-rule="nonzero">
                    <path d="M29.7366446,5 L29.7366446,21.5780699 C29.7366446,21.7125131 29.7815848,21.8426538 29.863483,21.947885 L29.863483,21.947885 L32.1793031,24.9081211 C32.4111431,25.2044856 32.852137,25.2040568 33.083547,24.9081211 L33.083547,24.9081211 L35.399367,21.947885 C35.4812663,21.8426461 35.5262054,21.7125131 35.5262054,21.5780699 L35.5262054,21.5780699 L35.5262054,5 L36.3367908,5 C37.8055878,5 39,6.22205126 39,7.72361074 L39,7.72361074 L39,25.3671545 C39,26.868824 37.8054803,28.0907653 36.3367908,28.0907653 L36.3367908,28.0907653 L32.6316293,28.0907653 C32.3120227,28.0907653 32.052884,28.3557703 32.052884,28.6826366 L32.052884,28.6826366 L32.052884,34 L24.6240679,28.2118049 C24.5232702,28.1331995 24.4002164,28.0906773 24.273378,28.0906773 L24.273378,28.0906773 L8.66353172,28.0907653 C7.19527236,28.0907653 6.00041996,26.868714 6,25.3671545 L6,25.3671545 L6,7.72361074 C6,6.22194131 7.19451973,5 8.66320916,5 L8.66320916,5 L29.7366446,5 Z M18.580714,11.0208804 C18.2026528,10.9379984 17.8032866,11.1093599 17.6962228,11.4019983 L17.6962228,11.4019983 L14.1436288,21.298501 C14.036565,21.5914258 14.2575953,21.9005898 14.6428366,21.9778808 C14.7068865,21.9944066 14.7712543,22 14.8353395,22 C15.1420864,22 15.4347168,21.8398244 15.5204334,21.5967629 L15.5204334,21.5967629 L19.0730275,11.7002602 C19.1800912,11.4073354 18.958733,11.0981714 18.580714,11.0208804 Z M13.9044242,13.3896031 C13.6214258,13.1077561 13.1570148,13.1077561 12.8740248,13.3896031 L12.8740248,13.3896031 L10.2104848,16.0493716 C10.0725017,16.1791442 10,16.3671587 10,16.5551646 C10,16.7501558 10.0724966,16.9308442 10.2104848,17.0682751 L10.2104848,17.0682751 L12.8740248,19.7210584 C13.0190266,19.8584841 13.2004477,19.9306931 13.3892331,19.9306079 C13.5776678,19.9306079 13.7590889,19.8584041 13.9044242,19.720641 C14.1874141,19.4387854 14.1874141,18.9762499 13.9044242,18.6944029 L13.9044242,18.6944029 L11.749113,16.555122 L13.9044242,14.4158412 C14.1874141,14.1339856 14.1874141,13.6787676 13.9044242,13.3896031 Z M20.125575,13.3896162 C19.8425285,13.1077517 19.385076,13.1077517 19.1020467,13.3896162 C18.8116692,13.6784834 18.8116692,14.1340532 19.1020467,14.4159177 L19.1020467,14.4159177 L21.2503013,16.5553308 L19.1020467,18.6947439 C18.8116659,18.9766169 18.8116659,19.4391809 19.0946952,19.7210454 C19.2397172,19.8584797 19.4285117,19.9306931 19.6099581,19.9306931 C19.7987527,19.9306931 19.980199,19.8584848 20.125221,19.7210454 L20.125221,19.7210454 L22.7891523,17.0681834 C22.9271546,16.930744 22.9996659,16.7500529 23,16.5553734 C23,16.3676881 22.9274933,16.179662 22.7894859,16.0495491 L22.7894859,16.0495491 Z" id="Combined-Shape" fill="url(#linearGradient-2)"></path>
                    <path d="M33.9995357,4.50008359 C33.9995357,3.67293869 33.3267108,3 32.4997679,3 C31.6728249,3 31,3.67296655 31,4.50008359 L31,5 L34,5 L33.9995357,4.50008359 Z" id="Path" fill="url(#linearGradient-3)"></path>
                    <polygon id="Path" fill="url(#linearGradient-4)" points="34 21.6560931 34 20 31 20 31 21.6560931 32.5001393 24"></polygon>
                    <polygon id="Path" fill="url(#linearGradient-5)" points="31 9 34 9 34 19 31 19"></polygon>
                    <polygon id="Path" fill="url(#linearGradient-6)" points="31 6 34 6 34 7 31 7"></polygon>
                    <polygon id="Path" fill="url(#linearGradient-7)" points="6.66666667 53 5.33333333 53 5.33333333 54.3333333 4 54.3333333 4 55.6666667 5.33333333 55.6666667 5.33333333 57 6.66666667 57 6.66666667 55.6666667 8 55.6666667 8 54.3333333 6.66666667 54.3333333"></polygon>
                    <polygon id="Path" fill="url(#linearGradient-7)" points="14 51 13 51 13 52 12 52 12 53 13 53 13 54 14 54 14 53 15 53 15 52 14 52"></polygon>
                    <path d="M56,44.039008 L56,13.9612939 C56,12.3281125 54.6697668,11 53.0349405,11 L40.3027086,11 L40.3027086,13.3226871 L53.0932461,13.3226871 C53.4142189,13.3226871 53.6744458,13.5825943 53.6744458,13.9031486 L53.6744458,40.6131335 C53.6744458,40.9336986 53.4142081,41.193595 53.0932461,41.193595 L8.90726198,41.193595 C8.58628924,41.193595 8.32606237,40.9336878 8.32606237,40.6131335 L8.32564063,28.9829834 C7.42473156,28.9016845 6.61328932,28.5078349 6,27.9117803 L6,44.0387061 C6,45.6714562 7.33023318,47 8.96505953,47 L53.0344323,47 C54.6696906,47 56,45.6714562 56,44.0387061 L56,44.039008 Z M31.1164335,45.3743455 C30.4744988,45.3743455 29.9535592,44.8541214 29.9535592,44.212948 C29.9535592,43.5718286 30.4744448,43.0515506 31.1164335,43.0515506 C31.7587893,43.0515506 32.2793078,43.5717747 32.2793078,44.212948 C32.2793078,44.854488 31.7588433,45.3743455 31.1164335,45.3743455 Z" id="Shape" fill="url(#linearGradient-8)"></path>
                    <path d="M53,15 L53,41 L10,41 L10,39.8180821 L35.5673342,39.8180821 C35.8881238,39.8180821 36.1482217,39.5535936 36.1482217,39.2273645 C36.1482217,38.9011464 35.8881346,38.636647 35.5673342,38.636647 L35.5673342,38.636647 L10,38.636647 L10,37.454729 L24.5275812,37.454729 C24.8483707,37.454729 25.1084686,37.1902296 25.1084686,36.8640115 C25.1084686,36.5377933 24.8483815,36.2732939 24.5275812,36.2732939 L24.5275812,36.2732939 L10,36.2732939 L10,29.7732939 L24.6581589,29.7732939 L32.8913542,36.1529073 C33.2736879,36.4482661 33.8246504,36.170477 33.8246504,35.6826422 L33.8246504,35.6826422 L33.8246504,29.773272 L36.9617101,29.7730964 C39.0766376,29.7730964 40.7969181,28.0232652 40.7969181,25.8729867 L40.7969181,25.8729867 L40.7969181,15 L53,15 Z M51.4001734,39 L46.5998261,39 C46.2685779,39 46,39.2238798 46,39.5 C46,39.7761202 46.2685667,40 46.5998261,40 L46.5998261,40 L51.4001734,40 C51.7318673,40 52.0004347,39.7761295 52,39.5 C52,39.2238798 51.7314328,39 51.4001734,39 L51.4001734,39 Z M44.4000802,39 L42.5999198,39 C42.2686198,39 42,39.2238705 42,39.5 C42,39.7761202 42.2686086,40 42.5999198,40 L42.5999198,40 L44.4000802,40 C44.7313802,40 45,39.7761295 45,39.5 C45,39.2238798 44.7313914,39 44.4000802,39 L44.4000802,39 Z M51.5001022,37 L50.4998978,37 C50.223834,37 50,37.2238705 50,37.5 C50,37.7761202 50.2238247,38 50.4998978,38 L50.4998978,38 L51.5001022,38 C51.776166,38 52,37.7761295 52,37.5 C52,37.2238798 51.7761753,37 51.5001022,37 L51.5001022,37 Z M48.4168472,37 L42.5831528,37 C42.2611122,37 42,37.2238798 42,37.5 C42,37.7761202 42.2611014,38 42.5831528,38 L42.5831528,38 L48.4168472,38 C48.7388878,38 49,37.7761202 49,37.5 C49,37.2238798 48.7388986,37 48.4168472,37 L48.4168472,37 Z M50.4286927,34 L47.5713073,34 C47.2558083,34 47,34.2238798 47,34.5 C47,34.7761202 47.2557977,35 47.5713073,35 L47.5713073,35 L50.4286927,35 C50.7441917,35 51,34.7761202 51,34.5 C51,34.2238798 50.7442023,34 50.4286927,34 L50.4286927,34 Z M45.4286927,34 L42.5713073,34 C42.2558083,34 42,34.2238798 42,34.5 C42,34.7761202 42.2557977,35 42.5713073,35 L42.5713073,35 L45.4286927,35 C45.7441917,35 46,34.7761202 46,34.5 C46,34.2238798 45.7442023,34 45.4286927,34 L45.4286927,34 Z M52.4001738,32 L47.5998262,32 C47.2685779,32 47,32.2238798 47,32.5 C47,32.7761202 47.2685667,33 47.5998262,33 L47.5998262,33 L52.4001738,33 C52.7314221,33 53,32.7761202 53,32.5 C53,32.2238798 52.7314333,32 52.4001738,32 L52.4001738,32 Z M45.3334943,32 L42.6665057,32 C42.2984343,32 42,32.2238705 42,32.5 C42,32.7761202 42.2984219,33 42.6665057,33 L42.6665057,33 L45.3334943,33 C45.7015657,33 46,32.7761295 46,32.5 C46,32.2238798 45.7015781,32 45.3334943,32 L45.3334943,32 Z M51.4001738,30 L46.5998262,30 C46.2685779,30 46,30.2238704 46,30.5 C46,30.7764914 46.2685667,31.0003624 46.5998262,31 L46.5998262,31 L51.4001738,31 C51.7314221,31 52,30.7761199 52,30.5 C52,30.2238797 51.7314333,30 51.4001738,30 L51.4001738,30 Z M44.4000802,30 L42.5999198,30 C42.2686198,30 42,30.2238798 42,30.5 C42,30.7761202 42.2686086,31 42.5999198,31 L42.5999198,31 L44.4000802,31 C44.7313802,31 45,30.7761202 45,30.5 C45,30.2238798 44.7313914,30 44.4000802,30 L44.4000802,30 Z M51.5001022,27 L50.4998978,27 C50.223834,27 50,27.2238705 50,27.5 C50,27.7761202 50.2238247,28 50.4998978,28 L50.4998978,28 L51.5001022,28 C51.776166,28 52,27.7761295 52,27.5 C52,27.2238798 51.7761753,27 51.5001022,27 L51.5001022,27 Z M48.4168472,27 L42.5831528,27 C42.2611122,27 42,27.2238705 42,27.5 C42,27.7761202 42.2611014,28 42.5831528,28 L42.5831528,28 L48.4168472,28 C48.7388878,28 49,27.7761295 49,27.5 C49,27.2238798 48.7388986,27 48.4168472,27 L48.4168472,27 Z M50.3334944,25 L47.6665062,25 C47.2979395,25 46.9995169,25.2238705 47,25.5 C47,25.7761202 47.2984224,26 47.6665062,26 L47.6665062,26 L50.3334944,26 C50.7015658,26 51,25.7761202 51,25.5 C51,25.2238798 50.7015781,25 50.3334944,25 L50.3334944,25 Z M45.4286927,25 L42.5713073,25 C42.2558083,25 42,25.2238798 42,25.5 C42,25.7761202 42.2557977,26 42.5713073,26 L42.5713073,26 L45.4286927,26 C45.7441917,26 46,25.7761202 46,25.5 C46,25.2238798 45.7442023,25 45.4286927,25 L45.4286927,25 Z" id="Combined-Shape" fill="url(#linearGradient-9)"></path>
                    <path d="M39.4255529,54.7695684 L36.6686162,54.7695684 L36.6686162,48 L34.9458508,48 L34.9458508,54.7695684 L28.0538292,54.7695684 L28.0538292,48 L26.3310638,48 L26.3310638,54.7695684 L23.5741271,54.7695684 C23.2570602,54.7695684 23,55.0450371 23,55.3847842 C23,55.7245427 23.2570709,56 23.5741271,56 L39.4258729,56 C39.7429398,56 40,55.7245313 40,55.3847842 C40,55.0450257 39.7429291,54.7695684 39.4258729,54.7695684 L39.4255529,54.7695684 Z" id="Path" fill="url(#linearGradient-10)"></path>
                    <g id="stars" fill="url(#linearGradient-7)">
                        <polygon id="Path" points="2 46 1 46 1 47 0 47 0 48 1 48 1 49 2 49 2 48 3 48 3 47 2 47"></polygon>
                        <polygon id="Path" points="59 48 58 48 58 49 57 49 57 50 58 50 58 51 59 51 59 50 60 50 60 49 59 49"></polygon>
                        <polygon id="Path" points="49.6666667 54 48.3333333 54 48.3333333 55.3333333 47 55.3333333 47 56.6666667 48.3333333 56.6666667 48.3333333 58 49.6666667 58 49.6666667 56.6666667 51 56.6666667 51 55.3333333 49.6666667 55.3333333"></polygon>
                        <polygon id="Path" points="52.6666667 0 51.3333333 0 51.3333333 1.33333333 50 1.33333333 50 2.66666667 51.3333333 2.66666667 51.3333333 4 52.6666667 4 52.6666667 2.66666667 54 2.66666667 54 1.33333333 52.6666667 1.33333333"></polygon>
                        <polygon id="Path" points="58.6666667 4 57.3333333 4 57.3333333 5.33333333 56 5.33333333 56 6.66666667 57.3333333 6.66666667 57.3333333 8 58.6666667 8 58.6666667 6.66666667 60 6.66666667 60 5.33333333 58.6666667 5.33333333"></polygon>
                        <polygon id="Path" points="45.6666667 5 44.3333333 5 44.3333333 6.33333333 43 6.33333333 43 7.66666667 44.3333333 7.66666667 44.3333333 9 45.6666667 9 45.6666667 7.66666667 47 7.66666667 47 6.33333333 45.6666667 6.33333333"></polygon>
                    </g>
                </g>
            </g>
        </g>
    </g>
</svg>