<svg width="80" height="80" viewBox="0 0 80 80" fill="none" xmlns="http://www.w3.org/2000/svg">
<g clip-path="url(#clip0_357_65)">
<circle cx="26.25" cy="26.25" r="21.25" fill="#FFAB0A"/>
<path d="M43.75 10H61.875L70 19.375V57.8814L50.625 39.375L49.375 40.625L46.875 38.125L48.75 24.375L43.75 10Z" fill="#F6DDAD"/>
<path d="M10 43.75C10 43.75 22.8125 47.8125 23.75 48.125C24.6875 48.4375 38.75 46.875 38.75 46.875L59.375 70H10V43.75Z" fill="#F6DDAD"/>
<path d="M26.25 45C29.9584 45 33.5835 43.9003 36.6669 41.8401C39.7504 39.7798 42.1536 36.8514 43.5727 33.4253C44.9919 29.9992 45.3632 26.2292 44.6397 22.5921C43.9162 18.9549 42.1305 15.614 39.5082 12.9918C36.886 10.3695 33.5451 8.58376 29.9079 7.86028C26.2708 7.13681 22.5008 7.50812 19.0747 8.92727C15.6486 10.3464 12.7202 12.7496 10.6599 15.8331C8.59967 18.9165 7.5 22.5416 7.5 26.25C7.50562 31.2211 9.48287 35.987 12.998 39.502C16.513 43.0171 21.2789 44.9944 26.25 45ZM17.5 39.9213V38.75C17.5 36.4294 18.4219 34.2038 20.0628 32.5628C21.7038 30.9219 23.9294 30 26.25 30C28.5706 30 30.7962 30.9219 32.4372 32.5628C34.0781 34.2038 35 36.4294 35 38.75V39.9213C32.3921 41.6047 29.354 42.5001 26.25 42.5001C23.146 42.5001 20.1079 41.6047 17.5 39.9213ZM20 21.25C20 20.0139 20.3666 18.8055 21.0533 17.7777C21.7401 16.7499 22.7162 15.9488 23.8582 15.4758C25.0003 15.0027 26.2569 14.8789 27.4693 15.1201C28.6817 15.3613 29.7953 15.9565 30.6694 16.8306C31.5435 17.7047 32.1387 18.8183 32.3799 20.0307C32.6211 21.2431 32.4973 22.4997 32.0242 23.6418C31.5512 24.7838 30.7501 25.7599 29.7223 26.4467C28.6945 27.1335 27.4861 27.5 26.25 27.5C24.593 27.498 23.0044 26.8389 21.8328 25.6672C20.6611 24.4956 20.002 22.907 20 21.25ZM26.25 10C29.4953 9.99618 32.6672 10.9654 35.3562 12.7824C38.0451 14.5994 40.1276 17.1808 41.3347 20.1933C42.5418 23.2057 42.818 26.5109 42.1278 29.682C41.4375 32.853 39.8125 35.7443 37.4625 37.9825C37.2845 35.2689 36.1274 32.7122 34.2062 30.7875C33.2805 29.8724 32.2045 29.1231 31.025 28.5725C32.606 27.5437 33.8122 26.0315 34.4638 24.2614C35.1154 22.4912 35.1776 20.5579 34.641 18.7495C34.1044 16.9412 32.9978 15.3547 31.4862 14.2264C29.9745 13.0982 28.1388 12.4886 26.2525 12.4886C24.3662 12.4886 22.5305 13.0982 21.0188 14.2264C19.5072 15.3547 18.4006 16.9412 17.864 18.7495C17.3274 20.5579 17.3896 22.4912 18.0412 24.2614C18.6928 26.0315 19.899 27.5437 21.48 28.5725C19.6656 29.4245 18.1118 30.7459 16.9794 32.3998C15.8469 34.0538 15.1769 35.9803 15.0387 37.98C12.6897 35.7417 11.0655 32.8507 10.3757 29.6802C9.68595 26.5097 9.96232 23.2053 11.1691 20.1934C12.376 17.1815 14.4578 14.6005 17.146 12.7835C19.8342 10.9665 23.0053 9.99696 26.25 10Z" fill="#F6DDAD"/>
<path d="M75.0263 62.6529L72.5 60.1254V18.7504C72.4999 18.4189 72.3682 18.101 72.1338 17.8666L62.1338 7.86662C61.8994 7.63218 61.5815 7.50044 61.25 7.50037H40.7738C36.2122 3.94957 30.5107 2.18752 24.7412 2.54555C18.9716 2.90358 13.5317 5.35701 9.44416 9.44453C5.35665 13.532 2.90321 18.972 2.54518 24.7415C2.18715 30.511 3.94921 36.2126 7.5 40.7741V68.7504C7.5 69.7449 7.89509 70.6988 8.59835 71.402C9.30161 72.1053 10.2554 72.5004 11.25 72.5004H60.125L62.6512 75.0266C64.2923 76.6676 66.518 77.5896 68.8387 77.5896C71.1595 77.5896 73.3852 76.6676 75.0263 75.0266C76.6673 73.3856 77.5892 71.1599 77.5892 68.8391C77.5892 66.5184 76.6673 64.2926 75.0263 62.6516V62.6529ZM42.32 47.6254L40.155 45.4629C42.1925 43.9841 43.9837 42.1929 45.4625 40.1554L47.625 42.3204L42.32 47.6254ZM50.2775 39.6691L49.395 40.5504L46.855 38.0129C49.3902 33.6074 50.4353 28.5012 49.8349 23.4539C49.2344 18.4066 47.0205 13.6881 43.5225 10.0004H60V16.2504C60 17.2449 60.3951 18.1988 61.0984 18.902C61.8016 19.6053 62.7554 20.0004 63.75 20.0004H70V57.6254L52.045 39.6716C51.8106 39.4373 51.4927 39.3056 51.1613 39.3056C50.8298 39.3056 50.5119 39.4373 50.2775 39.6716V39.6691ZM62.5 11.7679L68.2325 17.5004H63.75C63.4185 17.5004 63.1005 17.3687 62.8661 17.1343C62.6317 16.8998 62.5 16.5819 62.5 16.2504V11.7679ZM26.25 5.00037C30.4529 5.00037 34.5613 6.24666 38.0559 8.58164C41.5504 10.9166 44.2741 14.2354 45.8824 18.1183C47.4908 22.0013 47.9116 26.2739 47.0917 30.396C46.2718 34.5181 44.2479 38.3045 41.276 41.2764C38.3042 44.2483 34.5178 46.2721 30.3957 47.0921C26.2736 47.912 22.0009 47.4912 18.118 45.8828C14.235 44.2744 10.9163 41.5508 8.58127 38.0562C6.24629 34.5617 5 30.4532 5 26.2504C5.00629 20.6164 7.24714 15.2151 11.2309 11.2313C15.2147 7.24751 20.6161 5.00665 26.25 5.00037ZM11.25 70.0004C10.9185 70.0004 10.6005 69.8687 10.3661 69.6343C10.1317 69.3998 10 69.0819 10 68.7504V43.5229C13.6877 47.0209 18.4063 49.2348 23.4535 49.8352C28.5008 50.4357 33.607 49.3906 38.0125 46.8554L40.5525 49.3954L39.6713 50.2779C39.4369 50.5123 39.3053 50.8302 39.3053 51.1616C39.3053 51.4931 39.4369 51.811 39.6713 52.0454L57.625 70.0004H11.25ZM73.2575 73.2579C72.0855 74.4296 70.496 75.0878 68.8387 75.0878C67.1815 75.0878 65.592 74.4296 64.42 73.2579L61.25 70.0891V70.0004H61.1613L42.3225 51.1616L51.1613 42.3229L70 61.1616V61.2504H70.0887L73.2575 64.4204C74.4292 65.5924 75.0874 67.1818 75.0874 68.8391C75.0874 70.4964 74.4292 72.0858 73.2575 73.2579Z" fill="#F6DDAD"/>
<path d="M63.75 25H56.25C55.5596 25 55 25.5596 55 26.25C55 26.9404 55.5596 27.5 56.25 27.5H63.75C64.4404 27.5 65 26.9404 65 26.25C65 25.5596 64.4404 25 63.75 25Z" fill="#FFAB0A"/>
<path d="M63.75 32.5H56.25C55.5596 32.5 55 33.0596 55 33.75C55 34.4404 55.5596 35 56.25 35H63.75C64.4404 35 65 34.4404 65 33.75C65 33.0596 64.4404 32.5 63.75 32.5Z" fill="#FFAB0A"/>
<path d="M38.75 55H23.75C23.0596 55 22.5 55.5596 22.5 56.25C22.5 56.9404 23.0596 57.5 23.75 57.5H38.75C39.4404 57.5 40 56.9404 40 56.25C40 55.5596 39.4404 55 38.75 55Z" fill="#FFAB0A"/>
<path d="M18.75 55H16.25C15.5596 55 15 55.5596 15 56.25C15 56.9404 15.5596 57.5 16.25 57.5H18.75C19.4404 57.5 20 56.9404 20 56.25C20 55.5596 19.4404 55 18.75 55Z" fill="#FFAB0A"/>
<path d="M26.25 62.5H16.25C15.5596 62.5 15 63.0596 15 63.75C15 64.4404 15.5596 65 16.25 65H26.25C26.9404 65 27.5 64.4404 27.5 63.75C27.5 63.0596 26.9404 62.5 26.25 62.5Z" fill="#FFAB0A"/>
<rect x="40" y="45.5723" width="8.30074" height="3.31435" transform="rotate(-46.4149 40 45.5723)" fill="#FFAB0A"/>
<path d="M62.5 11.25L65.625 14.375L68.75 17.5H63.5C62.9477 17.5 62.5 17.0523 62.5 16.5V11.25Z" fill="#FFAB0A"/>
<path d="M42.1343 51.186L51.2497 41.8748L73.4723 64.5954C76.0379 67.2185 75.9778 71.4288 73.3384 73.9777V73.9777C70.7108 76.5151 66.5237 76.442 63.9863 73.8144L42.1343 51.186Z" fill="#FFAB0A"/>
</g>
<defs>
<clipPath id="clip0_357_65">
<rect width="80" height="80" fill="white"/>
</clipPath>
</defs>
</svg>
