<svg width="80" height="80" viewBox="0 0 80 80" fill="none" xmlns="http://www.w3.org/2000/svg">
<path d="M67.5 12.5H12.5C9.75 12.5 7.5 14.75 7.5 17.5V62.5C7.5 65.25 9.75 67.5 12.5 67.5H67.5C70.25 67.5 72.5 65.25 72.5 62.5V17.5C72.5 14.75 70.25 12.5 67.5 12.5Z" fill="#D4C5FF"/>
<path d="M27.5 40L20 47.5L27.5 55" stroke="#9E7CFE" stroke-width="2" stroke-miterlimit="10" stroke-linecap="round" stroke-linejoin="round"/>
<path d="M52.5 40L60 47.5L52.5 55" stroke="#9E7CFE" stroke-width="2" stroke-miterlimit="10" stroke-linecap="round" stroke-linejoin="round"/>
<path d="M45 37.5L35 57.5" stroke="#9E7CFE" stroke-width="2" stroke-miterlimit="10" stroke-linecap="round" stroke-linejoin="round"/>
<path d="M7.5 27.5H72.5" stroke="#9E7CFE" stroke-width="2" stroke-miterlimit="10" stroke-linecap="round" stroke-linejoin="round"/>
<path d="M17.5 22.5C16.75 22.5 16.25 22.25 15.75 21.75C15.25 21.25 15 20.75 15 20C15 19.25 15.25 18.75 15.75 18.25L16 18C16.25 18 16.25 17.75 16.5 17.75C16.75 17.5 16.75 17.5 17 17.5C17.25 17.5 17.75 17.5 18 17.5C18.25 17.5 18.25 17.5 18.5 17.75C18.75 17.75 18.75 18 19 18L19.25 18.25C19.5 18.5 19.75 18.75 19.75 19C20 19.25 20 19.75 20 20C20 20.25 20 20.75 19.75 21C19.75 21.25 19.5 21.5 19.25 21.75C18.75 22.25 18.25 22.5 17.5 22.5Z" fill="#9E7CFE"/>
<path d="M25 22.5004C24.25 22.5004 23.75 22.2504 23.25 21.7504C22.75 21.2504 22.5 20.7504 22.5 20.0004C22.5 19.7504 22.5 19.2504 22.75 19.0004C23 18.7504 23 18.5004 23.25 18.2504C23.5 18.0004 23.75 17.7504 24 17.7504C25 17.2504 26 17.5004 26.75 18.2504C27 18.5004 27.25 18.7504 27.25 19.0004C27.5 19.2504 27.5 19.7504 27.5 20.0004C27.5 20.7504 27.25 21.2504 26.75 21.7504C26.25 22.2504 25.75 22.5004 25 22.5004Z" fill="#9E7CFE"/>
<path d="M32.5 22.5C32.25 22.5 31.75 22.5 31.5 22.25C31.25 22 31 22 30.75 21.75C30.5 21.5 30.25 21.25 30.25 21C30 20.75 30 20.25 30 20C30 19.75 30 19.25 30.25 19C30.5 18.75 30.5 18.5 30.75 18.25C31.75 17.25 33.25 17.25 34.25 18.25C34.5 18.5 34.75 18.75 34.75 19C35 19.25 35 19.75 35 20C35 20.25 35 20.75 34.75 21C34.5 21.25 34.5 21.5 34.25 21.75C33.75 22.25 33.25 22.5 32.5 22.5Z" fill="#9E7CFE"/>
</svg>
