<svg width="558" height="3400" viewBox="0 0 558 3400" fill="none" xmlns="http://www.w3.org/2000/svg">
<path d="M54.9165 1646.72C44.5654 1646.72 36.4915 1643.83 30.6949 1638.05C24.8983 1631.85 22 1623.59 22 1613.27V1605.83C22 1595.1 24.8983 1587.04 30.6949 1581.67C36.4915 1575.89 44.5654 1573 54.9165 1573H501.462C523.821 1573 535 1583.94 535 1605.83V1613.27C535 1624.01 532.102 1632.27 526.305 1638.05C520.508 1643.83 512.228 1646.72 501.462 1646.72H54.9165ZM54.9165 1827C44.5654 1827 36.4915 1824.11 30.6949 1818.33C24.8983 1812.54 22 1804.49 22 1794.17V1785.49C22 1774.75 24.8983 1766.49 30.6949 1760.71C36.4915 1754.93 44.5654 1752.04 54.9165 1752.04H501.462C512.228 1752.04 520.508 1754.93 526.305 1760.71C532.102 1766.49 535 1774.75 535 1785.49V1794.17C535 1804.9 532.102 1813.16 526.305 1818.95C520.508 1824.32 512.228 1827 501.462 1827H54.9165Z" fill="black"/>
</svg>
