<svg width="4744" height="4744" viewBox="0 0 4744 4744" fill="none" xmlns="http://www.w3.org/2000/svg">
<path d="M907.26 2913.96V2515.28C907.26 2478.34 901.023 2450.32 888.548 2437.58C886.053 2433.76 876.074 2422.29 841.145 2422.29C814.948 2422.29 793.742 2429.94 775.03 2445.22C768.793 2450.32 751.328 2465.6 750.081 2511.46V2913.96H486.867V2515.28C486.867 2457.96 475.64 2446.49 471.898 2441.4C465.661 2433.76 440.712 2423.57 420.752 2423.57C394.556 2423.57 373.349 2429.94 353.39 2446.49C337.173 2461.78 328.44 2484.71 328.44 2519.1V2913.96H54V2173.91H328.44V2198.11C369.606 2179.01 413.267 2165 458.176 2165C503.084 2165 545.498 2172.64 581.674 2187.92C612.86 2199.39 640.305 2217.22 662.759 2240.15C681.471 2226.14 700.182 2213.4 720.142 2201.93C768.792 2177.73 821.186 2165 878.569 2165C967.138 2165 1040.74 2193.02 1096.87 2247.79C1153.01 2302.56 1181.7 2378.99 1181.7 2477.06V2913.96H907.26Z" fill="#0692E3"/>
<path d="M1181.49 2544.57C1181.49 2340.77 1343.66 2176.46 1543.25 2176.46C1742.84 2176.46 1905.01 2340.77 1905.01 2544.57C1905.01 2748.37 1742.84 2913.96 1543.25 2913.96C1343.66 2913.96 1181.49 2748.37 1181.49 2544.57ZM1542 2654.12C1600.63 2654.12 1648.03 2605.71 1648.03 2545.85C1648.03 2485.98 1600.63 2437.58 1542 2437.58C1484.62 2437.58 1437.21 2485.98 1437.21 2545.85C1437.21 2605.71 1484.62 2654.12 1542 2654.12Z" fill="#0692E3"/>
<path d="M2294.61 2399.37C2263.42 2399.37 2233.48 2410.83 2213.52 2433.76C2192.32 2456.68 2181.09 2488.53 2181.09 2524.19C2181.09 2563.68 2192.32 2596.8 2213.52 2619.72C2233.48 2642.65 2263.42 2654.12 2294.61 2654.12C2359.47 2654.12 2401.89 2603.17 2401.89 2524.19C2401.89 2450.32 2358.23 2399.37 2294.61 2399.37ZM2348.25 2908.87C2283.38 2908.87 2234.73 2893.58 2192.32 2857.92V2913.96H1917.88V1830H2192.32V2222.31C2207.29 2207.03 2237.22 2189.2 2255.94 2180.28C2288.37 2166.27 2325.79 2157.35 2361.97 2157.35C2449.29 2157.35 2531.62 2195.57 2589.01 2263.07C2617.7 2297.47 2638.91 2336.95 2655.12 2382.81C2672.59 2428.66 2678.82 2479.61 2678.82 2533.11C2678.82 2587.88 2672.59 2638.83 2655.12 2684.69C2638.91 2729.27 2616.45 2770.03 2587.76 2803.14C2557.82 2837.54 2521.64 2864.28 2482.97 2882.12C2440.56 2899.95 2394.4 2908.87 2348.25 2908.87Z" fill="#0692E3"/>
<path d="M3057.9 2913.96C2953.12 2913.96 2863.3 2879.57 2795.94 2813.33C2724.83 2745.83 2691.15 2655.39 2691.15 2543.3C2691.15 2431.21 2726.08 2340.77 2797.19 2274.54C2868.29 2208.3 2951.87 2173.91 3046.68 2173.91C3142.73 2173.91 3226.31 2205.76 3292.43 2264.35C3361.04 2325.49 3394.72 2407.01 3394.72 2510.18V2637.56H3223.82L3353.55 2780.22L3334.84 2799.32C3256.25 2874.47 3162.69 2913.96 3057.9 2913.96ZM2931.91 2637.56C2940.64 2652.84 2951.87 2665.58 2966.84 2675.77C2994.28 2696.15 3024.22 2705.07 3057.9 2705.07C3114.04 2705.07 3158.95 2687.23 3195.12 2649.02L3206.35 2637.56H2931.91ZM3152.71 2450.32C3146.47 2432.48 3137.74 2419.75 3125.27 2407.01C3105.31 2391.72 3080.36 2382.81 3050.42 2382.81C3021.73 2382.81 2994.28 2391.72 2968.09 2410.83C2953.12 2421.02 2941.89 2435.03 2935.65 2450.32H3152.71Z" fill="#0692E3"/>
<path d="M3801.95 2913.96V2522.92C3801.95 2478.34 3791.97 2461.78 3788.23 2456.68C3783.24 2450.32 3770.77 2446.49 3753.3 2446.49C3732.1 2446.49 3715.88 2452.86 3699.66 2466.87C3694.67 2471.97 3680.95 2484.71 3680.95 2528.01V2913.96H3407.76V2175.19H3680.95V2200.66C3714.63 2186.65 3750.81 2180.28 3786.98 2180.28C3870.56 2180.28 3940.42 2207.03 3994.06 2261.8C4047.7 2315.3 4075.15 2391.72 4075.15 2487.25V2913.96H3801.95Z" fill="#0692E3"/>
<path d="M4158.34 1935.72V2176.46H4068.52V2426.11H4158.34V2646.47C4158.34 2646.47 4153.35 2917.78 4425.29 2913.96C4629.87 2911.41 4691 2790.41 4691 2790.41L4587.46 2590.43C4587.46 2590.43 4555.03 2674.5 4486.42 2674.5C4417.81 2674.5 4427.79 2633.74 4427.79 2587.88C4427.79 2542.03 4427.79 2426.11 4427.79 2426.11H4618.65V2176.46H4431.53V1935.72H4158.34Z" fill="#0692E3"/>
</svg>
