<svg width="44" height="31" viewBox="0 0 44 31" fill="none" xmlns="http://www.w3.org/2000/svg">
<rect x="5.38989" y="3.84961" width="34.65" height="23.87" rx="4" fill="white"/>
<path fill-rule="evenodd" clip-rule="evenodd" d="M4.4 0H39.6C42.02 0 44 1.98 44 4.4V26.4C44 28.82 42.02 30.8 39.6 30.8H4.4C1.98 30.8 0 28.82 0 26.4L0.022 4.4C0.022 1.98 1.98 0 4.4 0ZM24.2 8.6C24.2 7.49543 23.3046 6.6 22.2 6.6H21.8C20.6954 6.6 19.8 7.49543 19.8 8.6V9C19.8 10.1046 20.6954 11 21.8 11H22.2C23.3046 11 24.2 10.1046 24.2 9V8.6ZM24.2 15.2C24.2 14.0954 23.3046 13.2 22.2 13.2H21.8C20.6954 13.2 19.8 14.0954 19.8 15.2V15.6C19.8 16.7046 20.6954 17.6 21.8 17.6H22.2C23.3046 17.6 24.2 16.7046 24.2 15.6V15.2ZM17.6 8.6C17.6 7.49543 16.7046 6.6 15.6 6.6H15.2C14.0954 6.6 13.2 7.49543 13.2 8.6V9C13.2 10.1046 14.0954 11 15.2 11H15.6C16.7046 11 17.6 10.1046 17.6 9V8.6ZM17.6 15.2C17.6 14.0954 16.7046 13.2 15.6 13.2H15.2C14.0954 13.2 13.2 14.0954 13.2 15.2V15.6C13.2 16.7046 14.0954 17.6 15.2 17.6H15.6C16.7046 17.6 17.6 16.7046 17.6 15.6V15.2ZM6.6 15.6C6.6 16.7046 7.49543 17.6 8.6 17.6H9C10.1046 17.6 11 16.7046 11 15.6V15.2C11 14.0954 10.1046 13.2 9 13.2H8.6C7.49543 13.2 6.6 14.0954 6.6 15.2V15.6ZM6.6 9C6.6 10.1046 7.49543 11 8.6 11H9C10.1046 11 11 10.1046 11 9V8.6C11 7.49543 10.1046 6.6 9 6.6H8.6C7.49543 6.6 6.6 7.49543 6.6 8.6V9ZM26.4 15.6C26.4 16.7046 27.2954 17.6 28.4 17.6H28.8C29.9046 17.6 30.8 16.7046 30.8 15.6V15.2C30.8 14.0954 29.9046 13.2 28.8 13.2H28.4C27.2954 13.2 26.4 14.0954 26.4 15.2V15.6ZM26.4 9C26.4 10.1046 27.2954 11 28.4 11H28.8C29.9046 11 30.8 10.1046 30.8 9V8.6C30.8 7.49543 29.9046 6.6 28.8 6.6H28.4C27.2954 6.6 26.4 7.49543 26.4 8.6V9ZM33 15.6C33 16.7046 33.8954 17.6 35 17.6H35.4C36.5046 17.6 37.4 16.7046 37.4 15.6V15.2C37.4 14.0954 36.5046 13.2 35.4 13.2H35C33.8954 13.2 33 14.0954 33 15.2V15.6ZM33 9C33 10.1046 33.8954 11 35 11H35.4C36.5046 11 37.4 10.1046 37.4 9V8.6C37.4 7.49543 36.5046 6.6 35.4 6.6H35C33.8954 6.6 33 7.49543 33 8.6V9ZM11.1649 21.5596C9.67654 21.5596 8.46995 22.7662 8.46995 24.2546C8.46995 25.743 9.67654 26.9496 11.1649 26.9496H33.4949C34.9834 26.9496 36.1899 25.743 36.1899 24.2546C36.1899 22.7662 34.9834 21.5596 33.4949 21.5596H11.1649Z" fill="#022032"/>
</svg>
