<svg width="44" height="37" viewBox="0 0 44 37" fill="none" xmlns="http://www.w3.org/2000/svg">
<path d="M6.79157 0.265223L8.38984 3.50367C8.45915 3.6441 8.59312 3.74143 8.74809 3.76395L12.3219 4.28326C12.7122 4.33997 12.868 4.81956 12.5856 5.09482L9.99956 7.6156C9.88743 7.72491 9.83625 7.8824 9.86273 8.03674L10.4732 11.5961C10.5399 11.9848 10.1319 12.2812 9.78286 12.0977L6.58632 10.4172C6.44771 10.3443 6.28212 10.3443 6.14351 10.4172L2.94696 12.0977C2.59791 12.2812 2.18995 11.9848 2.25661 11.5961L2.8671 8.03674C2.89357 7.8824 2.8424 7.72491 2.73026 7.6156L0.144204 5.09482C-0.138187 4.81956 0.0176394 4.33997 0.407894 4.28326L3.98174 3.76395C4.13671 3.74143 4.27068 3.6441 4.33998 3.50367L5.93825 0.265223C6.11278 -0.0884076 6.61705 -0.0884076 6.79157 0.265223Z" fill="white"/>
<path d="M38.0618 0.265223L39.6601 3.50367C39.7294 3.6441 39.8634 3.74143 40.0184 3.76395L43.5922 4.28326C43.9824 4.33997 44.1383 4.81956 43.8559 5.09482L41.2698 7.6156C41.1577 7.72491 41.1065 7.8824 41.133 8.03674L41.7435 11.5961C41.8101 11.9848 41.4022 12.2812 41.0531 12.0977L37.8566 10.4172C37.718 10.3443 37.5524 10.3443 37.4138 10.4172L34.2172 12.0977C33.8682 12.2812 33.4602 11.9848 33.5269 11.5961L34.1374 8.03674C34.1638 7.8824 34.1127 7.72491 34.0005 7.6156L31.4145 5.09482C31.1321 4.81956 31.2879 4.33997 31.6782 4.28326L35.252 3.76395C35.407 3.74143 35.5409 3.6441 35.6102 3.50367L37.2085 0.265223C37.383 -0.0884076 37.8873 -0.0884076 38.0618 0.265223Z" fill="white"/>
<path d="M18.3653 7.61559C18.4774 7.7249 18.5286 7.8824 18.5021 8.03673L17.8916 11.5961C17.825 11.9848 18.2329 12.2812 18.582 12.0977L19.1932 11.7764L19.431 8.92214C19.5184 7.58118 20.6361 6.53318 21.9828 6.53318C22.0205 6.53318 22.0584 6.53411 22.0964 6.53574C23.4032 6.59544 24.4748 7.68712 24.538 9.0211L24.6625 11.7006L25.4179 12.0977C25.7669 12.2812 26.1749 11.9848 26.1082 11.5961L25.4977 8.03673C25.4713 7.8824 25.5224 7.7249 25.6346 7.61559L28.2206 5.09481C28.503 4.81956 28.3472 4.33996 27.9569 4.28326L24.3831 3.76395C24.2281 3.74143 24.0942 3.6441 24.0249 3.50366L22.4266 0.265216C22.252 -0.0884053 21.7478 -0.0884053 21.5733 0.265216L19.975 3.50366C19.9057 3.6441 19.7717 3.74143 19.6167 3.76395L16.0429 4.28326C15.6526 4.33996 15.4968 4.81956 15.7792 5.09481L18.3653 7.61559Z" fill="white"/>
<path d="M23.6843 16.2696L23.3502 9.07754C23.3162 8.36258 22.7604 7.75688 22.0443 7.724C21.2944 7.69112 20.6611 8.26605 20.6176 9.00859L19.647 20.658C19.647 20.658 14.7314 18.0559 13.4277 19.8804C12.8613 20.6749 12.8008 21.7665 13.5285 22.5016C14.0301 23.0117 17.925 27.8887 19.8657 30.0407V34.8337C19.8657 35.6432 20.522 36.2995 21.3315 36.2995H31.5044C32.314 36.2995 32.9703 35.6432 32.9703 34.8337V30.1142L33.4601 29.1637C33.7143 28.6704 33.8507 28.125 33.8586 27.5702L33.9695 19.7743V19.0679C33.9695 18.1535 33.3044 17.3452 32.3953 17.238C31.7016 17.1532 31.0704 17.4746 30.7077 17.9933V17.569C30.7077 16.6451 30.0309 15.8336 29.1123 15.7328C28.2329 15.6384 27.4596 16.1879 27.2082 16.9697V16.7886C27.2082 15.8529 26.4482 14.9833 25.5139 14.9335C25.0616 14.9094 24.6436 15.0544 24.3155 15.3127C24.01 15.5514 23.7861 15.8856 23.6843 16.2696Z" fill="#022032"/>
</svg>
