<svg width="133" height="32" viewBox="0 0 133 32" fill="none" xmlns="http://www.w3.org/2000/svg">
<path d="M24.4735 31.0898V19.6549C24.4735 18.5954 24.2946 17.7917 23.9368 17.4263C23.8652 17.3167 23.579 16.9879 22.5772 16.9879C21.8258 16.9879 21.2175 17.2071 20.6808 17.6455C20.5019 17.7917 20.001 18.2301 19.9652 19.5453V31.0898H12.4156V19.6549C12.4156 18.0109 12.0936 17.6821 11.9863 17.5359C11.8074 17.3167 11.0918 17.0245 10.5193 17.0245C9.76793 17.0245 9.15967 17.2071 8.58719 17.6821C8.12205 18.1205 7.87159 18.7781 7.87159 19.7645V31.0898H0V9.86397H7.87159V10.5581C9.05233 10.0101 10.3046 9.60824 11.5927 9.60824C12.8808 9.60824 14.0973 9.82744 15.1349 10.2658C16.0294 10.5946 16.8166 11.1061 17.4606 11.7637C17.9973 11.3618 18.534 10.9965 19.1065 10.6677C20.5019 9.97357 22.0047 9.60824 23.6506 9.60824C26.1909 9.60824 28.302 10.412 29.9121 11.9829C31.5222 13.5538 32.3451 15.7458 32.3451 18.5589V31.0898H24.4735Z" fill="#0692E3"/>
<path d="M32.3389 20.4951C32.3389 14.6498 36.9903 9.93703 42.7151 9.93703C48.4399 9.93703 53.0913 14.6498 53.0913 20.4951C53.0913 26.3404 48.4399 31.0898 42.7151 31.0898C36.9903 31.0898 32.3389 26.3404 32.3389 20.4951ZM42.6793 23.637C44.361 23.637 45.7206 22.2487 45.7206 20.5317C45.7206 18.8146 44.361 17.4263 42.6793 17.4263C41.0335 17.4263 39.6738 18.8146 39.6738 20.5317C39.6738 22.2487 41.0335 23.637 42.6793 23.637Z" fill="#0692E3"/>
<path d="M64.2658 16.3303C63.3713 16.3303 62.5126 16.6591 61.9402 17.3167C61.3319 17.9743 61.0099 18.8877 61.0099 19.9106C61.0099 21.0431 61.3319 21.993 61.9402 22.6506C62.5126 23.3082 63.3713 23.637 64.2658 23.637C66.1264 23.637 67.3429 22.1757 67.3429 19.9106C67.3429 17.7917 66.0906 16.3303 64.2658 16.3303ZM65.8044 30.9436C63.9438 30.9436 62.5484 30.5052 61.3319 29.4823V31.0898H53.4603V0H61.3319V11.2522C61.7613 10.8138 62.62 10.3024 63.1567 10.0466C64.087 9.64477 65.1604 9.38903 66.198 9.38903C68.7026 9.38903 71.064 10.485 72.7099 12.4213C73.5329 13.4077 74.1411 14.5402 74.6063 15.8554C75.1072 17.1706 75.2861 18.6319 75.2861 20.1663C75.2861 21.7373 75.1072 23.1986 74.6063 24.5138C74.1411 25.7924 73.4971 26.9615 72.6741 27.9114C71.8154 28.8978 70.7778 29.665 69.6686 30.1764C68.4521 30.6879 67.1282 30.9436 65.8044 30.9436Z" fill="#0692E3"/>
<path d="M86.159 31.0898C83.1535 31.0898 80.5773 30.1034 78.6452 28.2036C76.6057 26.2674 75.6397 23.6735 75.6397 20.4586C75.6397 17.2437 76.6415 14.6498 78.681 12.7501C80.7204 10.8504 83.1177 9.86397 85.837 9.86397C88.592 9.86397 90.9893 10.7773 92.8856 12.4578C94.8535 14.2114 95.8196 16.5495 95.8196 19.5087V23.1621H90.9177L94.6389 27.2538L94.1021 27.8018C91.848 29.9572 89.1645 31.0898 86.159 31.0898ZM82.5452 23.1621C82.7957 23.6005 83.1177 23.9658 83.5471 24.2581C84.3342 24.8426 85.1929 25.0983 86.159 25.0983C87.7691 25.0983 89.0572 24.5869 90.0948 23.4909L90.4168 23.1621H82.5452ZM88.8783 17.7917C88.6994 17.2802 88.4489 16.9149 88.0911 16.5495C87.5186 16.1111 86.803 15.8554 85.9443 15.8554C85.1214 15.8554 84.3342 16.1111 83.5828 16.6591C83.1535 16.9514 82.8315 17.3533 82.6526 17.7917H88.8783Z" fill="#0692E3"/>
<path d="M107.5 31.0898V19.8741C107.5 18.5954 107.214 18.1205 107.106 17.9743C106.963 17.7917 106.606 17.6821 106.105 17.6821C105.496 17.6821 105.031 17.8647 104.566 18.2666C104.423 18.4127 104.029 18.7781 104.029 20.0202V31.0898H96.1936V9.9005H104.029V10.6312C104.995 10.2293 106.033 10.0466 107.071 10.0466C109.468 10.0466 111.472 10.8138 113.01 12.3848C114.549 13.9192 115.336 16.1111 115.336 18.8511V31.0898H107.5Z" fill="#0692E3"/>
<path d="M117.722 3.03226V9.93703H115.146V17.0975H117.722V23.4178C117.722 23.4178 117.579 31.1994 125.379 31.0898C131.247 31.0167 133 27.546 133 27.546L130.03 21.8103C130.03 21.8103 129.1 24.2215 127.132 24.2215C125.164 24.2215 125.45 23.0525 125.45 21.7373C125.45 20.4221 125.45 17.0975 125.45 17.0975H130.925V9.93703H125.558V3.03226H117.722Z" fill="#0692E3"/>
</svg>
