<svg width="133" height="31" viewBox="0 0 133 31" fill="none" xmlns="http://www.w3.org/2000/svg">
<path d="M24.4735 30.4487V19.2496C24.4735 18.212 24.2946 17.4248 23.9368 17.067C23.8652 16.9597 23.579 16.6377 22.5772 16.6377C21.8258 16.6377 21.2175 16.8524 20.6808 17.2817C20.5019 17.4248 20.001 17.8542 19.9652 19.1423V30.4487H12.4156V19.2496C12.4156 17.6395 12.0936 17.3175 11.9863 17.1744C11.8074 16.9597 11.0918 16.6735 10.5193 16.6735C9.76793 16.6735 9.15967 16.8524 8.58719 17.3175C8.12205 17.7469 7.87159 18.3909 7.87159 19.357V30.4487H0V9.66059H7.87159V10.3404C9.05233 9.80371 10.3046 9.41013 11.5927 9.41013C12.8808 9.41013 14.0973 9.62481 15.1349 10.0542C16.0294 10.3762 16.8166 10.8771 17.4606 11.5211C17.9973 11.1276 18.534 10.7698 19.1065 10.4478C20.5019 9.76793 22.0047 9.41013 23.6506 9.41013C26.1909 9.41013 28.302 10.1973 29.9121 11.7358C31.5221 13.2744 32.3451 15.4212 32.3451 18.1762V30.4487H24.4735Z" fill="#FBF8F8"/>
<path d="M32.3389 20.0726C32.3389 14.3478 36.9903 9.73215 42.7151 9.73215C48.4399 9.73215 53.0913 14.3478 53.0913 20.0726C53.0913 25.7974 48.4399 30.4487 42.7151 30.4487C36.9903 30.4487 32.3389 25.7974 32.3389 20.0726ZM42.6793 23.1496C44.361 23.1496 45.7206 21.79 45.7206 20.1083C45.7206 18.4267 44.361 17.067 42.6793 17.067C41.0335 17.067 39.6738 18.4267 39.6738 20.1083C39.6738 21.79 41.0335 23.1496 42.6793 23.1496Z" fill="#FBF8F8"/>
<path d="M64.2658 15.9936C63.3713 15.9936 62.5126 16.3157 61.9401 16.9597C61.3319 17.6037 61.0099 18.4982 61.0099 19.5001C61.0099 20.6093 61.3319 21.5395 61.9401 22.1836C62.5126 22.8276 63.3713 23.1496 64.2658 23.1496C66.1264 23.1496 67.3429 21.7184 67.3429 19.5001C67.3429 17.4248 66.0906 15.9936 64.2658 15.9936ZM65.8044 30.3056C63.9438 30.3056 62.5484 29.8763 61.3319 28.8744V30.4487H53.4603V0H61.3319V11.0202C61.7613 10.5909 62.62 10.09 63.1567 9.83949C64.087 9.44591 65.1603 9.19545 66.198 9.19545C68.7026 9.19545 71.064 10.2689 72.7099 12.1652C73.5329 13.1312 74.1411 14.2404 74.6063 15.5285C75.1072 16.8166 75.2861 18.2478 75.2861 19.7505C75.2861 21.2891 75.1072 22.7203 74.6063 24.0084C74.1411 25.2607 73.4971 26.4056 72.6741 27.3359C71.8154 28.302 70.7778 29.0533 69.6686 29.5543C68.4521 30.0552 67.1282 30.3056 65.8044 30.3056Z" fill="#FBF8F8"/>
<path d="M86.159 30.4487C83.1535 30.4487 80.5773 29.4827 78.6452 27.6221C76.6057 25.7258 75.6397 23.1854 75.6397 20.0368C75.6397 16.8881 76.6415 14.3478 78.681 12.4872C80.7204 10.6266 83.1177 9.66059 85.837 9.66059C88.592 9.66059 90.9893 10.5551 92.8856 12.201C94.8535 13.9184 95.8196 16.2083 95.8196 19.1065V22.6845H90.9177L94.6388 26.6919L94.1021 27.2286C91.848 29.3396 89.1645 30.4487 86.159 30.4487ZM82.5452 22.6845C82.7957 23.1139 83.1177 23.4717 83.5471 23.7579C84.3342 24.3304 85.1929 24.5808 86.159 24.5808C87.7691 24.5808 89.0572 24.0799 90.0948 23.0065L90.4168 22.6845H82.5452ZM88.8783 17.4248C88.6994 16.9239 88.4489 16.5661 88.0911 16.2083C87.5186 15.779 86.803 15.5285 85.9443 15.5285C85.1214 15.5285 84.3342 15.779 83.5828 16.3157C83.1535 16.6019 82.8315 16.9955 82.6526 17.4248H88.8783Z" fill="#FBF8F8"/>
<path d="M107.5 30.4487V19.4643C107.5 18.212 107.214 17.7469 107.106 17.6037C106.963 17.4248 106.606 17.3175 106.105 17.3175C105.496 17.3175 105.031 17.4964 104.566 17.89C104.423 18.0331 104.029 18.3909 104.029 19.6074V30.4487H96.1936V9.69637H104.029V10.412C104.995 10.0184 106.033 9.83949 107.071 9.83949C109.468 9.83949 111.472 10.5909 113.01 12.1294C114.549 13.6322 115.336 15.779 115.336 18.4625V30.4487H107.5Z" fill="#FBF8F8"/>
<path d="M117.722 2.96974V9.73215H115.146V16.745H117.722V22.935C117.722 22.935 117.579 30.5561 125.379 30.4487C131.247 30.3772 133 26.9781 133 26.9781L130.03 21.3606C130.03 21.3606 129.1 23.7221 127.132 23.7221C125.164 23.7221 125.45 22.5772 125.45 21.2891C125.45 20.001 125.45 16.745 125.45 16.745H130.925V9.73215H125.558V2.96974H117.722Z" fill="#FBF8F8"/>
</svg>
