<svg width="34" height="23" viewBox="0 0 34 23" fill="none" xmlns="http://www.w3.org/2000/svg">
<path d="M25.7257 22.7166V10.9445C25.7257 9.85377 25.5376 9.02634 25.1615 8.65023C25.0863 8.5374 24.7854 8.19891 23.7323 8.19891C22.9425 8.19891 22.3031 8.42457 21.7389 8.8759C21.5509 9.02634 21.0243 9.47767 20.9867 10.8317V22.7166H13.0509V10.9445C13.0509 9.252 12.7124 8.91351 12.5996 8.76307C12.4115 8.5374 11.6593 8.23652 11.0575 8.23652C10.2677 8.23652 9.62832 8.42457 9.02655 8.91351C8.53761 9.36484 8.27434 10.0418 8.27434 11.0573V22.7166H0V0.864836H8.27434V1.57944C9.51549 1.01528 10.8319 0.601562 12.1858 0.601562C13.5398 0.601562 14.8186 0.827226 15.9093 1.27855C16.8496 1.61705 17.677 2.1436 18.354 2.82059C18.9181 2.40687 19.4823 2.03077 20.0841 1.69227C21.5509 0.977668 23.1305 0.601562 24.8606 0.601562C27.531 0.601562 29.75 1.42899 31.4425 3.04625C33.135 4.66351 34 6.92015 34 9.81616V22.7166H25.7257Z" fill="#0692E3"/>
</svg>
