<svg width="558" height="3400" viewBox="0 0 558 3400" fill="none" xmlns="http://www.w3.org/2000/svg">
<path d="M275.128 1979C262.541 1979 253.325 1977.2 247.481 1973.6C242.086 1970 239.389 1963.93 239.389 1955.38V1740.82H24.276C15.7345 1740.82 9.44068 1738.57 5.39467 1734.07C1.79822 1729.58 0 1721.25 0 1709.11V1701.01C0 1687.97 2.023 1678.07 6.06901 1671.32C10.115 1664.13 16.184 1660.53 24.276 1660.53H239.389V1445.29C239.389 1437.19 242.086 1431.12 247.481 1427.07C253.325 1423.02 262.541 1421 275.128 1421H283.22C307.047 1421 318.96 1429.1 318.96 1445.29V1660.53H532.724C540.816 1660.53 546.885 1663.45 550.931 1669.3C554.977 1674.7 557 1683.69 557 1696.29V1704.39C557 1728.68 548.908 1740.82 532.724 1740.82H318.96V1955.38C318.96 1963.93 316.038 1970 310.194 1973.6C304.799 1977.2 295.808 1979 283.22 1979H275.128Z" fill="black"/>
</svg>
