<svg xmlns="http://www.w3.org/2000/svg" viewBox="0 0 750 500"><g id="freepik--Table--inject-2"><path d="M711,448.83c0,.15-152.06.26-339.58.26S31.85,449,31.85,448.83s152-.26,339.61-.26S711,448.69,711,448.83Z" style="fill:#263238"></path></g><g id="freepik--Walls--inject-2"><path d="M225.31,449.21c-.15,0-.26-87.17-.26-194.68s.11-194.7.26-194.7.26,87.16.26,194.7S225.45,449.21,225.31,449.21Z" style="fill:#263238"></path><path d="M470.9,448.94c-.14,0-.26-85.54-.26-191s.12-191.07.26-191.07.26,85.53.26,191.07S471.05,448.94,470.9,448.94Z" style="fill:#263238"></path></g><g id="freepik--shelf-2--inject-2"><rect x="633.17" y="88.21" width="7.49" height="56.09" transform="translate(1273.84 232.51) rotate(180)" style="fill:#0692E3"></rect><path d="M633.48,95.85c0,.2,1.57.35,3.51.35s3.51-.15,3.51-.35-1.57-.35-3.51-.35S633.48,95.66,633.48,95.85Z" style="fill:#fafafa"></path><path d="M633.33,94.63c0,.2,1.57.35,3.51.35s3.51-.15,3.51-.35-1.57-.35-3.51-.35S633.33,94.44,633.33,94.63Z" style="fill:#fafafa"></path><path d="M633.48,140c0,.2,1.57.35,3.51.35s3.51-.15,3.51-.35-1.57-.35-3.51-.35S633.48,139.77,633.48,140Z" style="fill:#fafafa"></path><path d="M633.33,138.74c0,.2,1.57.35,3.51.35s3.51-.15,3.51-.35-1.57-.35-3.51-.35S633.33,138.55,633.33,138.74Z" style="fill:#fafafa"></path><path d="M637.15,131.41c.19,0,.35-6.42.35-14.34s-.16-14.35-.35-14.35-.36,6.42-.36,14.35S637,131.41,637.15,131.41Z" style="fill:#fafafa"></path><rect x="666.75" y="87.85" width="14.99" height="56.09" transform="translate(1348.49 231.79) rotate(180)" style="fill:#263238"></rect><path d="M677.52,144.66a1.73,1.73,0,0,0,.18-.31c.1-.2.25-.51.42-.93a16,16,0,0,0,1.09-3.8,9.85,9.85,0,0,0-.88-6.17,8.08,8.08,0,0,0-2.65-2.93,6.18,6.18,0,0,0-4.32-1,4.58,4.58,0,0,0-2.23,1,2.91,2.91,0,0,0-1.07,2.36,3.4,3.4,0,0,0,1.28,2.38,4.61,4.61,0,0,0,2.55,1.08,6.75,6.75,0,0,0,5.31-1.93,8.49,8.49,0,0,0,2.64-5.39,14.19,14.19,0,0,0-.78-6.26,11.53,11.53,0,0,0-3.67-5.46,6,6,0,0,0-3.24-1.28,4.2,4.2,0,0,0-3.36,1.2A2.69,2.69,0,0,0,668,119a3.15,3.15,0,0,0,.51,1.83,4.86,4.86,0,0,0,3,2.07,7,7,0,0,0,6.6-2.21,11.08,11.08,0,0,0,2.57-6.32,15.46,15.46,0,0,0-.65-6.54,9,9,0,0,0-3.87-5,6.63,6.63,0,0,0-6-.63,3.15,3.15,0,0,0-1.94,2.29,3.63,3.63,0,0,0,.68,2.83,4.69,4.69,0,0,0,5,1.33,8.73,8.73,0,0,0,4-2.83,12.67,12.67,0,0,0,3-7.69,12.38,12.38,0,0,0-3.74-9.27c-.33-.31-.59-.53-.77-.67l-.29-.2a14.26,14.26,0,0,1,3.17,4.17,12.18,12.18,0,0,1,1.24,6,12.41,12.41,0,0,1-3,7.38,8.3,8.3,0,0,1-3.76,2.63,4.13,4.13,0,0,1-4.43-1.17,3,3,0,0,1-.55-2.35,2.48,2.48,0,0,1,1.59-1.84,6,6,0,0,1,5.37.61,8.45,8.45,0,0,1,3.57,4.64,15.07,15.07,0,0,1,.59,6.26,10.3,10.3,0,0,1-2.4,5.91,6.36,6.36,0,0,1-5.92,2,4.13,4.13,0,0,1-2.59-1.75,2.14,2.14,0,0,1,.17-2.73,3.48,3.48,0,0,1,2.81-1,5.3,5.3,0,0,1,2.86,1.13,10.86,10.86,0,0,1,3.45,5.13,13.52,13.52,0,0,1,.77,6,7.91,7.91,0,0,1-2.41,5,6.22,6.22,0,0,1-4.82,1.8,3.57,3.57,0,0,1-3.36-2.91,2.41,2.41,0,0,1,.88-1.94,3.92,3.92,0,0,1,2-.93,5.7,5.7,0,0,1,4,.9,7.77,7.77,0,0,1,2.56,2.75,9.72,9.72,0,0,1,1,5.94,17.85,17.85,0,0,1-1,3.79A13.53,13.53,0,0,0,677.52,144.66Z" style="fill:#fafafa"></path><rect x="640.54" y="92.88" width="26" height="51.08" transform="translate(1307.09 236.85) rotate(180)" style="fill:#0692E3"></rect><g style="opacity:0.2"><rect x="640.54" y="92.88" width="26" height="51.08" transform="translate(1307.09 236.85) rotate(180)"></rect></g><path d="M641.44,101.37c0,.2,5.63.35,12.58.35s12.59-.15,12.59-.35S661,101,654,101,641.44,101.18,641.44,101.37Z" style="fill:#e0e0e0"></path><path d="M641.11,105.24c0,.2,5.57.36,12.43.36s12.42-.16,12.42-.36-5.56-.35-12.42-.35S641.11,105.05,641.11,105.24Z" style="fill:#e0e0e0"></path><path d="M640.28,138.19c0,.19,5.86.35,13.08.35s13.08-.16,13.08-.35-5.85-.35-13.08-.35S640.28,138,640.28,138.19Z" style="fill:#e0e0e0"></path><path d="M640.63,133.64c0,.19,5.71.35,12.75.35s12.74-.16,12.74-.35-5.7-.36-12.74-.36S640.63,133.44,640.63,133.64Z" style="fill:#e0e0e0"></path><rect x="540.37" y="97.46" width="7.83" height="46.63" transform="translate(1088.58 241.55) rotate(180)" style="fill:#0692E3"></rect><g style="opacity:0.30000000000000004"><rect x="540.37" y="97.46" width="7.83" height="46.63" transform="translate(1088.58 241.55) rotate(180)"></rect></g><rect x="520.73" y="90.96" width="19.5" height="53.13" transform="translate(1060.97 235.05) rotate(180)" style="fill:#e0e0e0"></rect><path d="M520.51,94.8c0-.17,4.46-.3,10-.3s10,.13,10,.3a171.18,171.18,0,0,1-19.92,0Z" style="fill:#fafafa"></path><path d="M521.59,97.32c0-.17,4.21-.3,9.42-.3s9.42.13,9.42.3a153.14,153.14,0,0,1-18.84,0Z" style="fill:#fafafa"></path><path d="M529.93,133.61c-.17,0-.3-7-.3-15.72s.13-15.72.3-15.72.29,7,.29,15.72S530.09,133.61,529.93,133.61Z" style="fill:#fafafa"></path><path d="M520.73,138.47a157.23,157.23,0,0,1,19.09,0c0,.17-4.27.3-9.54.3S520.73,138.64,520.73,138.47Z" style="fill:#fafafa"></path><path d="M520.73,140.75a165.22,165.22,0,0,1,19.57,0c0,.17-4.38.3-9.78.3S520.73,140.92,520.73,140.75Z" style="fill:#fafafa"></path><rect x="548.08" y="90.96" width="15.67" height="53.13" transform="translate(1111.83 235.05) rotate(180)" style="fill:#0692E3"></rect><path d="M548,115.36a13.81,13.81,0,0,1,2.42,1.5l5.66,3.86,5.64,3.89a14,14,0,0,1,2.27,1.72,14,14,0,0,1-2.5-1.37c-1.5-.92-3.54-2.24-5.75-3.75s-4.17-2.95-5.56-4A13.66,13.66,0,0,1,548,115.36Z" style="fill:#fafafa"></path><path d="M547.91,107a81,81,0,0,1,8,5.82,82.76,82.76,0,0,1,7.64,6.28,81.64,81.64,0,0,1-8-5.82A83.81,83.81,0,0,1,547.91,107Z" style="fill:#fafafa"></path><rect x="613.93" y="105.56" width="9.25" height="11" style="fill:#f5f5f5"></rect><rect x="572.43" y="104.84" width="41.82" height="12.41" style="fill:#263238"></rect><path d="M623.46,105.88H613.12v-1h10.34a.52.52,0,0,1,.52.52h0A.52.52,0,0,1,623.46,105.88Z" style="fill:#263238"></path><path d="M623.46,117.25H613.12v-1h10.34a.52.52,0,0,1,.52.53h0A.52.52,0,0,1,623.46,117.25Z" style="fill:#263238"></path><rect x="606.02" y="104.84" width="4.94" height="12.41" style="fill:#ebebeb"></rect><rect x="576.4" y="104.98" width="4.94" height="12.41" style="fill:#ebebeb"></rect><path d="M623.18,107.38s-2,.05-4.47.05-4.48,0-4.48-.05,2-.06,4.48-.06S623.18,107.34,623.18,107.38Z" style="fill:#e0e0e0"></path><path d="M623.18,109s-2,.06-4.47.06-4.48,0-4.48-.06,2,0,4.48,0S623.18,109,623.18,109Z" style="fill:#e0e0e0"></path><path d="M623.18,111.06s-2,0-4.47,0-4.48,0-4.48,0,2-.06,4.48-.06S623.18,111,623.18,111.06Z" style="fill:#e0e0e0"></path><path d="M623.18,113.09s-2,0-4.47,0-4.48,0-4.48,0,2-.06,4.48-.06S623.18,113.06,623.18,113.09Z" style="fill:#e0e0e0"></path><path d="M623.18,115.12s-2,0-4.47,0-4.48,0-4.48,0,2-.06,4.48-.06S623.18,115.09,623.18,115.12Z" style="fill:#e0e0e0"></path><rect x="584.55" y="109.94" width="18.81" height="2.23" style="fill:#ebebeb"></rect><rect x="613.69" y="117.49" width="9.4" height="6.7" style="fill:#fafafa"></rect><rect x="573.81" y="117.25" width="39.98" height="7.19" style="fill:#455a64"></rect><path d="M613.5,117.73h10.1a.24.24,0,0,0,.25-.24h0a.25.25,0,0,0-.25-.24H613.5Z" style="fill:#455a64"></path><path d="M613.5,124.44h10.1a.25.25,0,0,0,.25-.25h0a.25.25,0,0,0-.25-.24H613.5Z" style="fill:#455a64"></path><path d="M623.08,118.76s-2.08.06-4.64.06-4.65,0-4.65-.06,2.08-.05,4.65-.05S623.08,118.73,623.08,118.76Z" style="fill:#e0e0e0"></path><path d="M623.08,120s-2.08.06-4.64.06-4.65,0-4.65-.06,2.08,0,4.65,0S623.08,120,623.08,120Z" style="fill:#e0e0e0"></path><path d="M623.08,121.3s-2.08.06-4.64.06-4.65,0-4.65-.06,2.08,0,4.65,0S623.08,121.27,623.08,121.3Z" style="fill:#e0e0e0"></path><path d="M623.08,122.57s-2.08.05-4.64.05-4.65,0-4.65-.05,2.08-.06,4.65-.06S623.08,122.54,623.08,122.57Z" style="fill:#e0e0e0"></path><rect x="614.92" y="125.08" width="9.59" height="18.17" style="fill:#ebebeb"></rect><rect x="569.91" y="124.44" width="45.01" height="19.7" style="fill:#0692E3"></rect><path d="M625.26,144.14H613.69v-1.28h11.57a.64.64,0,0,1,.64.64h0A.64.64,0,0,1,625.26,144.14Z" style="fill:#0692E3"></path><path d="M625.26,125.72H613.69v-1.28h11.57a.64.64,0,0,1,.64.64h0A.64.64,0,0,1,625.26,125.72Z" style="fill:#0692E3"></path><path d="M624.51,127.51s-2.15.06-4.79.06-4.8,0-4.8-.06,2.15-.05,4.8-.05S624.51,127.48,624.51,127.51Z" style="fill:#e0e0e0"></path><path d="M624.51,129.84s-2.15.06-4.79.06-4.8,0-4.8-.06,2.15-.05,4.8-.05S624.51,129.81,624.51,129.84Z" style="fill:#e0e0e0"></path><path d="M624.51,132.17s-2.15.06-4.79.06-4.8,0-4.8-.06,2.15,0,4.8,0S624.51,132.14,624.51,132.17Z" style="fill:#e0e0e0"></path><path d="M624.51,134.5s-2.15.06-4.79.06-4.8,0-4.8-.06,2.15-.05,4.8-.05S624.51,134.47,624.51,134.5Z" style="fill:#e0e0e0"></path><path d="M624.51,136.83s-2.15.06-4.79.06-4.8,0-4.8-.06,2.15-.05,4.8-.05S624.51,136.8,624.51,136.83Z" style="fill:#e0e0e0"></path><path d="M624.51,139.16s-2.15.06-4.79.06-4.8,0-4.8-.06,2.15,0,4.8,0S624.51,139.13,624.51,139.16Z" style="fill:#e0e0e0"></path><path d="M624.51,141.49s-2.15.06-4.79.06-4.8,0-4.8-.06,2.15-.05,4.8-.05S624.51,141.46,624.51,141.49Z" style="fill:#e0e0e0"></path><path d="M585.31,135.37v1.09c0,1.32-.66,2.08-1.93,2.08s-1.94-.76-1.94-2.08v-4.29a1.8,1.8,0,0,1,1.94-2.07c1.27,0,1.93.75,1.93,2.07v.8h-1.23v-.88c0-.59-.26-.81-.67-.81s-.67.22-.67.81v4.45c0,.59.26.81.67.81s.67-.22.67-.81v-1.17Z" style="fill:#ebebeb"></path><path d="M586,132.17a2,2,0,1,1,3.94,0v4.29a2,2,0,1,1-3.94,0Zm1.3,4.37c0,.59.26.82.67.82s.67-.23.67-.82v-4.45c0-.59-.26-.81-.67-.81s-.67.22-.67.81Z" style="fill:#ebebeb"></path><path d="M590.77,130.19h1.29v7.07h2.13v1.18h-3.42Z" style="fill:#ebebeb"></path><path d="M594.65,132.17a2,2,0,1,1,3.94,0v4.29a2,2,0,1,1-3.94,0Zm1.3,4.37c0,.59.26.82.67.82s.67-.23.67-.82v-4.45c0-.59-.26-.81-.67-.81s-.67.22-.67.81Z" style="fill:#ebebeb"></path><path d="M600.66,130.19v6.37c0,.59.26.8.68.8s.67-.21.67-.8v-6.37h1.22v6.28c0,1.32-.66,2.08-1.93,2.08s-1.93-.76-1.93-2.08v-6.28Z" style="fill:#ebebeb"></path><path d="M606.83,138.44a2.51,2.51,0,0,1-.12-1v-1.3c0-.76-.26-1-.85-1h-.45v3.36h-1.29v-8.25h2c1.35,0,1.93.63,1.93,1.9v.65a1.65,1.65,0,0,1-.85,1.67c.64.27.86.9.86,1.76v1.27a2.4,2.4,0,0,0,.14,1Zm-1.42-7.07v2.53h.51c.48,0,.78-.21.78-.87v-.81c0-.59-.2-.85-.66-.85Z" style="fill:#ebebeb"></path><path d="M585,120.08h-.95l0-.25h2.17l0,.25h-.94l-.49,2.43h-.28Z" style="fill:#e0e0e0"></path><path d="M588.12,120.5l-1.47,2.27c-.24.39-.43.51-.72.51a.67.67,0,0,1-.48-.18l.14-.2a.49.49,0,0,0,.36.14c.17,0,.31-.08.46-.32l.15-.22-.51-2h.28l.42,1.72,1.1-1.72Z" style="fill:#e0e0e0"></path><path d="M590.36,121.34a1.13,1.13,0,0,1-1.14,1.19.73.73,0,0,1-.76-.44l-.23,1.17H588l.55-2.76h.26l-.06.32a1,1,0,0,1,.78-.33A.81.81,0,0,1,590.36,121.34Zm-.27,0a.6.6,0,0,0-.67-.63.88.88,0,0,0-.86,1,.58.58,0,0,0,.66.62A.88.88,0,0,0,590.09,121.35Z" style="fill:#e0e0e0"></path><path d="M590.68,121.68a1.14,1.14,0,0,1,1.16-1.19.82.82,0,0,1,.92.85,1.15,1.15,0,0,1-1.17,1.19A.83.83,0,0,1,590.68,121.68Zm1.81-.33a.6.6,0,0,0-.67-.63.89.89,0,0,0-.87,1,.58.58,0,0,0,.66.62A.88.88,0,0,0,592.49,121.35Z" style="fill:#e0e0e0"></path><path d="M595.36,120.5l-.35,1.77a1.08,1.08,0,0,1-1.17,1,1.27,1.27,0,0,1-.9-.31l.16-.2a1.11,1.11,0,0,0,.76.26.78.78,0,0,0,.87-.71l0-.23a1,1,0,0,1-.81.35.79.79,0,0,1-.88-.81,1.1,1.1,0,0,1,1.14-1.14.78.78,0,0,1,.79.45l.08-.44Zm-.46.81c0-.37-.24-.59-.66-.59a.86.86,0,0,0-.88.89c0,.37.25.59.67.59A.86.86,0,0,0,594.9,121.31Z" style="fill:#e0e0e0"></path><path d="M597.14,120.49l0,.26H597a.79.79,0,0,0-.81.74l-.21,1h-.27l.4-2h.26l-.07.37A.9.9,0,0,1,597.14,120.49Z" style="fill:#e0e0e0"></path><path d="M599.44,120.5l-.4,2h-.26l.07-.31a1,1,0,0,1-.79.33.81.81,0,0,1-.87-.85,1.13,1.13,0,0,1,1.13-1.19.76.76,0,0,1,.77.43l.08-.42Zm-.45.85a.59.59,0,0,0-.66-.63.89.89,0,0,0-.87,1,.58.58,0,0,0,.66.62A.88.88,0,0,0,599,121.35Z" style="fill:#e0e0e0"></path><path d="M602.06,121.34a1.13,1.13,0,0,1-1.14,1.19.75.75,0,0,1-.77-.44l-.23,1.17h-.27l.55-2.76h.26l-.07.32a1,1,0,0,1,.79-.33A.82.82,0,0,1,602.06,121.34Zm-.28,0a.59.59,0,0,0-.66-.63.89.89,0,0,0-.87,1,.58.58,0,0,0,.66.62A.87.87,0,0,0,601.78,121.35Z" style="fill:#e0e0e0"></path><path d="M604.5,121.14a1,1,0,0,1,0,.23l-.23,1.14H604l.23-1.14a1.37,1.37,0,0,0,0-.19c0-.29-.17-.45-.52-.45a.78.78,0,0,0-.82.7l-.21,1.08h-.28l.57-2.84h.27L603,120.8a1,1,0,0,1,.77-.31A.63.63,0,0,1,604.5,121.14Z" style="fill:#e0e0e0"></path><path d="M607,120.5l-1.47,2.27c-.25.39-.44.51-.73.51a.67.67,0,0,1-.48-.18l.15-.2a.47.47,0,0,0,.35.14c.18,0,.31-.08.47-.32l.14-.22-.5-2h.27l.42,1.72,1.1-1.72Z" style="fill:#e0e0e0"></path><rect x="508.67" y="143.77" width="181.21" height="10.34" style="fill:#455a64"></rect><rect x="674.06" y="143.77" width="15.82" height="10.34" style="fill:#263238"></rect></g><g id="freepik--Lamp--inject-2"><path d="M360.7,117.49a25.78,25.78,0,0,0-.33,2.67,13.21,13.21,0,0,0,1.68,7c.7,1.38,1.62,2.83,2.33,4.55a10,10,0,0,1,.59,5.86,10.49,10.49,0,0,1-3.18,5.69,9.69,9.69,0,0,1-6.51,2.49,10.24,10.24,0,0,1-6.6-2.26A10.29,10.29,0,0,1,345.74,132a19.53,19.53,0,0,1,2.71-4.36,17.42,17.42,0,0,0,2.22-3.51,8.12,8.12,0,0,0,.71-3,5.67,5.67,0,0,0-.61-2.58,2.17,2.17,0,0,1,.37.6,4.85,4.85,0,0,1,.45,2,8.12,8.12,0,0,1-.64,3.14,18.1,18.1,0,0,1-2.19,3.62,19,19,0,0,0-2.6,4.29,9.87,9.87,0,0,0,2.85,10.9,9.79,9.79,0,0,0,6.27,2.13,9.2,9.2,0,0,0,6.16-2.34,10.12,10.12,0,0,0,3.05-5.39,9.5,9.5,0,0,0-.53-5.6c-.67-1.68-1.56-3.14-2.25-4.55a13.09,13.09,0,0,1-1.55-7.19,11.1,11.1,0,0,1,.32-2A3.52,3.52,0,0,1,360.7,117.49Z" style="fill:#e0e0e0"></path><path d="M357,118.45a14,14,0,0,1-.27,1.9,50.25,50.25,0,0,0-.52,5.18,41.62,41.62,0,0,0,.34,7.67,1.7,1.7,0,0,0,.42.86.84.84,0,0,0,.78.29c.56-.12.86-1,.74-1.64a3.22,3.22,0,0,0-6.35-.09,1.43,1.43,0,0,0,.84,1.62,1.26,1.26,0,0,0,1.47-.85,6.38,6.38,0,0,0,.35-2c.05-.68.07-1.35.08-2a31.21,31.21,0,0,0-.15-3.59,34.91,34.91,0,0,0-.86-5.12,15.47,15.47,0,0,1-.45-1.86,2.4,2.4,0,0,1,.2.45c.12.3.27.76.45,1.35a30.2,30.2,0,0,1,1,5.14,33.4,33.4,0,0,1,.22,3.63c0,.65,0,1.33-.06,2a6.91,6.91,0,0,1-.36,2.18,2.19,2.19,0,0,1-.79.95,1.49,1.49,0,0,1-1.3.19,2,2,0,0,1-1.21-2.17,3.75,3.75,0,0,1,7.41.08,2.56,2.56,0,0,1-.16,1.29,1.49,1.49,0,0,1-1,.92,1.37,1.37,0,0,1-1.26-.44,2.23,2.23,0,0,1-.54-1.1,39.83,39.83,0,0,1-.23-7.8,41,41,0,0,1,.69-5.2c.13-.6.24-1.07.33-1.38A2.26,2.26,0,0,1,357,118.45Z" style="fill:#e0e0e0"></path><polygon points="349.23 107.78 304.07 122.94 406.1 122.94 363.7 107.78 349.23 107.78" style="fill:#263238"></polygon><path d="M356.48,30.22a4.76,4.76,0,0,1,0,.78c0,.56,0,1.31.05,2.24,0,2,.05,4.78.09,8.21,0,7,.05,16.54.08,27.09s-.06,20.12-.08,27.1c0,3.43-.07,6.22-.09,8.22,0,.92,0,1.67-.05,2.23a4.76,4.76,0,0,1,0,.78,4,4,0,0,1-.06-.78c0-.56,0-1.31-.05-2.23,0-2-.05-4.79-.08-8.22,0-7-.05-16.54-.08-27.1s.06-20.11.08-27.09c0-3.43.06-6.22.08-8.21,0-.93,0-1.68.05-2.24A4,4,0,0,1,356.48,30.22Z" style="fill:#263238"></path><polygon points="349.23 107.78 352.03 95.24 361.33 95.24 363.7 107.78 349.23 107.78" style="fill:#263238"></polygon></g><g id="freepik--shelf-1--inject-2"><polygon points="177.61 167.45 188.41 201.61 180.59 201.61 177.15 189.83 177.61 167.45" style="fill:#263238"></polygon><rect x="38.17" y="201.58" width="161.25" height="9.64" style="fill:#455a64"></rect><rect x="60.65" y="209.1" width="7.8" height="14.8" style="fill:#455a64"></rect><rect x="161.33" y="209.1" width="7.8" height="14.8" style="fill:#455a64"></rect><path d="M43.65,156.9s-7.23,5.51-.3,12.79a.63.63,0,0,0,.46.2l63.22-.37s5.4-6.06.92-13Z" style="fill:#455a64"></path><path d="M93.06,162.65c0,.07-7.87.13-17.58.13s-17.59-.06-17.59-.13,7.87-.13,17.59-.13S93.06,162.58,93.06,162.65Z" style="fill:#e0e0e0"></path><path d="M83.23,164.94c0,.07-3.71.12-8.27.12s-8.27-.05-8.27-.12,3.7-.13,8.27-.13S83.23,164.87,83.23,164.94Z" style="fill:#e0e0e0"></path><path d="M99.52,169.32s.14-.73.34-1.9a26.44,26.44,0,0,0-.09-9.22c-.22-1.17-.41-1.88-.37-1.89a2,2,0,0,1,.19.49c.1.31.23.78.36,1.36a22.32,22.32,0,0,1,.53,4.64,23.2,23.2,0,0,1-.44,4.65c-.12.59-.24,1.06-.34,1.38A2,2,0,0,1,99.52,169.32Z" style="fill:#e0e0e0"></path><path d="M104.24,156.4a2.11,2.11,0,0,1,.28.46,5.94,5.94,0,0,1,.29.57c.09.23.22.48.32.77a14.61,14.61,0,0,1,.6,2.1A16.57,16.57,0,0,1,106,163a15.77,15.77,0,0,1-.24,2.67,13.84,13.84,0,0,1-.56,2.11c-.1.29-.22.55-.32.77a3.85,3.85,0,0,1-.27.57,2.55,2.55,0,0,1-.27.47s.31-.7.68-1.87a14.56,14.56,0,0,0,.51-2.09,16.49,16.49,0,0,0,.21-2.63,16.06,16.06,0,0,0-.25-2.61,15,15,0,0,0-.54-2.09C104.56,157.1,104.2,156.43,104.24,156.4Z" style="fill:#e0e0e0"></path><path d="M53.63,169.4s-.12-.14-.3-.42a4.87,4.87,0,0,1-.29-.53,5.59,5.59,0,0,1-.34-.73,10.68,10.68,0,0,1-.62-2,12.7,12.7,0,0,1-.24-2.55,13.17,13.17,0,0,1,.31-2.54,11.41,11.41,0,0,1,.67-2,7.77,7.77,0,0,1,.36-.71,3.75,3.75,0,0,1,.31-.52,2.25,2.25,0,0,1,.3-.42c.05,0-.36.64-.8,1.72a11.7,11.7,0,0,0-.61,2,13.61,13.61,0,0,0-.29,2.49,14.81,14.81,0,0,0,.22,2.5,13.36,13.36,0,0,0,.56,2C53.28,168.75,53.67,169.37,53.63,169.4Z" style="fill:#e0e0e0"></path><path d="M46.8,170.94a2.55,2.55,0,0,1-.32-.48,4.3,4.3,0,0,1-.33-.59,8,8,0,0,1-.39-.82,13.63,13.63,0,0,1-.72-2.23,15.4,15.4,0,0,1-.36-2.85,16.13,16.13,0,0,1,.23-2.87,13.59,13.59,0,0,1,.63-2.26,8.81,8.81,0,0,1,.34-.83,5.68,5.68,0,0,1,.31-.61,2.38,2.38,0,0,1,.3-.49s-.36.74-.78,2a15.45,15.45,0,0,0-.57,2.24,16.71,16.71,0,0,0-.2,2.82,16.93,16.93,0,0,0,.33,2.81,15.71,15.71,0,0,0,.66,2.22C46.41,170.22,46.85,170.92,46.8,170.94Z" style="fill:#e0e0e0"></path><path d="M104.71,188.77v12.1H81.3v-12.1Z" style="fill:#ebebeb"></path><path d="M29.1,194.94c0,.1,0,.21,0,.32a6.92,6.92,0,0,0,7,6.49h69.73v-.88H89.25a6.05,6.05,0,0,1-6-6.05h0a6.05,6.05,0,0,1,6-6h16.56v-1.28l-69.75.23A7,7,0,0,0,29.1,194.94Z" style="fill:#0692E3"></path><path d="M104.71,195c0,.08-4.81.13-10.75.13s-10.75-.05-10.75-.13,4.81-.12,10.75-.12S104.71,194.91,104.71,195Z" style="fill:#e0e0e0"></path><path d="M104.38,197.71c0,.07-4.56.13-10.18.13S84,197.78,84,197.71s4.55-.13,10.17-.13S104.38,197.64,104.38,197.71Z" style="fill:#e0e0e0"></path><path d="M104.71,200.2c0,.08-4.09.13-9.14.13s-9.15-.05-9.15-.13,4.1-.12,9.15-.12S104.71,200.13,104.71,200.2Z" style="fill:#e0e0e0"></path><path d="M104.71,192.54c0,.07-4.71.12-10.53.12s-10.53,0-10.53-.12,4.72-.13,10.53-.13S104.71,192.46,104.71,192.54Z" style="fill:#e0e0e0"></path><path d="M104.38,190.09c0,.07-4.2.12-9.38.12s-9.37-.05-9.37-.12S89.82,190,95,190,104.38,190,104.38,190.09Z" style="fill:#e0e0e0"></path><path d="M37.55,187.93a15.32,15.32,0,0,0-1.48,1.76,9.14,9.14,0,0,0-1.59,5.2,9.24,9.24,0,0,0,1.71,5.17,16.68,16.68,0,0,0,1.52,1.72,2.57,2.57,0,0,1-.5-.37A7.76,7.76,0,0,1,36,200.16a8.83,8.83,0,0,1-.12-10.58,8.69,8.69,0,0,1,1.13-1.27A2.43,2.43,0,0,1,37.55,187.93Z" style="fill:#f5f5f5"></path><path d="M35.19,187.67a15.32,15.32,0,0,0-1.48,1.76,9,9,0,0,0,.12,10.37,15.41,15.41,0,0,0,1.52,1.72,2.39,2.39,0,0,1-.5-.37,8.09,8.09,0,0,1-1.16-1.24,8.81,8.81,0,0,1-.13-10.58,7.82,7.82,0,0,1,1.14-1.28A2.27,2.27,0,0,1,35.19,187.67Z" style="fill:#f5f5f5"></path><path d="M82.57,187.93a15.32,15.32,0,0,0-1.48,1.76,9,9,0,0,0,.12,10.37,16.68,16.68,0,0,0,1.52,1.72,2.57,2.57,0,0,1-.5-.37,7.76,7.76,0,0,1-1.17-1.25,8.83,8.83,0,0,1-.12-10.58,8.14,8.14,0,0,1,1.13-1.27A2.43,2.43,0,0,1,82.57,187.93Z" style="fill:#f5f5f5"></path><path d="M80.21,187.67a15.32,15.32,0,0,0-1.48,1.76,9,9,0,0,0,.12,10.37,15.41,15.41,0,0,0,1.52,1.72,2.39,2.39,0,0,1-.5-.37,8.09,8.09,0,0,1-1.16-1.24,8.81,8.81,0,0,1-.13-10.58,7.82,7.82,0,0,1,1.14-1.28A2.27,2.27,0,0,1,80.21,187.67Z" style="fill:#f5f5f5"></path><path d="M45.48,196.64l-.06-4.92a3.62,3.62,0,0,0-.18-1.27,1.17,1.17,0,0,0-.93-.79,1.88,1.88,0,0,0-2,1,4.7,4.7,0,0,0-.48,2.41,33.67,33.67,0,0,0,.19,3.89,4.39,4.39,0,0,0,.46,1.78,1.65,1.65,0,0,0,1.5.9,1.67,1.67,0,0,0,1.31-1.14A4.79,4.79,0,0,0,45.48,196.64Z" style="fill:#f5f5f5"></path><path d="M72.56,195.22c0,.07-5,.13-11.25.13s-11.26-.06-11.26-.13,5-.13,11.26-.13S72.56,195.15,72.56,195.22Z" style="fill:#f5f5f5"></path><polygon points="40.81 187.44 40.68 175.97 46.93 175.97 47.14 187.44 40.81 187.44" style="fill:#f5f5f5"></polygon><path d="M46.56,178a15.43,15.43,0,0,1-2.9.13,15.43,15.43,0,0,1-2.9-.13,17.16,17.16,0,0,1,2.9-.12A17.16,17.16,0,0,1,46.56,178Z" style="fill:#e0e0e0"></path><path d="M46.56,179.78a15.43,15.43,0,0,1-2.9.13,15.43,15.43,0,0,1-2.9-.13,17.16,17.16,0,0,1,2.9-.12A17.16,17.16,0,0,1,46.56,179.78Z" style="fill:#e0e0e0"></path><path d="M46.56,181.56a17.16,17.16,0,0,1-2.9.12,17.16,17.16,0,0,1-2.9-.12,15.43,15.43,0,0,1,2.9-.13A15.43,15.43,0,0,1,46.56,181.56Z" style="fill:#e0e0e0"></path><path d="M46.56,183.33a17.16,17.16,0,0,1-2.9.12,17.16,17.16,0,0,1-2.9-.12,15.43,15.43,0,0,1,2.9-.13A15.43,15.43,0,0,1,46.56,183.33Z" style="fill:#e0e0e0"></path><path d="M46.56,185.1a17.16,17.16,0,0,1-2.9.12,17.16,17.16,0,0,1-2.9-.12,15.43,15.43,0,0,1,2.9-.13A15.43,15.43,0,0,1,46.56,185.1Z" style="fill:#e0e0e0"></path><path d="M40.35,175.67h69.19a32.29,32.29,0,0,1,0,12.4H40.65v-.85h4.21a2,2,0,0,0,2-2v-6.86a2,2,0,0,0-2-2H40.35Z" style="fill:#263238"></path><path d="M56.71,181.88h1.15a.28.28,0,0,1,.13,0,.24.24,0,0,1,.12.21.19.19,0,0,1,0,.08c0,.1,0,.19-.07.29a3.39,3.39,0,0,1-.73,1.31,1.36,1.36,0,0,1-1,.51h-.14a1.16,1.16,0,0,1-.79-.57,2.58,2.58,0,0,1-.34-1.39,3.87,3.87,0,0,1,.14-1,3.27,3.27,0,0,1,.68-1.34,1.42,1.42,0,0,1,1-.55,1,1,0,0,1,.44.1,1.42,1.42,0,0,1,.67.84.26.26,0,0,1,0,.24.23.23,0,0,1-.22.13l-.07,0a.19.19,0,0,1-.16-.15l0,0a1.2,1.2,0,0,0-.13-.28.68.68,0,0,0-.56-.33.69.69,0,0,0-.38.14,2.14,2.14,0,0,0-.63.91,3.44,3.44,0,0,0-.27,1.3,2.21,2.21,0,0,0,.2,1,.65.65,0,0,0,.6.46.84.84,0,0,0,.56-.34,3.21,3.21,0,0,0,.59-1.07H56.7c-.18,0-.27-.12-.28-.28l0-.08A.25.25,0,0,1,56.71,181.88Z" style="fill:#fafafa"></path><path d="M60.64,179.62a.94.94,0,0,1,0,.09c0,.17.32,1.6.81,4.28a.19.19,0,0,1,0,.07.28.28,0,0,1,0,.12.22.22,0,0,1-.2.13h0a.25.25,0,0,1-.2-.17l-.27-1.43H59.33l-.69,1.43s0,0,0,.05a.26.26,0,0,1-.21.12.23.23,0,0,1-.14,0,.25.25,0,0,1-.11-.21.19.19,0,0,1,0-.07c0-.1.11-.26.21-.47,1-2.17,1.59-3.46,1.78-3.85a.28.28,0,0,1,.24-.17A.26.26,0,0,1,60.64,179.62Zm-.31,1-.77,1.62h1.09Z" style="fill:#fafafa"></path><path d="M64.5,184.31H62.41a.2.2,0,0,1-.13,0,.37.37,0,0,1-.12-.26h0c0-.09.19-1.51.58-4.27a.31.31,0,0,1,0-.1.22.22,0,0,1,.22-.15.27.27,0,0,1,.12,0,.23.23,0,0,1,.13.22c0,.19-.07.58-.14,1.17-.24,1.82-.37,2.79-.38,2.89h1.78l.13,0a.23.23,0,0,1,.16.23s0,.06,0,.09A.32.32,0,0,1,64.5,184.31Z" style="fill:#fafafa"></path><path d="M67.35,179.62a.94.94,0,0,1,0,.09c.05.17.32,1.6.81,4.28a.19.19,0,0,1,0,.07.19.19,0,0,1,0,.12.22.22,0,0,1-.2.13h0a.22.22,0,0,1-.19-.17l-.28-1.43H66l-.68,1.43,0,.05a.26.26,0,0,1-.21.12.24.24,0,0,1-.25-.25.19.19,0,0,1,0-.07c0-.1.11-.26.21-.47,1-2.17,1.59-3.46,1.78-3.85a.28.28,0,0,1,.24-.17A.26.26,0,0,1,67.35,179.62Zm-.31,1-.77,1.62h1.09Z" style="fill:#fafafa"></path><path d="M70.67,182.08l.38,1c.21.59.32.91.32.94a.22.22,0,0,1,0,.13.25.25,0,0,1-.21.11.22.22,0,0,1-.2-.17l0-.1c-.12-.26-.3-.75-.56-1.47l-1.18,1.61a.31.31,0,0,1-.22.13.28.28,0,0,1-.13,0,.24.24,0,0,1-.12-.21.13.13,0,0,1,0-.06.51.51,0,0,1,.12-.2c.4-.51.83-1.12,1.31-1.82,0-.14-.1-.27-.14-.4-.45-1.19-.67-1.8-.67-1.84a.28.28,0,0,1,0-.13.23.23,0,0,1,.2-.12.26.26,0,0,1,.24.14l.69,1.87,1.39-1.89a.28.28,0,0,1,.23-.12.24.24,0,0,1,.23.25.6.6,0,0,1,0,.12Z" style="fill:#fafafa"></path><path d="M75.83,179.51l.12,0a.27.27,0,0,1,.13.22c-.34,2.69-.53,4.15-.56,4.37a2.68,2.68,0,0,1-.45,1.14,1.64,1.64,0,0,1-1.39.68,1.56,1.56,0,0,1-.66-.18,1.5,1.5,0,0,1-.74-.65.21.21,0,0,1,0-.12.28.28,0,0,1,0-.12.23.23,0,0,1,.21-.13.25.25,0,0,1,.19.11,1.34,1.34,0,0,0,1.07.6,1,1,0,0,0,.83-.42,2.35,2.35,0,0,0,.46-1.31,1.22,1.22,0,0,1-.31.33,1.26,1.26,0,0,1-.75.24h-.14a1.09,1.09,0,0,1-.79-.56,2.61,2.61,0,0,1-.35-1.39,7.09,7.09,0,0,1,0-.79c0-.42.13-1,.28-1.79a.24.24,0,0,1,0-.08.23.23,0,0,1,.22-.17.28.28,0,0,1,.13,0,.22.22,0,0,1,.12.2c0,.13,0,.44-.11.95a13.52,13.52,0,0,0-.17,1.45,2.8,2.8,0,0,0,.19,1.13c.14.34.35.51.61.51h.09a1.13,1.13,0,0,0,.62-.5,3,3,0,0,0,.52-1.15l.31-2.37a.36.36,0,0,1,0-.11A.22.22,0,0,1,75.83,179.51Z" style="fill:#fafafa"></path><path d="M107,188.23c-.08,0-.13-2.85-.13-6.36s.05-6.36.13-6.36.12,2.85.12,6.36S107,188.23,107,188.23Z" style="fill:#f5f5f5"></path><path d="M50.33,188.23c-.07,0-.13-2.85-.13-6.36s.06-6.36.13-6.36.12,2.85.12,6.36S50.4,188.23,50.33,188.23Z" style="fill:#e0e0e0"></path><path d="M108.16,188.23c-.07,0-.13-2.85-.13-6.36s.06-6.36.13-6.36.13,2.85.13,6.36S108.23,188.23,108.16,188.23Z" style="fill:#f5f5f5"></path><path d="M49.19,188.23c-.07,0-.13-2.85-.13-6.36s.06-6.36.13-6.36.13,2.85.13,6.36S49.26,188.23,49.19,188.23Z" style="fill:#e0e0e0"></path><path d="M90.17,177.6v0l7.31,5.9.06.05-.08,0-1,.25-6.17,1.62h0l-5.59-2.37-1.59-.68-.41-.18-.11,0,0,0h0l.11,0,.42.18,1.59.66,5.61,2.34h0l6.17-1.63,1-.26v.08l-7.3-5.92h0" style="fill:#e0e0e0"></path><polygon points="96.81 182.56 97.21 182.94 97.74 182.82 97.51 183.32 97.78 183.79 97.24 183.72 96.88 184.13 96.78 183.59 96.27 183.37 96.75 183.11 96.81 182.56" style="fill:#e0e0e0"></polygon><polygon points="89.79 184.89 90.07 185.12 90.41 185.02 90.28 185.35 90.47 185.64 90.12 185.62 89.9 185.9 89.81 185.56 89.48 185.43 89.78 185.24 89.79 184.89" style="fill:#e0e0e0"></polygon><polygon points="82.05 181.71 82.48 181.74 82.75 181.4 82.86 181.82 83.27 181.97 82.9 182.2 82.88 182.63 82.55 182.36 82.13 182.47 82.29 182.07 82.05 181.71" style="fill:#e0e0e0"></polygon><polygon points="100.09 177.7 100.52 177.72 100.79 177.38 100.9 177.8 101.31 177.95 100.94 178.19 100.92 178.62 100.59 178.34 100.17 178.46 100.33 178.06 100.09 177.7" style="fill:#e0e0e0"></polygon><polygon points="89.81 177.41 90.09 177.43 90.26 177.21 90.33 177.48 90.59 177.58 90.36 177.72 90.35 178 90.13 177.82 89.87 177.9 89.97 177.64 89.81 177.41" style="fill:#e0e0e0"></polygon><path d="M100.7,178s-2.37-.05-5.29-.17-5.28-.25-5.28-.28,2.37,0,5.29.17S100.7,178,100.7,178Z" style="fill:#e0e0e0"></path><path d="M103.35,175.56H33.18c-.92-2.08-1.14-4.06,0-5.84h70.17A6.74,6.74,0,0,1,103.35,175.56Z" style="fill:#0692E3"></path><rect x="47.71" y="171.39" width="38.02" height="2.13" style="fill:#ebebeb"></rect><path d="M35.87,175.59a2,2,0,0,1-.55-.7,5.21,5.21,0,0,1-.64-2.07,5.1,5.1,0,0,1,.27-2.16,2.16,2.16,0,0,1,.42-.79,6.62,6.62,0,0,1-.25.85,6.07,6.07,0,0,0-.19,2.07,6.15,6.15,0,0,0,.55,2A6,6,0,0,1,35.87,175.59Z" style="fill:#e0e0e0"></path><path d="M37.39,175.59a2,2,0,0,1-.55-.7,5.06,5.06,0,0,1-.64-2.07,4.94,4.94,0,0,1,.27-2.16,2,2,0,0,1,.42-.79,6.62,6.62,0,0,1-.25.85,5.83,5.83,0,0,0-.19,2.07,6.15,6.15,0,0,0,.55,2A6,6,0,0,1,37.39,175.59Z" style="fill:#f5f5f5"></path><path d="M100.52,175.46a12.52,12.52,0,0,0,.49-2.86,12.23,12.23,0,0,0-.46-2.86,5.16,5.16,0,0,1,.71,2.86A5.23,5.23,0,0,1,100.52,175.46Z" style="fill:#f5f5f5"></path><path d="M99.21,175.44c-.08,0,.22-1.25.21-2.79s-.29-2.78-.22-2.8a8.46,8.46,0,0,1,0,5.59Z" style="fill:#f5f5f5"></path><polygon points="129.46 139.37 177.61 139.37 177.61 202.21 129.78 202.21 129.46 139.37" style="fill:#263238"></polygon><rect x="125.96" y="139.68" width="47.88" height="62.2" transform="translate(299.79 341.56) rotate(180)" style="fill:#f5f5f5"></rect><path d="M174.07,139.44v62.68H125.72V139.44Zm-.47,62.2V139.92H126.2v61.72Z" style="fill:#263238"></path><rect x="130.95" y="146.43" width="36.66" height="48.73" style="fill:#fff"></rect><path d="M130.88,146.42v.23c0,.16,0,.39,0,.69,0,.61,0,1.5,0,2.65,0,2.32,0,5.71,0,10,0,8.57,0,20.73.06,35.15l-.11-.11h36.65l-.12.12c0-18.14,0-35,0-48.72l.1.1-26.61-.05-7.41,0h-2l1.94,0,7.38,0,26.68-.05h.11v.1c0,13.76,0,30.58,0,48.72v.13H130.77v-.12c0-14.45,0-26.64,0-35.23,0-4.27,0-7.65,0-10,0-1.15,0-2,0-2.64v-.67A1.76,1.76,0,0,1,130.88,146.42Z" style="fill:#263238"></path><path d="M125.85,201.88a6,6,0,0,1,.64-1c.43-.63,1-1.49,1.72-2.43s1.34-1.76,1.83-2.35a5.89,5.89,0,0,1,.84-.91,6,6,0,0,1-.7,1l-1.77,2.39c-.67.89-1.27,1.7-1.77,2.38A7,7,0,0,1,125.85,201.88Z" style="fill:#263238"></path><path d="M126,139.68a37.24,37.24,0,0,1,2.56,3.3,36.18,36.18,0,0,1,2.36,3.44,35.14,35.14,0,0,1-2.56-3.3A34,34,0,0,1,126,139.68Z" style="fill:#263238"></path><line x1="173.84" y1="139.68" x2="167.53" y2="146.67" style="fill:#fff"></line><path d="M167.53,146.67a44.11,44.11,0,0,1,3.06-3.58,45.24,45.24,0,0,1,3.25-3.41,44.11,44.11,0,0,1-3.06,3.58C169,145.18,167.58,146.71,167.53,146.67Z" style="fill:#263238"></path><path d="M173.84,201.88a40,40,0,0,1-3.1-3.25,38.38,38.38,0,0,1-2.92-3.42,42.11,42.11,0,0,1,3.1,3.25A44.61,44.61,0,0,1,173.84,201.88Z" style="fill:#263238"></path><path d="M132.63,195.14s4-12.22,6.29-13.51a22.36,22.36,0,0,1,10.29-2.79c5.43-.05,8,.35,11.2,2.54,3.67,2.53,6.16,13.64,6.16,13.64" style="fill:#0692E3"></path><path d="M145.07,178.26v-.08c-3.4-.44-5-3.72-5.19-7.64a48.46,48.46,0,0,1-.06-6.75,35,35,0,0,1,1.14-7.88,9.6,9.6,0,0,1,8-3.06c5.2.39,7.89,7.36,7.89,7.36s0,10.61-.34,12.76a17.82,17.82,0,0,0-.27,2.91l-.12,2.62a5.51,5.51,0,0,1-5.5,5.26h0A5.51,5.51,0,0,1,145.07,178.26Z" style="fill:#ffbe9d"></path><path d="M156.55,166.88c.09,0,3.65-1.11,3.56,2.53s-3.73,2.8-3.73,2.7S156.55,166.88,156.55,166.88Z" style="fill:#ffbe9d"></path><path d="M157.53,170.75s.06.05.16.1a.64.64,0,0,0,.48,0,1.57,1.57,0,0,0,.76-1.39,2.05,2.05,0,0,0-.16-.91.73.73,0,0,0-.46-.5.33.33,0,0,0-.38.17c-.05.1,0,.17-.05.18s-.08-.07,0-.22A.36.36,0,0,1,158,168a.44.44,0,0,1,.35-.08.89.89,0,0,1,.65.58,2.22,2.22,0,0,1,.19,1,1.65,1.65,0,0,1-1,1.55.68.68,0,0,1-.58-.12C157.53,170.84,157.51,170.76,157.53,170.75Z" style="fill:#eb996e"></path><path d="M141.88,165.93c.1.1.7-.35,1.55-.35s1.48.42,1.58.31-.06-.23-.33-.43a2.19,2.19,0,0,0-1.26-.37,2.07,2.07,0,0,0-1.24.4C141.92,165.7,141.84,165.88,141.88,165.93Z" style="fill:#263238"></path><path d="M150.24,165.78c.1.11.7-.34,1.55-.35s1.49.42,1.58.32-.06-.24-.33-.43a2.12,2.12,0,0,0-1.26-.38,2.17,2.17,0,0,0-1.24.41C150.28,165.55,150.2,165.74,150.24,165.78Z" style="fill:#263238"></path><path d="M151.13,163.06c0,.18.56.2,1.12.38s1,.44,1.15.32,0-.23-.13-.43a1.84,1.84,0,0,0-.82-.52,1.8,1.8,0,0,0-1,0C151.23,162.86,151.11,163,151.13,163.06Z" style="fill:#263238"></path><path d="M142.42,162.72c.15.17.69.19,1.22.06s.84-.37.7-.54a1.59,1.59,0,0,0-1.23-.05C142.58,162.32,142.27,162.56,142.42,162.72Z" style="fill:#263238"></path><path d="M148.21,172.3s.1.14.33.17a1.21,1.21,0,0,0,1.3-1c0-.22,0-.36-.08-.36s-.19.48-.62.8S148.23,172.2,148.21,172.3Z" style="fill:#263238"></path><path d="M145.07,178.18s4.36.07,5.39-.69c0,0-.66,2.1-5.28,1.88Z" style="fill:#eb996e"></path><path d="M137.67,159.53c0-.86-.31-1.69-.32-2.55a4.63,4.63,0,0,1,1.56-3.38,5.46,5.46,0,0,1,3.5-1.34,25,25,0,0,0,2.87,0,24,24,0,0,0,2.34-.68,5.94,5.94,0,0,1,4.81.9,16.65,16.65,0,0,1,3.73,3.36s3.73.11,3.56,5.34-.54,5.87-.54,5.87l-1.22-.38a2.56,2.56,0,0,1-.12,1.77,1,1,0,0,1-.84.5c-.72,0-1-.87-1-1.54-.22-1.78-.35-3.56-.4-5.35,0-.5-.13-1.14-.61-1.25a1.81,1.81,0,0,0-.85.16,1.59,1.59,0,0,1-1.59-.5c-.06.68-1,1-1.61.7a3.23,3.23,0,0,1-1.31-1.53,2.86,2.86,0,0,1-.09,1.13.94.94,0,0,1-.85.65c-.44,0-.74-.45-1-.84a10.62,10.62,0,0,1-1-3,6.35,6.35,0,0,1-2.64,4c-.15-.46-.3-.92-.46-1.37a2.81,2.81,0,0,1-.63.74,1,1,0,0,1-.93.12.62.62,0,0,1-.31-.58,1.06,1.06,0,0,1-1.38.35,1.09,1.09,0,0,1-.41-.44,33.08,33.08,0,0,1-.14,8.09l-1.23-2.76a10.79,10.79,0,0,1-.89-5.23A6.68,6.68,0,0,0,137.67,159.53Z" style="fill:#263238"></path><path d="M155.9,156.59s.07-.24.26-.58a2.29,2.29,0,0,1,2.58-1.08c.38.1.59.24.6.22s0-.05-.14-.11a2.22,2.22,0,0,0-.43-.2,2.26,2.26,0,0,0-1.55.06,2.35,2.35,0,0,0-1.14,1.07,1.72,1.72,0,0,0-.16.44C155.9,156.52,155.89,156.59,155.9,156.59Z" style="fill:#263238"></path><path d="M155.44,156.48s.06,0,.16-.11a2.88,2.88,0,0,0,1-2,3,3,0,0,0-.41-1.68,2.49,2.49,0,0,0-.32-.42c-.08-.09-.14-.14-.14-.13s.17.21.38.59a3.18,3.18,0,0,1,.36,1.63,3.08,3.08,0,0,1-.54,1.58C155.64,156.29,155.42,156.46,155.44,156.48Z" style="fill:#263238"></path><path d="M146.56,167.82c-.05,0-.15.17-.27.49-.06.15-.13.34-.2.55l-.1.34a1.42,1.42,0,0,0-.08.41.59.59,0,0,0,.17.48.68.68,0,0,0,.41.21.84.84,0,0,0,.39,0,1,1,0,0,0,.28-.14c.29-.24.38-.43.35-.47s-.22.09-.5.23a.69.69,0,0,1-.45.06.39.39,0,0,1-.2-.11.31.31,0,0,1-.06-.21,1.09,1.09,0,0,1,.07-.32l.08-.34c0-.22.08-.41.11-.58C146.61,168,146.61,167.83,146.56,167.82Z" style="fill:#263238"></path><path d="M157.85,162.1a.79.79,0,0,0,.05-.25c0-.17,0-.41.07-.71a8.13,8.13,0,0,0-.12-2.34,4,4,0,0,0-1.15-2,2.27,2.27,0,0,0-.59-.4.75.75,0,0,0-.24-.09,4.22,4.22,0,0,1,.77.56,4.17,4.17,0,0,1,1.08,2,9.3,9.3,0,0,1,.16,2.3A7.84,7.84,0,0,0,157.85,162.1Z" style="fill:#455a64"></path><path d="M154.7,160.75a2.2,2.2,0,0,0,.43-.53,4.88,4.88,0,0,0,.75-3.13,1.86,1.86,0,0,0-.14-.66s0,.26,0,.67a5.62,5.62,0,0,1-.15,1.59,5.89,5.89,0,0,1-.59,1.48A5.72,5.72,0,0,0,154.7,160.75Z" style="fill:#455a64"></path><path d="M146.84,157.53a.6.6,0,0,0,0-.13v-.35a10.82,10.82,0,0,1,.1-1.31,3.91,3.91,0,0,1,.71-1.77,2.4,2.4,0,0,1,.86-.71,3.24,3.24,0,0,1,1.16-.33,4.67,4.67,0,0,1,2.3.42,5.67,5.67,0,0,1,.88.52,5.92,5.92,0,0,1,.68.6,5,5,0,0,1,.76,1.06c.15.27.21.43.22.43s0-.05,0-.12a2.72,2.72,0,0,0-.13-.34,4.64,4.64,0,0,0-.75-1.09,4.51,4.51,0,0,0-.67-.62,5.68,5.68,0,0,0-.9-.55,4.67,4.67,0,0,0-2.36-.44,3.25,3.25,0,0,0-1.21.34,2.66,2.66,0,0,0-.9.75,4,4,0,0,0-.7,1.83,9.82,9.82,0,0,0-.06,1.33c0,.15,0,.27,0,.35S146.83,157.53,146.84,157.53Z" style="fill:#455a64"></path><path d="M142.66,158.33s0,0,0-.13l.08-.36c.07-.31.17-.77.33-1.32a8,8,0,0,1,.77-1.86,4.15,4.15,0,0,1,1.76-1.65,5.37,5.37,0,0,1,2.39-.49,9.4,9.4,0,0,1,2,.25c.56.12,1,.25,1.33.33l.36.09a.37.37,0,0,0,.13,0l-.13-.05-.35-.12c-.31-.1-.75-.24-1.32-.37a8.78,8.78,0,0,0-2-.28,5.31,5.31,0,0,0-2.44.49,4.12,4.12,0,0,0-1.81,1.71,7.61,7.61,0,0,0-.76,1.89c-.15.56-.23,1-.29,1.34,0,.16,0,.28-.06.37A1.16,1.16,0,0,0,142.66,158.33Z" style="fill:#455a64"></path><path d="M140.61,159s0-.41-.08-1.05a5.66,5.66,0,0,1,.27-2.48,2.83,2.83,0,0,1,.77-1.11,2.19,2.19,0,0,1,2-.48s0,0-.06,0l-.21-.06a1.61,1.61,0,0,0-.77,0,2.32,2.32,0,0,0-1,.49,3,3,0,0,0-.81,1.16,5.29,5.29,0,0,0-.24,2.53c0,.33.08.59.11.77A1.18,1.18,0,0,0,140.61,159Z" style="fill:#455a64"></path><path d="M152.32,169.9s.05-.09,0-.19-.07-.17-.1-.16-.05.09,0,.19S152.28,169.91,152.32,169.9Z" style="fill:#eb996e"></path><path d="M150.8,169.58s.08,0,.1-.08,0-.12,0-.13-.08,0-.1.08S150.76,169.57,150.8,169.58Z" style="fill:#eb996e"></path><path d="M151.57,170.5s.07-.07.08-.17,0-.18-.05-.18-.07.07-.08.17S151.53,170.5,151.57,170.5Z" style="fill:#eb996e"></path><path d="M153.49,170.33s0-.1,0-.2-.08-.17-.12-.16,0,.1,0,.2S153.45,170.34,153.49,170.33Z" style="fill:#eb996e"></path><path d="M150.74,167.35a.78.78,0,0,0,.69.85.76.76,0,0,0,.87-.64.8.8,0,0,0-.69-.85A.76.76,0,0,0,150.74,167.35Z" style="fill:#263238"></path><path d="M142.8,167.35a.8.8,0,0,0,.69.85.76.76,0,0,0,.87-.64.78.78,0,0,0-.69-.85A.76.76,0,0,0,142.8,167.35Z" style="fill:#263238"></path><path d="M199,211.22c0,.14-35.91.26-80.2.26s-80.21-.12-80.21-.26S74.5,211,118.8,211,199,211.07,199,211.22Z" style="fill:#263238"></path></g><g id="freepik--character-3--inject-2"><path d="M487.16,356.55h48.31a0,0,0,0,1,0,0v92.39a0,0,0,0,1,0,0H475.55a0,0,0,0,1,0,0V368.16A11.61,11.61,0,0,1,487.16,356.55Z" style="fill:#455a64"></path><path d="M549.55,289.12l-6.43,61.3c-1.09,10.42-.57,26,16,26.93h0c14.43-.23,19.47-13.41,20.48-23.14.48-4.61.89-8.46,1-8.93,0,0,15.76.17,18.5-15.16,1.33-7.41,2.82-22.88,4-36.9a29,29,0,0,0-24.15-31l-1.48-.25C561.3,260.21,550.82,273,549.55,289.12Z" style="fill:#ffbe9d"></path><path d="M580.56,345.28a37.58,37.58,0,0,1-19-9.24s3,12,18.56,13.2Z" style="fill:#eb996e"></path><path d="M576.07,297.11c-.33.29-2-1.31-4.57-1.62s-4.63.78-4.87.42c-.12-.16.25-.7,1.15-1.21a6.42,6.42,0,0,1,4-.74,6.26,6.26,0,0,1,3.59,1.69C576,296.37,576.24,297,576.07,297.11Z" style="fill:#263238"></path><path d="M575.81,303.05a2.1,2.1,0,0,1-2.34,1.76,2,2,0,0,1-1.83-2.23,2.1,2.1,0,0,1,2.35-1.76A2,2,0,0,1,575.81,303.05Z" style="fill:#263238"></path><path d="M580.89,315.71a16.5,16.5,0,0,1,4,0c.62,0,1.21,0,1.38-.38a3.11,3.11,0,0,0-.11-1.85c-.32-1.56-.66-3.18-1-4.89-1.39-7-2.28-12.62-2-12.67s1.63,5.53,3,12.48c.32,1.71.64,3.34.94,4.9a3.62,3.62,0,0,1-.08,2.42,1.55,1.55,0,0,1-1.14.71,3.57,3.57,0,0,1-1.05,0C582.37,316.09,580.88,315.85,580.89,315.71Z" style="fill:#263238"></path><path d="M575.87,287.28c-.3.55-2.34-.07-4.83-.17s-4.58.25-4.82-.33c-.1-.27.33-.76,1.22-1.2a8,8,0,0,1,3.73-.69,7.8,7.8,0,0,1,3.62,1.07C575.63,286.48,576,287,575.87,287.28Z" style="fill:#263238"></path><path d="M600,294.34c-.32.45-2.29-.26-4.73-.56s-4.5-.18-4.71-.69c-.1-.24.35-.63,1.23-.92a8.56,8.56,0,0,1,3.68-.26,8.77,8.77,0,0,1,3.52,1.22C599.8,293.64,600.15,294.13,600,294.34Z" style="fill:#263238"></path><path d="M548.91,300.7c-.25-.16-10-4.88-11.45,5.68s9.48,9.8,9.54,9.49S548.91,300.7,548.91,300.7Z" style="fill:#ffbe9d"></path><path d="M544.31,311.44s-.2.11-.53.21a1.85,1.85,0,0,1-1.38-.16c-1.06-.55-1.76-2.45-1.56-4.36a6.12,6.12,0,0,1,.87-2.56,2.12,2.12,0,0,1,1.57-1.23,1,1,0,0,1,1,.65c.1.31,0,.51.06.54s.25-.15.22-.59a1.23,1.23,0,0,0-.33-.72,1.38,1.38,0,0,0-1-.4,2.59,2.59,0,0,0-2.14,1.37,6.4,6.4,0,0,0-1,2.86c-.21,2.14.61,4.27,2.07,4.92a2,2,0,0,0,1.72-.06C544.26,311.7,544.34,311.47,544.31,311.44Z" style="fill:#eb996e"></path><path d="M577.72,322.82c.14-.26-1.88-1.07-3.16-3.15a11.74,11.74,0,0,1-1.21-2.91c-.24-.79-.43-1.3-.55-1.27s-.13.54,0,1.4a7.91,7.91,0,0,0,1.08,3.22,6.27,6.27,0,0,0,2.52,2.32C577.14,322.84,577.68,322.91,577.72,322.82Z" style="fill:#263238"></path><path d="M536.4,282.25c2.55-3.54,3.48-7.95,5.07-12s4.31-8.16,8.54-9.24l.09.05c3.8-1.14,8.33-.74,11.11,2.09,1.26-5.44,6.48-9.36,12-10.27s14,.72,19,3.27c3.84,2,7.39,5.61,11.63,10.87a52.85,52.85,0,0,1,4.8,7.06L612,288.93l-4.7,7.2c-.29.49-.58,1-.93,1.47v0l-5.08,15.62c.17-4.37,1.88-19.47,2.06-23.85a24.28,24.28,0,0,1-16.55-9.58c-2.14-2.85-3.7-6.32-6.73-8.18-3.91-2.41-8.93-1.38-13.39-.28l.2-.15a19.44,19.44,0,0,0-6.38,3.77,60.51,60.51,0,0,1-5,25.28c-.52,1.2-1.86,3.64-3.11,4-2.47.7-2.88-1.78-4.2-3.2-1-1-2.51-1.31-4.22-1.46a93.66,93.66,0,0,1-1.9-11.27,9.64,9.64,0,0,1-4.47-.11c.55-1.05,1.11-2.1,1.67-3.15a5.14,5.14,0,0,1-2,.69,1.75,1.75,0,0,1-1.73-1C535.23,283.87,535.87,283,536.4,282.25Z" style="fill:#263238"></path><path d="M565.91,265.36a13.14,13.14,0,0,0-1.68,1.27,11.17,11.17,0,0,0-2.85,4.91,19.7,19.7,0,0,0-.75,3.9c-.14,1.42-.17,2.95-.21,4.57a39.46,39.46,0,0,1-.35,5.08,18.17,18.17,0,0,1-.59,2.64,5.71,5.71,0,0,1-1.33,2.49,2.34,2.34,0,0,1-2.25.53,3.47,3.47,0,0,1-1.86-1.29,8,8,0,0,1-1.13-4.06l.32.07a13.34,13.34,0,0,1-2.18,3.06,4.62,4.62,0,0,1-3.15,1.36,2.92,2.92,0,0,1-1.57-.43,2.63,2.63,0,0,1-1-1.16,2.75,2.75,0,0,1-.2-1.4,1.93,1.93,0,0,1,.61-1.16l.15.16a10.1,10.1,0,0,1-3.55,2.19,8.58,8.58,0,0,1-1.06.3,1.83,1.83,0,0,1-.38.06l.36-.12c.24-.07.59-.18,1-.35a10.41,10.41,0,0,0,3.44-2.24l.15.17a2,2,0,0,0-.32,2.28,2.3,2.3,0,0,0,.89,1,2.74,2.74,0,0,0,1.43.36,4.29,4.29,0,0,0,2.93-1.29,12.9,12.9,0,0,0,2.1-3l.27-.47,0,.54a7.83,7.83,0,0,0,1.08,3.89A3.11,3.11,0,0,0,556,290.4a1.94,1.94,0,0,0,1.91-.45,5.29,5.29,0,0,0,1.23-2.33,17.26,17.26,0,0,0,.59-2.59,40.15,40.15,0,0,0,.37-5c0-1.62.08-3.16.24-4.6a19.35,19.35,0,0,1,.81-3.93,11,11,0,0,1,3-4.94A6.35,6.35,0,0,1,565.91,265.36Z" style="fill:#455a64"></path><path d="M612.33,284.8s0,0-.14.1l-.41.25a5.46,5.46,0,0,1-.69.35,7.43,7.43,0,0,1-1,.41,13.69,13.69,0,0,1-6.72.58,17.6,17.6,0,0,1-9-4.3,30.57,30.57,0,0,1-7.16-10c-1-2-1.69-4-2.54-5.84a20.3,20.3,0,0,0-3-5,10.58,10.58,0,0,0-4.2-3.12,7.75,7.75,0,0,0-2.32-.48,8.19,8.19,0,0,0-2.19.21,9.06,9.06,0,0,0-3.4,1.64,8.87,8.87,0,0,0-1.95,2.11,11,11,0,0,0-1,2.24l0-.16c0-.13.07-.28.12-.47a7.57,7.57,0,0,1,.75-1.69,9,9,0,0,1,1.94-2.19,9.19,9.19,0,0,1,3.47-1.73,8.25,8.25,0,0,1,2.26-.24,7.76,7.76,0,0,1,2.42.48,10.93,10.93,0,0,1,4.35,3.18,20.89,20.89,0,0,1,3.09,5.09c.85,1.88,1.59,3.88,2.54,5.84a30.46,30.46,0,0,0,7.05,9.88,17.46,17.46,0,0,0,8.83,4.3,14,14,0,0,0,6.64-.46A20.32,20.32,0,0,0,612.33,284.8Z" style="fill:#455a64"></path><path d="M599.58,300.26c-.34.29-2-1.31-4.57-1.62s-4.63.78-4.87.42c-.12-.16.25-.7,1.15-1.21a6.46,6.46,0,0,1,3.94-.74,6.33,6.33,0,0,1,3.59,1.69C599.54,299.53,599.74,300.14,599.58,300.26Z" style="fill:#263238"></path><path d="M597.38,305.05a2.09,2.09,0,0,1-2.35,1.76,2,2,0,0,1-1.82-2.22,2.09,2.09,0,0,1,2.34-1.76A2,2,0,0,1,597.38,305.05Z" style="fill:#263238"></path><path d="M607.51,272.17c1.13,1.87,3,3.66,5.17,3.66a17.34,17.34,0,0,0,2.38-.44c.7.54.25,3.11-.34,3.77a13.72,13.72,0,0,1-1.8,1.5c2.39,1.63,4.78,1.21,7.59.5a13.38,13.38,0,0,1-9,9.81c-1.42.43-3.11.57-4.27-.36a5.36,5.36,0,0,1-1.52-3.52,58.26,58.26,0,0,1-.41-14.39Z" style="fill:#263238"></path><path d="M578.93,359.65s9.75,4,15.31,17.47c3.91,9.49,25.61,39.44,25.61,39.44l57.71,12.82,2,18.4L587.23,447,574.4,406.18Z" style="fill:#0692E3"></path><path d="M568.94,448.94l14.57-79.25-3.06-10.81,2-9.14s-23-9.23-39.73-15.84l-2.7,8.74-10.25,4.3c-9.48,4-21.61,13.12-25.67,22.56-9.77,22.71-21.07,38.79-21.07,79.15" style="fill:#0692E3"></path><path d="M582.5,366.1a4.41,4.41,0,0,1-.09.84c-.09.6-.2,1.39-.35,2.38-.32,2.07-.81,5.06-1.47,8.74-1.3,7.37-3.26,17.52-5.6,28.69s-4.56,21.27-6.22,28.57c-.83,3.6-1.51,6.53-2,8.63-.24,1-.43,1.75-.57,2.34a4.35,4.35,0,0,1-.24.81,4.29,4.29,0,0,1,.12-.83l.47-2.36c.44-2.11,1.06-5.06,1.81-8.68,1.56-7.37,3.7-17.45,6.06-28.59s4.36-21.31,5.76-28.65c.69-3.63,1.25-6.59,1.65-8.71.19-1,.34-1.77.46-2.36A4.49,4.49,0,0,1,582.5,366.1Z" style="fill:#263238"></path><g style="opacity:0.30000000000000004"><path d="M518.18,391.77c5.37,23.24,21.81,44.06,43.69,53.54A517.64,517.64,0,0,1,518.18,391.77Z"></path></g><g style="opacity:0.30000000000000004"><path d="M581.12,374.08c2.12,9.84.54,22.13-4.4,30.9l-1.23-2.55c1.75-7.39,4.24-20.51,5.63-28.35"></path></g><path d="M676.45,430.28c.5-.75,7-8.21,8.71-8.21s3.73,2,3.73,2,2.24-1,3.73-.49,8.46,6.46,8.46,8.7V436a9.72,9.72,0,0,1,0,3c-.25,1.74-4.48,4.72-4.48,4.72H672.73s-4.56-3.07-4-6S676.45,430.28,676.45,430.28Z" style="fill:#ffbe9d"></path><path d="M688.89,424.06a10.21,10.21,0,0,1,1.49.85l4,2.49a13.21,13.21,0,0,1,1.3.89,3.38,3.38,0,0,1,1,1.49,7.29,7.29,0,0,1,.22,1.84c0,.62.07,1.25.1,1.9.13,2.61.26,5.46.41,8.46l.06,1.36v.23l-.23.06-1.46.36h-.07a3.07,3.07,0,0,1-1.87-.7,5.32,5.32,0,0,1-1.21-1.45,12.68,12.68,0,0,1-1.25-3.21,27.86,27.86,0,0,1-.82-5.74l.13.18-4.18-1.65a9.35,9.35,0,0,1-1.49-.67,9.76,9.76,0,0,1,1.57.47l4.24,1.47.12.05v.13a29.67,29.67,0,0,0,.92,5.63,12.38,12.38,0,0,0,1.22,3.06,3.28,3.28,0,0,0,2.62,1.86h-.08l1.46-.36-.22.29-.06-1.35c-.13-3-.25-5.85-.36-8.47,0-.65,0-1.28-.08-1.9a6.62,6.62,0,0,0-.16-1.72,3.06,3.06,0,0,0-.81-1.3,11.94,11.94,0,0,0-1.23-.88l-3.84-2.64A9,9,0,0,1,688.89,424.06Z" style="fill:#eb996e"></path><path d="M672.73,442.86a8,8,0,0,1,1.6-.21l4.35-.35h.07a47.76,47.76,0,0,0,4.91.89,26.26,26.26,0,0,0,2.87.23,3.17,3.17,0,0,0,2.62-.75,2.31,2.31,0,0,0,.42-1.46c0-.54-.08-1.08-.1-1.68a2.07,2.07,0,0,0-.65-1.22,5.08,5.08,0,0,0-1.18-.89,9.09,9.09,0,0,0-5.12-.9,4,4,0,0,1-3.38-1.36,1.79,1.79,0,0,1-.45-1.27,4.2,4.2,0,0,0,.62,1.13,3.86,3.86,0,0,0,3.2,1.09,9.22,9.22,0,0,1,5.39.85,5.47,5.47,0,0,1,1.32,1,2.58,2.58,0,0,1,.82,1.6c0,.51.11,1.09.1,1.69a2.81,2.81,0,0,1-.54,1.81,2.56,2.56,0,0,1-1.5.86,6.64,6.64,0,0,1-1.59.1,26.86,26.86,0,0,1-2.92-.26,45.78,45.78,0,0,1-5-1h.06l-4.36.16A7.49,7.49,0,0,1,672.73,442.86Z" style="fill:#eb996e"></path><path d="M697.06,442.75a42.57,42.57,0,0,1,1.93-4.33c1.07-2.38,2-4.28,2.2-4.21a20.33,20.33,0,0,1-1.68,4.46C698.44,441.07,697.2,442.85,697.06,442.75Z" style="fill:#eb996e"></path><path d="M516.93,390.08s42.07,57.27,48.65,57.27h61.47V424.06l-46.49-11s-22.89-47.37-27.95-53.45-18.61-14.23-28.73-5.12S516.93,390.08,516.93,390.08Z" style="fill:#0692E3"></path><path d="M627,426.31l10.07-.8s.22-3.74,2.42-5.06,2-4.18,3.3-4a5.76,5.76,0,0,0,2.2,0l8.35-7,7-4.62,5.49-1.1s3.3.88,0,4l-3.51,2-3.08,3.07,7-3.45a2.41,2.41,0,0,1,2.08,0,30.38,30.38,0,0,1,5.4,3,1.52,1.52,0,0,1,0,2.2l3.08,2.64s.66,3.52-2.86,2.64l-2.86-.66-3.74,3.74s12.75-2.64,13.63-2.2,2,2.42,0,4.18-9.67,1.32-11.43,3.07-13.39,12.38-16.24,13-26.32,6.39-26.32,6.39Z" style="fill:#ffbe9d"></path><path d="M676.87,417.15a13.86,13.86,0,0,1-1.73-1.22c-.53-.39-1.16-.85-1.87-1.33-.35-.24-.73-.49-1.12-.73a2.57,2.57,0,0,0-1.18-.48,7.14,7.14,0,0,0-2.46,1c-.76.41-1.43.8-2,1.13a9.5,9.5,0,0,1-1.86,1,6.45,6.45,0,0,1,1.64-1.37c.54-.37,1.2-.8,2-1.24.38-.23.77-.45,1.2-.67a3.53,3.53,0,0,1,1.5-.47,1.32,1.32,0,0,1,.46.06,3.34,3.34,0,0,1,.38.15c.23.12.45.24.65.37q.62.39,1.14.78c.7.51,1.31,1,1.81,1.44C676.39,416.46,676.93,417.09,676.87,417.15Z" style="fill:#eb996e"></path><path d="M646,415.64c.09.14-1,1-2.17,2.21s-2.22,2.16-2.35,2a7.72,7.72,0,0,1,1.95-2.45A6.55,6.55,0,0,1,646,415.64Z" style="fill:#eb996e"></path><path d="M552.61,359.65A28.52,28.52,0,0,1,555,363.2c1.45,2.4,3.5,6,6,10.64,5,9.29,11.77,22.75,19.77,39.15l-.16-.13,46.49,10.93.22,0v.22c0,7.49,0,15.31,0,23.29v.29h-3.08l-52.25,0h-5.94a5.2,5.2,0,0,1-.77,0,2.62,2.62,0,0,1-.76-.26,8.2,8.2,0,0,1-1.28-.77,25.21,25.21,0,0,1-2.24-1.84,109.91,109.91,0,0,1-7.67-8c-4.71-5.37-8.9-10.55-12.68-15.3-7.56-9.51-13.47-17.36-17.53-22.8l-4.64-6.3-1.19-1.65c-.26-.37-.38-.57-.38-.57s.15.17.43.54l1.23,1.61,4.73,6.23c4.12,5.4,10.07,13.22,17.66,22.69,3.81,4.73,8,9.88,12.73,15.23a109.21,109.21,0,0,0,7.65,7.95,24,24,0,0,0,2.2,1.8,7.07,7.07,0,0,0,1.2.72,2.39,2.39,0,0,0,1.31.24H572l52.25,0h2.79l-.29.29c0-8,0-15.8,0-23.29l.21.28-46.47-11-.12,0,0-.11c-7.94-16.41-14.7-29.91-19.58-39.23-2.43-4.67-4.43-8.27-5.84-10.7-.73-1.19-1.27-2.13-1.71-2.7S552.61,359.65,552.61,359.65Z" style="fill:#263238"></path><path d="M546.49,355.91c0,.1-1.44-.47-3.8-1a29.64,29.64,0,0,0-4.18-.64,33.37,33.37,0,0,0-5.18,0,32.07,32.07,0,0,0-5.09.93,30,30,0,0,0-4,1.41c-2.21,1-3.48,1.78-3.54,1.69a3.88,3.88,0,0,1,.85-.64,19.13,19.13,0,0,1,2.52-1.42,26.08,26.08,0,0,1,4-1.55,27.5,27.5,0,0,1,10.46-1,26.14,26.14,0,0,1,4.24.77,18.68,18.68,0,0,1,2.75.93A3.74,3.74,0,0,1,546.49,355.91Z" style="fill:#263238"></path><path d="M572.1,423.69a16.36,16.36,0,0,1,3.14-5.41,16.08,16.08,0,0,1,4.58-4.27c.11.14-2,1.95-4.13,4.63S572.26,423.77,572.1,423.69Z" style="fill:#263238"></path><path d="M570.69,416.55a9.23,9.23,0,0,1,4-2.37,9.43,9.43,0,0,1,4.58-.7c0,.17-2,.39-4.39,1.25S570.79,416.69,570.69,416.55Z" style="fill:#263238"></path><path d="M621,447.8l86.12,1.14,27.73-77.75a3.27,3.27,0,0,0-1.73-4.14h0a3.26,3.26,0,0,0-4.38,1.85l-27.32,73.62-80.44.8a2.23,2.23,0,0,0-2.21,2.24h0A2.23,2.23,0,0,0,621,447.8Z" style="fill:#263238"></path></g><g id="freepik--character-2--inject-2"><polygon points="385.15 329.25 376.23 325.96 342.11 324.95 334.19 327.11 335.22 346.4 353.13 357.82 370.5 357.47 381.42 347.52 383.85 337.66 385.15 329.25" style="fill:#936760"></polygon><path d="M283.93,358.81a116.52,116.52,0,0,1,7.15-12.76,29.48,29.48,0,0,1,18.38-12.94l28.63-7.76s2,19.31,21.64,19.31,20.09-17.88,20.09-17.88L415.87,340c1.14.44,8.82,3.1,17.76,22.27,8.52,18.26,12.24,27.6,12.24,27.6l-34,9.14-2.26,31.42.72,17.53-103.59-.23.58-20-.47-33.14-2.18,4.09-32.34-13S275.55,376.08,283.93,358.81Z" style="fill:#0692E3"></path><path d="M306.36,377.36c-.16,0-.06,11.11.2,24.79s.61,24.79.76,24.78.06-11.1-.21-24.79S306.51,377.36,306.36,377.36Z" style="fill:#263238"></path><g style="opacity:0.30000000000000004"><path d="M407.28,380.6c-1.61-1.77-4.11-2.36-6.45-2.84-26.66-5.47-54.15-3.16-81.15.22-3.35.42-7.05,1.13-9.07,3.83-1.47,1.95-.52,4.54-.66,7-.71,12.52.92,25.85,3.4,38.14l92-1.47c3.14-9.54,3.91-25.71,4-36.69C409.31,385.89,409.22,382.72,407.28,380.6Z"></path></g><path d="M413.27,366.15a2.58,2.58,0,0,1,0,.48V368c0,1.17,0,2.87-.08,5-.11,4.19-.33,10-.68,16.34s-.77,12.15-1.1,16.33c-.18,2-.32,3.72-.42,4.94-.06.54-.11,1-.14,1.34a1.77,1.77,0,0,1-.08.46,2.79,2.79,0,0,1,0-.47q0-.53.06-1.35c.08-1.21.18-2.89.3-4.94.26-4.23.6-10,1-16.33s.61-12.15.79-16.33c.09-2.05.16-3.73.21-4.95l.07-1.35A1.54,1.54,0,0,1,413.27,366.15Z" style="fill:#263238"></path><path d="M323.12,284.93s-2.29,3.13-2.25,8.8c0,3,2.09,9.19,7.48,9.5-1.43,8.67,4.12,15.09,13.37,15.1s19.84-15.85,28.4-19.34L395,292.42c2.19-.5,3.09-3.17,3.05-5.41s-.62-4.57.17-6.67c1.09-2.88,4.42-4.42,5.56-7.28,1.29-3.24-.71-6.85-3-9.48s-5.13-5.12-5.86-8.54c-.68-3.14.53-6.69-1-9.49-1.93-3.46-7-3.89-9.34-7.07-1.14-1.54-1.49-3.55-2.62-5.1-1.91-2.64-5.6-3.33-8.85-3s-6.37,1.53-9.62,1.77c-4.47.32-9.08-1.12-13.37.17-4.73,1.43-7.61,5.63-10.68,9.69l-4,4.71a17.91,17.91,0,0,1-2.67,2.18c-1.69,1.1-3.62,1.85-5.06,3.25a7.91,7.91,0,0,0,.55,11.39,8.46,8.46,0,0,0-5.68,8.31s-.44,4.12,2.17,6A5.69,5.69,0,0,0,323.12,284.93Z" style="fill:#263238"></path><path d="M339.79,293.35c-2.05-6.31-4.08-12.67-5-19.24s-.74-13.42,1.57-19.63c.35-.95,3.34-7.27,4.34-7.17.72.07-1.12,6-.76,6.59,3.45,5.93,4.39,13.06,3.84,19.9a89.54,89.54,0,0,1-4,19.55" style="fill:#263238"></path><path d="M357.77,342.88c-10.28-.22-17.75-17.09-17.75-17.09L339.35,268c-.54-16.63,8.69-30.81,25.33-30.89l1.54.09a29.75,29.75,0,0,1,28.15,28.9c.39,14.42.63,30.35.12,38.05-1.05,15.93-17.13,17.56-17.13,17.56s-.09,3.7-.14,8.38c-.11,10.53-15.33,13.12-19.45,12.76Z" style="fill:#936760"></path><path d="M377.14,321.74a38.58,38.58,0,0,1-20.43-7.25s4.44,11.86,20.43,11.28Z" style="fill:#6f4c47"></path><path d="M386.05,279.79a2.28,2.28,0,0,1-2.32,2.18,2.18,2.18,0,0,1-2.23-2.18,2.27,2.27,0,0,1,2.31-2.18A2.18,2.18,0,0,1,386.05,279.79Z" style="fill:#263238"></path><path d="M390.39,272.56c-.3.28-1.95-1.09-4.41-1.21s-4.31,1-4.56.69c-.12-.14.2-.66,1-1.19a6.3,6.3,0,0,1,3.67-.92,6,6,0,0,1,3.49,1.34C390.31,271.89,390.54,272.44,390.39,272.56Z" style="fill:#263238"></path><path d="M364.14,279.2a2.28,2.28,0,0,1-2.32,2.18,2.18,2.18,0,0,1-2.24-2.18A2.29,2.29,0,0,1,361.9,277,2.19,2.19,0,0,1,364.14,279.2Z" style="fill:#263238"></path><path d="M366.34,272.27c-.3.28-2-1.09-4.41-1.22s-4.31,1-4.56.69c-.12-.14.19-.66,1-1.18a6.2,6.2,0,0,1,3.67-.92,6,6,0,0,1,3.48,1.33C366.25,271.59,366.48,272.14,366.34,272.27Z" style="fill:#263238"></path><path d="M374.12,291.57c0-.14,1.53-.33,4-.51.63,0,1.23-.12,1.36-.54a3.16,3.16,0,0,0-.32-1.88c-.5-1.55-1-3.17-1.59-4.86-2.21-6.93-3.77-12.6-3.49-12.69s2.29,5.45,4.5,12.37l1.52,4.89a3.69,3.69,0,0,1,.19,2.48,1.59,1.59,0,0,1-1.08.86,4.72,4.72,0,0,1-1.07.09C375.66,291.78,374.12,291.71,374.12,291.57Z" style="fill:#263238"></path><path d="M366.81,292.87c.4,0,.27,2.66,2.44,4.67s5,1.87,5,2.24c0,.17-.66.49-1.86.45a6.6,6.6,0,0,1-4.2-1.72,5.81,5.81,0,0,1-1.88-3.9C366.3,293.49,366.63,292.85,366.81,292.87Z" style="fill:#263238"></path><path d="M366.73,262.32c-.27.65-2.7.2-5.6.4s-5.26.85-5.6.23c-.16-.3.28-.9,1.25-1.5a9.81,9.81,0,0,1,8.54-.48C366.35,261.45,366.86,262,366.73,262.32Z" style="fill:#263238"></path><path d="M389.81,264.36c-.46.54-2.11-.13-4.14-.27s-3.77.18-4.13-.43c-.16-.29.14-.83.92-1.32a6,6,0,0,1,6.67.57C389.81,263.52,390,264.1,389.81,264.36Z" style="fill:#263238"></path><path d="M339.8,279.91c-.26-.13-10.78-3.83-11,7.09s10.77,8.9,10.8,8.59S339.8,279.91,339.8,279.91Z" style="fill:#936760"></path><path d="M336.34,291.38s-.19.13-.52.27a1.85,1.85,0,0,1-1.42,0c-1.14-.45-2.08-2.3-2.09-4.27a6.35,6.35,0,0,1,.6-2.71,2.2,2.2,0,0,1,1.46-1.43,1,1,0,0,1,1.11.55c.14.3.07.52.12.54s.24-.18.16-.63a1.18,1.18,0,0,0-.41-.69,1.42,1.42,0,0,0-1.05-.3,2.65,2.65,0,0,0-2,1.65,6.54,6.54,0,0,0-.73,3c0,2.21,1.11,4.29,2.68,4.78a2,2,0,0,0,1.74-.25C336.32,291.65,336.38,291.4,336.34,291.38Z" style="fill:#6f4c47"></path><path d="M387.32,248c1.78-1-3.45-6.75-7.77-8.78-6.53-3.06-16.53-5-22.6-3.38-7.31,2-13.42,5.52-17.16,12.11a42.92,42.92,0,0,0-5.1,21.87,13,13,0,0,0,1.45,6.69c1.5,2.43,4.4,4,4.23,7.32a4.61,4.61,0,0,0,1.09,3.35c2,2.15,4.44.18,5.59-1.81,2.46-4.24,2.79-9.35,3.07-14.24.19-3.48.38-7-.56-10.4-.51-1.83-1.35-3.56-1.76-5.41a6.55,6.55,0,0,1,.85-5.44,7.36,7.36,0,0,1,.89-.89,11.4,11.4,0,0,1,11.33-2c6.12,2.25,16.58,5.63,19.35,3.58,4-3,5-4.89,5-4.89Z" style="fill:#263238"></path><path d="M357.54,234.31A24,24,0,0,1,376,235.56c3,1.59,5.63,4.09,6.5,7.34s-.57,7.21-3.69,8.43l-.22.13c-4.68,1.51-7.7.85-12.33-.82-3.89-1.4-7.33-3.86-11.23-5.24a22.22,22.22,0,0,0-13-.55A36.23,36.23,0,0,1,357.54,234.31Z" style="fill:#263238"></path><path d="M336.77,245.11c.09.08,1-1,2.75-2.19a15.66,15.66,0,0,1,3.31-1.77,10.09,10.09,0,0,1,4.44-.75,14.89,14.89,0,0,1,7.62,3.14c1.68,1.34,2.47,2.47,2.57,2.39s-.11-.34-.47-.84a11.77,11.77,0,0,0-1.77-1.94,14.17,14.17,0,0,0-7.89-3.48,10.39,10.39,0,0,0-4.75.85,14.48,14.48,0,0,0-3.37,2A8.43,8.43,0,0,0,336.77,245.11Z" style="fill:#455a64"></path><path d="M370.05,233.32a28.31,28.31,0,0,0,2.89,1.09,23.8,23.8,0,0,1,11.2,9.23,28,28,0,0,0,1.63,2.63,8.75,8.75,0,0,0-1.19-2.9,20.59,20.59,0,0,0-4.85-5.79,20.8,20.8,0,0,0-6.62-3.66A8.46,8.46,0,0,0,370.05,233.32Z" style="fill:#455a64"></path><path d="M324.73,272.79s.38.16,1.06.36a7.7,7.7,0,0,0,3,.2,12.13,12.13,0,0,0,4.24-1.41c1.51-.78,3.07-1.85,4.79-2.86a14.52,14.52,0,0,1,5.25-2,6.89,6.89,0,0,1,4.49.83,5.34,5.34,0,0,1,2.15,2.26,3.51,3.51,0,0,1,.29.81.92.92,0,0,1,0,.29s-.12-.39-.46-1a5.34,5.34,0,0,0-2.16-2.08,6.67,6.67,0,0,0-4.3-.72,14.52,14.52,0,0,0-5.11,2c-1.7,1-3.27,2.06-4.82,2.84a12.12,12.12,0,0,1-4.38,1.36,7.23,7.23,0,0,1-3.06-.33A5.1,5.1,0,0,1,325,273,1.12,1.12,0,0,1,324.73,272.79Z" style="fill:#455a64"></path><path d="M325.42,277.66a11.77,11.77,0,0,0,3.62.22,17.31,17.31,0,0,0,3.85-.91c1.41-.49,2.93-1.15,4.58-1.75a16.1,16.1,0,0,1,4.82-1.05,9,9,0,0,1,4,.75,6.21,6.21,0,0,1,2.19,1.65,4.23,4.23,0,0,1,.42.62c.09.15.13.23.11.24s-.21-.29-.64-.76a6.55,6.55,0,0,0-2.19-1.49,9,9,0,0,0-3.84-.65,16.47,16.47,0,0,0-4.71,1.07c-1.62.58-3.15,1.24-4.59,1.71a16.4,16.4,0,0,1-3.94.85,9.11,9.11,0,0,1-2.7-.18c-.31-.08-.55-.15-.71-.21S325.41,277.67,325.42,277.66Z" style="fill:#455a64"></path><path d="M399.6,267.82a2,2,0,0,1-.37.95,5.32,5.32,0,0,1-1.71,1.77,5.46,5.46,0,0,1-2.31.87,2,2,0,0,1-1-.05,9.54,9.54,0,0,0,3.11-1.15A9.79,9.79,0,0,0,399.6,267.82Z" style="fill:#455a64"></path><path d="M402.21,273.55a3.29,3.29,0,0,1-.53,1.41,7.77,7.77,0,0,1-6,3.83,3.48,3.48,0,0,1-1.51-.12c0-.06.58,0,1.47-.16a8.53,8.53,0,0,0,5.78-3.69C401.94,274.06,402.15,273.52,402.21,273.55Z" style="fill:#455a64"></path><path d="M442.92,390.69l13.88,27.86a20.31,20.31,0,0,1,2.11,10.05h0a20.31,20.31,0,0,1-20.28,19.32l-39.81-2.31-1.74-18.16,30.29-7.3L415.63,398Z" style="fill:#936760"></path><path d="M427.37,420.15c0,.12,1.38-.11,3.57-.09a27.28,27.28,0,0,1,8.4,1.48,25.73,25.73,0,0,1,7.52,4c1.72,1.36,2.53,2.47,2.63,2.4s-.14-.32-.5-.84a14.13,14.13,0,0,0-1.82-1.93,22.6,22.6,0,0,0-7.61-4.27,24,24,0,0,0-8.62-1.32,16.49,16.49,0,0,0-2.63.31C427.69,420,427.36,420.1,427.37,420.15Z" style="fill:#6f4c47"></path><path d="M272.87,385.89S265.4,406.79,256,430a9.35,9.35,0,0,0-.45,1.45c-1.42,6.29,3.37,16.86,9.81,16.86l53.9-.53V430.18l-31.08-6.81,12-26.52Z" style="fill:#936760"></path><path d="M264,428.19c.08.1,1.14-.74,3-1.82a28.34,28.34,0,0,1,16.21-3.67c2.15.17,3.47.47,3.5.35a2.83,2.83,0,0,0-.9-.33,16.32,16.32,0,0,0-2.55-.5,24.71,24.71,0,0,0-8.58.43,25.11,25.11,0,0,0-7.93,3.3,18.12,18.12,0,0,0-2.09,1.56C264.23,427.92,264,428.16,264,428.19Z" style="fill:#6f4c47"></path><path d="M404.87,426.39h-7.79s-17.58-6.35-21.2-5.74c-3.26.54-15.18,8.46-17.51,10a1.49,1.49,0,0,0-.57.72h0a2.55,2.55,0,0,0,1.42,3.25l.25.1-.11.36a4.43,4.43,0,0,0-.18,1.42,1.72,1.72,0,0,0,3.2.74l-.45.8a1.92,1.92,0,0,0-.25,1.07l0,.72a2,2,0,0,0,1.35,1.76h0a2,2,0,0,0,2-.54c1.51-1.66,4.78-5,7-5.36a52.76,52.76,0,0,1,7.22-.37,2.47,2.47,0,0,1,2.27,1.57h0c-1.32.09-10.45,4.86-13.69,6.56a3.49,3.49,0,0,0-1.88,2.6c-.11,1,.4,2.08,2.4,1.61,4.3-1,12-4.56,12-4.56s4-1.14,6.57.68c3.63,2.57,5.3,3.51,8.42,2.47a26.09,26.09,0,0,0,5.42-2.52l6.15-.61S412.82,428.62,404.87,426.39Z" style="fill:#936760"></path><path d="M381.65,429.36c0,.07-1.25-.33-3.3-.46A17,17,0,0,0,364.14,435c-1.33,1.57-1.9,2.74-2,2.7a3.88,3.88,0,0,1,.39-.81,15.2,15.2,0,0,1,1.39-2,16.53,16.53,0,0,1,14.41-6.15,15.43,15.43,0,0,1,2.42.41A3.72,3.72,0,0,1,381.65,429.36Z" style="fill:#6f4c47"></path><path d="M379.79,425.09a14.51,14.51,0,0,0-3.44-.6,15,15,0,0,0-8,2.27,32,32,0,0,0-6.44,5.45l-1.77,1.88a4.81,4.81,0,0,1-.67.66,5.34,5.34,0,0,1,.58-.75c.38-.47,1-1.14,1.69-1.95a29.72,29.72,0,0,1,6.44-5.58,14.63,14.63,0,0,1,8.18-2.21,9.13,9.13,0,0,1,2.55.47,4.71,4.71,0,0,1,.66.25A.7.7,0,0,1,379.79,425.09Z" style="fill:#6f4c47"></path><path d="M307.85,426.94h7.8s17.58-6.35,21.2-5.74c3.25.54,15.18,8.46,17.51,10a1.55,1.55,0,0,1,.57.72h0a2.56,2.56,0,0,1-1.43,3.25l-.24.1.11.36a4.17,4.17,0,0,1,.17,1.42,1.71,1.71,0,0,1-3.19.74l.45.8a2,2,0,0,1,.25,1.07l0,.72a2,2,0,0,1-1.35,1.76h0a2,2,0,0,1-2.05-.54c-1.51-1.66-4.77-5-7-5.36a52.84,52.84,0,0,0-7.22-.37,2.46,2.46,0,0,0-2.27,1.57h0c1.31.09,10.45,4.86,13.68,6.56a3.46,3.46,0,0,1,1.88,2.6c.12,1-.39,2.08-2.39,1.61-4.3-1-12-4.56-12-4.56s-4-1.14-6.57.68c-3.64,2.57-5.3,3.51-8.42,2.47a26.09,26.09,0,0,1-5.42-2.52l-6.15-.61S299.9,429.17,307.85,426.94Z" style="fill:#936760"></path><path d="M331.07,429.91c0,.07,1.25-.33,3.31-.46a17,17,0,0,1,14.21,6.07,30.61,30.61,0,0,1,2,2.7,3.88,3.88,0,0,0-.39-.81,15,15,0,0,0-1.38-2,16.53,16.53,0,0,0-14.41-6.15,15.38,15.38,0,0,0-2.43.41A4.26,4.26,0,0,0,331.07,429.91Z" style="fill:#6f4c47"></path><path d="M332.94,425.64a14.49,14.49,0,0,1,3.43-.6,15,15,0,0,1,8,2.27,32.06,32.06,0,0,1,6.45,5.45l1.76,1.88a4.48,4.48,0,0,0,.68.66,6.58,6.58,0,0,0-.58-.75c-.39-.47-1-1.14-1.69-1.95a29.57,29.57,0,0,0-6.45-5.58,14.6,14.6,0,0,0-8.17-2.21,9.22,9.22,0,0,0-2.56.47,5.27,5.27,0,0,0-.66.25C333,425.59,332.93,425.63,332.94,425.64Z" style="fill:#6f4c47"></path><path d="M320.19,448.4h89.45a4.74,4.74,0,0,0,4.74-4.54l2.69-61.57a4.75,4.75,0,0,0-4.74-5H317.69a4.76,4.76,0,0,0-4.75,4.95l2.51,61.56A4.75,4.75,0,0,0,320.19,448.4Z" style="fill:#e0e0e0"></path><path d="M320.19,448.4H320a5.29,5.29,0,0,1-.65-.06,4.72,4.72,0,0,1-2.29-1.1,4.86,4.86,0,0,1-1.66-3.71c-.07-1.64-.15-3.54-.25-5.66-.36-8.54-.89-20.87-1.54-36.1q-.24-5.72-.5-12c-.09-2.08-.17-4.2-.26-6.36,0-.55-.07-1.07-.05-1.65a5.23,5.23,0,0,1,.39-1.65,4.89,4.89,0,0,1,2.32-2.47,5.12,5.12,0,0,1,1.67-.5c.6-.05,1.15,0,1.72,0h93a5.42,5.42,0,0,1,2.21.34,5,5,0,0,1,3,3.2,5.9,5.9,0,0,1,.18,2.2l-.09,2.14c-.07,1.43-.13,2.85-.19,4.27q-.37,8.49-.73,16.72c-.48,11-.95,21.54-1.39,31.62-.06,1.26-.11,2.51-.17,3.75,0,.62-.05,1.24-.08,1.86a6.75,6.75,0,0,1-.25,1.88A5,5,0,0,1,412,448a4.88,4.88,0,0,1-1.79.57c-.63.06-1.21,0-1.81,0h-13.9l-24.95,0-36.13-.07-9.82,0-2.56,0-.87,0,.87,0,2.56,0,9.82,0,36.13-.07,24.95,0h13.9c.59,0,1.21,0,1.77,0A4.55,4.55,0,0,0,414,445a6.43,6.43,0,0,0,.23-1.78c0-.61,0-1.23.08-1.85.05-1.25.1-2.5.16-3.76.43-10.08.89-20.65,1.36-31.62q.36-8.22.73-16.72c.06-1.42.12-2.84.19-4.26l.09-2.15a5.46,5.46,0,0,0-.16-2.06,4.55,4.55,0,0,0-2.71-2.92,5.06,5.06,0,0,0-2.06-.31h-2.17l-65.62,0H318.87c-.56,0-1.15,0-1.68,0a4.63,4.63,0,0,0-1.55.46,4.58,4.58,0,0,0-2.16,2.29,5,5,0,0,0-.36,1.53c0,.52,0,1.08,0,1.61.09,2.16.17,4.29.25,6.37.17,4.15.33,8.15.48,12,.59,15.23,1.07,27.56,1.4,36.1.08,2.13.15,4,.21,5.66a4.81,4.81,0,0,0,1.59,3.66,4.74,4.74,0,0,0,2.24,1.11C319.9,448.4,320.2,448.37,320.19,448.4Z" style="fill:#263238"></path><path d="M360.11,414a4.9,4.9,0,1,0,4.9-4.9A4.9,4.9,0,0,0,360.11,414Z" style="fill:#fff"></path></g><g id="freepik--character-1--inject-2"><polygon points="165.14 330.87 151.11 328.16 124.19 334.33 110.55 337.18 110.35 355.82 140.79 361.43 161.32 355.34 169.09 343.92 165.14 330.87" style="fill:#ffbe9d"></polygon><path d="M175.11,332.73l-13.24-3.12s-9.36,28.94-32.47,27.69c-18.83-1-18.85-20.12-18.85-20.12l-13.77,2.43s-5.77,35,.55,59.48c5.27,20.41,8.42,49.89,8.42,49.89l93.35.23-24-116.48Z" style="fill:#0692E3"></path><path d="M85.45,347.72c7.43-9.28,13.36-8.21,13.36-8.21l4,44.53L70.34,425.1,57.13,391.3S78.66,356.21,85.45,347.72Z" style="fill:#0692E3"></path><path d="M173.53,332.35s21.44,1.72,29.13,36.85c3.48,15.89,7.88,34.51,9.15,47,.92,9.08-4,23.29-13.07,24.45l-14.84,2c-7.08.1-10.93-6.41-12.42-12.58l-3.32-10.48c-1.7-12,7.47-11.83,12.6-11.72l-3.82-45.5Z" style="fill:#0692E3"></path><path d="M95,364.18a2.59,2.59,0,0,0-.1.49c-.06.36-.13.83-.22,1.42,0,.31-.09.65-.14,1s-.08.79-.13,1.23c-.09.88-.2,1.88-.24,3a73.94,73.94,0,0,0,0,7.82,93.25,93.25,0,0,0,.94,9.52c.5,3.36,1.12,6.53,1.75,9.4s1.25,5.45,1.78,7.61,1,3.89,1.33,5.09l.38,1.38a2.89,2.89,0,0,0,.15.47,1.67,1.67,0,0,0-.08-.49c-.09-.35-.19-.81-.33-1.39-.29-1.25-.71-3-1.22-5.12s-1.11-4.74-1.71-7.61-1.21-6-1.71-9.39-.83-6.56-1-9.49-.15-5.57,0-7.79c0-1.1.12-2.1.19-3,0-.44.07-.85.1-1.23l.12-1c.06-.59.11-1.07.15-1.43A3.07,3.07,0,0,0,95,364.18Z" style="fill:#263238"></path><path d="M197.62,420.29a4,4,0,0,0-.17-.88,13.36,13.36,0,0,0-.83-2.31A15.71,15.71,0,0,0,184,407.94a13.68,13.68,0,0,0-2.46-.08,4.16,4.16,0,0,0-.89.11,32,32,0,0,1,3.32.21,16.18,16.18,0,0,1,12.39,9A32.66,32.66,0,0,1,197.62,420.29Z" style="fill:#263238"></path><path d="M192.66,402.79a1.61,1.61,0,0,0-.51-.05,13.5,13.5,0,0,0-1.42.06,16.74,16.74,0,0,0-4.52,1.14,16.12,16.12,0,0,0-4,2.38,11.34,11.34,0,0,0-1.05.95c-.23.24-.35.38-.33.4s.58-.46,1.53-1.16a19.55,19.55,0,0,1,4-2.25,19.32,19.32,0,0,1,4.42-1.21C191.93,402.87,192.66,402.85,192.66,402.79Z" style="fill:#263238"></path><path d="M170.47,357.3a5.34,5.34,0,0,0,.05-.94c0-.6,0-1.47.11-2.55a42.83,42.83,0,0,1,1.43-8.27,41.52,41.52,0,0,1,3.09-7.81c.49-1,.92-1.72,1.23-2.24a5.42,5.42,0,0,0,.44-.82,4.75,4.75,0,0,0-.56.75c-.34.5-.8,1.25-1.33,2.2a37,37,0,0,0-4.54,16.18c0,1.08,0,2,0,2.57A4.36,4.36,0,0,0,170.47,357.3Z" style="fill:#263238"></path><g style="opacity:0.30000000000000004"><path d="M96,393.68c-5.47-9.26-5.58-21.3-.81-30.95a86.55,86.55,0,0,0,1,30.91"></path></g><g style="opacity:0.30000000000000004"><path d="M144.66,404.16c4.15,1.22,9.9,1.52,13.94,0-3.16,4.5-9.27,6.13-14.56,4.66s-10.18-6.76-10.59-12.24A22.67,22.67,0,0,0,144.66,404.16Z"></path></g><path d="M129.4,389.2a1.52,1.52,0,0,0,.1.37c.08.23.17.59.35,1a21.06,21.06,0,0,0,1.79,3.62,23.53,23.53,0,0,0,9.75,8.85,23.6,23.6,0,0,0,7,2.07,23.86,23.86,0,0,0,6,0,22.55,22.55,0,0,0,3.94-.87c.45-.13.79-.29,1-.37a1.68,1.68,0,0,0,.35-.16s-.51.14-1.42.4a23.52,23.52,0,0,1-3.93.75A23.7,23.7,0,0,1,130,390.55C129.61,389.68,129.43,389.19,129.4,389.2Z" style="fill:#263238"></path><path d="M174.59,438.62s.37.44,1.17,1.1a10.79,10.79,0,0,0,3.93,1.88,20.73,20.73,0,0,0,6.45.56c2.45-.17,5.15-.46,8-.88a40.33,40.33,0,0,0,7.77-1.79,9.66,9.66,0,0,0,2.85-1.9,15.14,15.14,0,0,0,2-2.27,21.57,21.57,0,0,0,2.19-3.8c.2-.48.36-.85.46-1.11a1.83,1.83,0,0,1,.17-.38,2.43,2.43,0,0,1-.11.4,11.77,11.77,0,0,1-.4,1.14,19.7,19.7,0,0,1-2.11,3.89,16,16,0,0,1-2,2.34,10.2,10.2,0,0,1-2.93,2,38.84,38.84,0,0,1-7.84,1.84c-2.82.42-5.52.7-8,.86a20.51,20.51,0,0,1-6.54-.65,10.37,10.37,0,0,1-3.94-2,6.3,6.3,0,0,1-.84-.88A2.58,2.58,0,0,1,174.59,438.62Z" style="fill:#263238"></path><path d="M171.05,368.5c.09,0,2.35,8.75,5,19.6s4.81,19.67,4.72,19.69-2.36-8.75-5-19.6S171,368.52,171.05,368.5Z" style="fill:#263238"></path><path d="M168.32,418a3.46,3.46,0,0,1-.11-.72,12.17,12.17,0,0,1,0-2,5.66,5.66,0,0,1,1-2.81,7.74,7.74,0,0,1,1.1-1.38,7.55,7.55,0,0,1,1.52-1.14,19.13,19.13,0,0,1,6.24-2,19.79,19.79,0,0,1,2-.18,2.79,2.79,0,0,1,.73,0c0,.06-1,.1-2.67.39a21.24,21.24,0,0,0-6.11,2.07,7.67,7.67,0,0,0-1.46,1.08,8.65,8.65,0,0,0-1.07,1.31,5.8,5.8,0,0,0-1,2.67,18.6,18.6,0,0,0-.07,2A3.2,3.2,0,0,1,168.32,418Z" style="fill:#263238"></path><path d="M104.85,261.19l-2.7-2.46c-3.6,1.46-5.27,5.36-5.87,9s-.52,7.43-2.16,10.76c-1.27,2.56-3.56,4.93-3.28,7.74s2.86,4.84,2.87,7.53-2.29,4.57-3.63,6.82c-2.72,4.58-4.46,23.31-3,28.38,12-1,33.12-2.13,45.09-4.68C129,305,115.65,277.86,104.85,261.19Z" style="fill:#263238"></path><ellipse cx="98.32" cy="290.27" rx="12.04" ry="13.34" style="fill:#455a64"></ellipse><g style="opacity:0.30000000000000004"><path d="M95,282.89a16.82,16.82,0,0,1,1.19-2.65c.27,8.35.76,15.17,1.63,23.38-2.35-4.25-3-9.43-3.32-14.49C94.3,286.32,94.27,284.88,95,282.89Z"></path></g><path d="M118.2,343Z" style="fill:#ffbe9d"></path><path d="M95.93,280.43c-.83-14,9.35-26.85,23.54-28.54a26.34,26.34,0,0,1,29.63,23.66l3.53,59.23a5.21,5.21,0,0,1-.9,3.22c-3.48,5.08-9.78,9.06-15.41,9.84a25.33,25.33,0,0,1-15.6-3.23,5.08,5.08,0,0,1-2.57-4.34L117.91,327a.08.08,0,0,0-.09-.08,17.68,17.68,0,0,1-3.71-.11c-3.51-.85-12.45-4.29-15.45-17.4C97.67,305.07,96.66,292.72,95.93,280.43Z" style="fill:#ffbe9d"></path><path d="M115.4,299.79a15.49,15.49,0,0,0-3.84-.41c-.6,0-1.17-.09-1.29-.49a3,3,0,0,1,.28-1.76q.7-2.19,1.48-4.59c2-6.54,3.48-11.89,3.21-12s-2.14,5.16-4.18,11.69c-.49,1.61-1,3.14-1.4,4.61a3.4,3.4,0,0,0-.16,2.33,1.51,1.51,0,0,0,1,.79,4.19,4.19,0,0,0,1,.06A15.66,15.66,0,0,0,115.4,299.79Z" style="fill:#263238"></path><path d="M99.8,285.39c.26.28,1.81-1,4-1.09s3.89,1.1,4.12.79c.12-.13-.15-.65-.87-1.19a5.32,5.32,0,0,0-3.31-1,5.23,5.23,0,0,0-3.21,1.23C99.89,284.72,99.67,285.26,99.8,285.39Z" style="fill:#263238"></path><path d="M122.41,286c.31.28,1.92-1.19,4.36-1.39s4.32.9,4.56.57c.12-.15-.21-.68-1-1.2a6,6,0,0,0-3.68-.84,5.89,5.89,0,0,0-3.43,1.5C122.48,285.25,122.27,285.82,122.41,286Z" style="fill:#263238"></path><path d="M117.91,326.92s9.07.1,19.93-7.36c0,0-2.81,12-19.86,11.6Z" style="fill:#eb996e"></path><path d="M116.75,305.26a4.28,4.28,0,0,1,3.68-1.8,3.89,3.89,0,0,1,2.74,1.21,2.37,2.37,0,0,1,.36,2.73,2.85,2.85,0,0,1-3,1,8.67,8.67,0,0,1-3.1-1.54,2.4,2.4,0,0,1-.71-.63.76.76,0,0,1-.06-.86" style="fill:#eb996e"></path><path d="M122.38,300.9c-.38,0-.22,2.5-2.28,4.42s-4.77,1.84-4.77,2.19c0,.16.63.44,1.78.39a6.46,6.46,0,0,0,4-1.68,5.45,5.45,0,0,0,1.75-3.7C122.88,301.47,122.56,300.88,122.38,300.9Z" style="fill:#263238"></path><path d="M122.05,276.77c.27.61,2.59.14,5.35.25s5,.69,5.36.1c.14-.28-.29-.84-1.22-1.38a9,9,0,0,0-4-1.05,8.92,8.92,0,0,0-4.12.79C122.4,276,121.93,276.48,122.05,276.77Z" style="fill:#263238"></path><path d="M99.32,277.26c.47.53,2.35,0,4.6,0s4.15.37,4.6-.17c.19-.27-.1-.79-.93-1.29a7.63,7.63,0,0,0-7.41.16C99.38,276.47,99.11,277,99.32,277.26Z" style="fill:#263238"></path><path d="M117.39,248.93c1.22-2.08,3.5-3,6-3.42,10.37-1.57,21.95,4.68,27.77,13.41s6.12,21.76,1.86,31.35l-6.47-4c-13-5.35-22.16-17.87-30.52-30.8C114.93,253.66,116.33,250.73,117.39,248.93Z" style="fill:#263238"></path><path d="M96.12,281.29l-.7-1.34c-2.57-4.95-1.46-10.57.46-15.8,1.72-4.68,2.66-6.23,5.55-9.52,4.34-4.93,11.83-10.6,18.18-7.78,1.32,2.53-3,7.15-5.26,9.06-3.27,2.8-6.12,4.7-8.27,6.7-4.33,4.06-9.53,11.25-10,18.68" style="fill:#263238"></path><path d="M101.77,291.79a2,2,0,0,0,1.87,2,1.88,1.88,0,0,0,2.06-1.74,2,2,0,0,0-1.86-2A1.89,1.89,0,0,0,101.77,291.79Z" style="fill:#263238"></path><path d="M122.85,291.79a2,2,0,0,0,1.87,2,1.88,1.88,0,0,0,2.06-1.74,2,2,0,0,0-1.86-2A1.89,1.89,0,0,0,122.85,291.79Z" style="fill:#263238"></path><path d="M146.59,286.22c.25-.13,9.83-3.92,10.44,6.16s-9.64,8.61-9.67,8.33S146.59,286.22,146.59,286.22Z" style="fill:#ffbe9d"></path><path d="M150.2,296.7c.05,0,.19.11.49.23a1.74,1.74,0,0,0,1.32-.05c1-.46,1.83-2.2,1.77-4a5.76,5.76,0,0,0-.64-2.48,2,2,0,0,0-1.4-1.27.9.9,0,0,0-1,.54c-.12.29,0,.49-.1.51s-.22-.16-.17-.58a1.13,1.13,0,0,1,.36-.65,1.29,1.29,0,0,1,1-.32,2.49,2.49,0,0,1,1.93,1.45,6.18,6.18,0,0,1,.78,2.78c0,2-.87,4-2.3,4.5a1.89,1.89,0,0,1-1.63-.17C150.24,296.94,150.17,296.72,150.2,296.7Z" style="fill:#eb996e"></path><path d="M110.74,288.87a20.07,20.07,0,0,0-.32-2.26,9.34,9.34,0,0,0-3.32-5.1,9.15,9.15,0,0,0-8.64-1.43,9.13,9.13,0,0,0-4.3,3.12A9.1,9.1,0,0,0,94,294a8.53,8.53,0,0,0,1.9,2,8.64,8.64,0,0,0,2.29,1.28,9.22,9.22,0,0,0,4.8.49,9.09,9.09,0,0,0,3.89-1.64,9.27,9.27,0,0,0,3.47-5,18,18,0,0,0,.4-2.25V289c0,.12,0,.27,0,.45a4.11,4.11,0,0,1-.07.71,5.69,5.69,0,0,1-.19,1A9.2,9.2,0,0,1,107,296.3a9.3,9.3,0,0,1-4,1.73,9.5,9.5,0,0,1-5-.47,9.29,9.29,0,0,1-2.38-1.32,8.89,8.89,0,0,1-2-2A9.4,9.4,0,0,1,93.9,283a8.81,8.81,0,0,1,2-2,9,9,0,0,1,2.42-1.25,9.45,9.45,0,0,1,5-.31,9.39,9.39,0,0,1,7.23,7.11,6.8,6.8,0,0,1,.15,1,4.05,4.05,0,0,1,0,.73v.44A.85.85,0,0,1,110.74,288.87Z" style="fill:#fff"></path><path d="M136.18,289.28a15.48,15.48,0,0,0-.32-2.26,9.2,9.2,0,0,0-12-6.53,8.63,8.63,0,0,0-2.33,1.21,8.86,8.86,0,0,0-2,1.91,9.1,9.1,0,0,0-.17,10.8,8.48,8.48,0,0,0,1.9,2,8.68,8.68,0,0,0,2.29,1.29,9.23,9.23,0,0,0,12.16-6.14,14.73,14.73,0,0,0,.39-2.25s0,.05,0,.15v.44a4.13,4.13,0,0,1-.07.72,5.88,5.88,0,0,1-.19,1,9.36,9.36,0,0,1-7.44,6.87,9.4,9.4,0,0,1-5-.47,9.5,9.5,0,0,1-4.36-3.36,9.43,9.43,0,0,1,.18-11.19,9.11,9.11,0,0,1,2-2,9.25,9.25,0,0,1,2.42-1.24,9.45,9.45,0,0,1,5-.31A9.36,9.36,0,0,1,136,287a5.73,5.73,0,0,1,.16,1,4,4,0,0,1,0,.72v.45C136.19,289.23,136.19,289.28,136.18,289.28Z" style="fill:#fff"></path><path d="M118,288.58c-.05,0-.32-.39-.93-.88a4.47,4.47,0,0,0-5.61-.1c-.63.46-.91.88-1,.85a2.32,2.32,0,0,1,.81-1,4.46,4.46,0,0,1,3-1.09,4.54,4.54,0,0,1,2.94,1.19A2.51,2.51,0,0,1,118,288.58Z" style="fill:#fff"></path><path d="M148.91,285.58a9.2,9.2,0,0,1-1.86.39c-1.17.18-2.78.35-4.56.51l-4.56.41A12.69,12.69,0,0,1,136,287a8.86,8.86,0,0,1,1.86-.38c1.16-.18,2.78-.36,4.56-.52l4.56-.4A12.08,12.08,0,0,1,148.91,285.58Z" style="fill:#fff"></path><path d="M96,294.57a9.37,9.37,0,0,1-2.55-6.89,2.59,2.59,0,0,0-.19,1.11,7.17,7.17,0,0,0,1.86,5C95.64,294.36,96,294.6,96,294.57Z" style="fill:#fff"></path><path d="M94.45,284.16c-.06-.08-.43.11-.65.56s-.13.85,0,.85.17-.34.35-.7S94.51,284.23,94.45,284.16Z" style="fill:#fff"></path><path d="M119.28,292.57a12.86,12.86,0,0,0-.28-1.38,9.83,9.83,0,0,1,0-3.34,9.69,9.69,0,0,1,1.19-3.12,13.55,13.55,0,0,0,.75-1.18,3.52,3.52,0,0,0-1,1.05,8.42,8.42,0,0,0-1.23,6.64A3.64,3.64,0,0,0,119.28,292.57Z" style="fill:#fff"></path><path d="M154.3,300.57s.14.2.34.56a3.47,3.47,0,0,1,.43,1.68,3.08,3.08,0,0,1-.93,2.29,3.19,3.19,0,0,1-5.2-.93,3.12,3.12,0,0,1-.08-2.48,3.64,3.64,0,0,1,1-1.42c.32-.27.53-.38.52-.41a1.54,1.54,0,0,0-.6.3,3.4,3.4,0,0,0-1.13,1.44,3.33,3.33,0,0,0,0,2.7,3.48,3.48,0,0,0,5.71,1,3.36,3.36,0,0,0,1-2.53,3.45,3.45,0,0,0-.56-1.74C154.51,300.7,154.32,300.56,154.3,300.57Z" style="fill:#e0e0e0"></path><path d="M98.67,308.34a2.73,2.73,0,0,1-1.75.11,3.44,3.44,0,0,1-1.62-1,4.16,4.16,0,0,1-1-2.07,3.74,3.74,0,0,1,.28-2.29,4.31,4.31,0,0,1,1.17-1.51,6.91,6.91,0,0,1,1.59-.86,1.2,1.2,0,0,0-.5.07,3.58,3.58,0,0,0-1.23.6A4.2,4.2,0,0,0,94.25,303a4,4,0,0,0-.33,2.48,4.35,4.35,0,0,0,1.16,2.23,3.46,3.46,0,0,0,1.78,1,2.41,2.41,0,0,0,1.38-.07C98.55,308.48,98.68,308.35,98.67,308.34Z" style="fill:#e0e0e0"></path><path d="M142.47,252.53c9.35,0,13.33,13.72,15.46,18.78s2.76,10.72,5.47,15.49c2.15,3.79,5.62,7.09,6.1,11.42.35,3.15-1,6.29-.81,9.46s1.94,6.21,3.14,9.27,1.78,6.77-.17,9.41a137.39,137.39,0,0,1-21.56.5,6,6,0,0,1-3.47-.95c-1.2-1-1.48-2.66-1.67-4.19-2-15.88,2.37-23,.38-38.83" style="fill:#263238"></path><path d="M141,293.18c0,7.37,5.38,13.35,12,13.35s12-6,12-13.35-5.39-13.34-12-13.34S141,285.81,141,293.18Z" style="fill:#455a64"></path><path d="M145.89,293.18a2.34,2.34,0,0,1,0-.58,8.69,8.69,0,0,1,.18-1.65,9.92,9.92,0,0,1,.86-2.5,9.09,9.09,0,0,1,2.11-2.8,8.55,8.55,0,0,1,3.76-2,8,8,0,0,1,4.83.45,8.94,8.94,0,0,1,4.06,3.5,10.32,10.32,0,0,1,1.17,2.62,10.64,10.64,0,0,1,0,5.85,10.65,10.65,0,0,1-1.17,2.62,8.94,8.94,0,0,1-4.06,3.5,8.16,8.16,0,0,1-4.84.45,8.58,8.58,0,0,1-3.75-2,9.06,9.06,0,0,1-2.11-2.79,10,10,0,0,1-.86-2.5,8.78,8.78,0,0,1-.18-1.66,2.34,2.34,0,0,1,0-.58,20.35,20.35,0,0,0,.31,2.21,9.8,9.8,0,0,0,.89,2.44,9.09,9.09,0,0,0,2.1,2.7,8.38,8.38,0,0,0,3.66,1.87,7.86,7.86,0,0,0,4.65-.46,8.76,8.76,0,0,0,3.9-3.39,11,11,0,0,0,1.13-2.54,10.46,10.46,0,0,0,0-5.66,10.72,10.72,0,0,0-1.13-2.53,8.7,8.7,0,0,0-3.9-3.39,7.71,7.71,0,0,0-4.65-.46,8.27,8.27,0,0,0-3.66,1.87,8.93,8.93,0,0,0-2.1,2.69,9.8,9.8,0,0,0-.89,2.44A21.11,21.11,0,0,0,145.89,293.18Z" style="fill:#263238"></path><path d="M155.32,280.57s2-35.07-32.95-36.18c0,0-11.76,0-16.67,6.14,0,0,8-4.66,17.15-2.1C130.26,250.51,147,258,148,281.06l3.24,1.12Z" style="fill:#455a64"></path><g style="opacity:0.30000000000000004"><path d="M162.1,297.75a8.29,8.29,0,0,1-8,6.25,9.55,9.55,0,0,1-8.47-6,9.75,9.75,0,0,1,1.41-9.72,11.22,11.22,0,0,0-.11,9.33,9.19,9.19,0,0,0,7.29,5.14c2.94.26,6.34-1.76,7.93-5"></path></g><path d="M147.36,281.43a4.76,4.76,0,0,1,1.36-.77,11.56,11.56,0,0,1,7.46-.5,4.34,4.34,0,0,1,1.45.58,17.11,17.11,0,0,0-5.2-.61A17.6,17.6,0,0,0,147.36,281.43Z" style="fill:#263238"></path><path d="M104,251.94s0-.07.06-.19.11-.32.21-.57a10.78,10.78,0,0,1,1.2-2,13.07,13.07,0,0,1,2.66-2.53,19.87,19.87,0,0,1,4.3-2.3c.84-.34,1.75-.61,2.69-.91a28.5,28.5,0,0,1,3-.69,30.63,30.63,0,0,1,6.76-.51,33.47,33.47,0,0,1,14.9,4,30,30,0,0,1,6.5,4.73,33,33,0,0,1,9.43,17.51,30.85,30.85,0,0,1,.47,8.51,22.09,22.09,0,0,1-.28,2.3c-.05.25-.08.45-.11.6a1.81,1.81,0,0,1,0,.2.83.83,0,0,1,0-.21c0-.15,0-.35.07-.6.06-.52.18-1.29.22-2.3a32.09,32.09,0,0,0-.58-8.45,33.6,33.6,0,0,0-4.71-11.6A31.58,31.58,0,0,0,146,251.2a29.68,29.68,0,0,0-6.44-4.67,33.44,33.44,0,0,0-14.74-4,30.79,30.79,0,0,0-6.7.48c-1,.15-2,.43-3,.66s-1.84.56-2.67.88a20.56,20.56,0,0,0-4.28,2.23,13.31,13.31,0,0,0-2.67,2.47,10.54,10.54,0,0,0-1.23,1.94c-.1.23-.18.41-.25.55A.6.6,0,0,1,104,251.94Z" style="fill:#455a64"></path><path d="M101.07,254.8l.09-.17c.07-.13.15-.29.27-.5a21.42,21.42,0,0,1,1.16-1.83,14.63,14.63,0,0,1,2.3-2.58,15.75,15.75,0,0,1,3.87-2.43A21.17,21.17,0,0,1,114,245.6a38.21,38.21,0,0,1,6.35-.33,47.1,47.1,0,0,1,7,.87,30.85,30.85,0,0,1,7.19,2.26,24.06,24.06,0,0,1,6.29,4.16,26.09,26.09,0,0,1,4.41,5.47,38.74,38.74,0,0,1,4.4,11c.81,3.28,1.21,6,1.49,7.86.12.91.22,1.63.29,2.15,0,.23.05.42.06.56s0,.19,0,.19a.94.94,0,0,1,0-.18c0-.15-.06-.33-.1-.56-.08-.51-.2-1.23-.35-2.14-.32-1.86-.76-4.56-1.59-7.82a39.3,39.3,0,0,0-4.44-10.9,26.06,26.06,0,0,0-4.37-5.38,23.76,23.76,0,0,0-6.2-4.09,30.36,30.36,0,0,0-7.11-2.25,46.68,46.68,0,0,0-6.91-.88,37.52,37.52,0,0,0-6.29.29,21,21,0,0,0-5.22,1.63,15.74,15.74,0,0,0-3.84,2.36,14.72,14.72,0,0,0-2.32,2.5c-.56.76-1,1.38-1.21,1.8l-.3.48C101.12,254.75,101.08,254.81,101.07,254.8Z" style="fill:#263238"></path><path d="M125,416.81l0,0Z" style="fill:#ffbe9d"></path><path d="M125.19,416.92l.09,0Z" style="fill:#ffbe9d"></path><path d="M125,416.83l.19.09Z" style="fill:#ffbe9d"></path><path d="M124.87,416.77l.09,0Z" style="fill:#ffbe9d"></path><path d="M104.73,435.27c1.72-3.26,15.18-11.85,15.18-11.85l-3.65-.84-4,1.7a9.87,9.87,0,0,1-1.73,3.77c-1.48,2.11-4-.07-4-.07l1.69-8.15,8-4.78s7.48,1.14,8.69,1.72l3.19,2.92c1.4,1.09,5.45,5.42,6.55,5.55s35.83-7.68,35.83-7.68h0c4.76,3.77,7.27,11.26,8,16.66,0,0,.85,2.66-.07,4.1l-42.63,3.34-9,2.5a63.1,63.1,0,0,1-7.42,2.55c-3,.63-5-.34-5.11-2s2.25-1.85,2.25-1.85a46.23,46.23,0,0,0,5.81-2.55,10.15,10.15,0,0,0,3.28-3.6l-3.22.39s-6.85,4.75-9.42,6.14-3.08-1.16-3.29-1.94,7.69-8.5,7.69-8.5-7.51,4.63-8.86,5.79-3.35,1.52-3.78.74S103,438.52,104.73,435.27Z" style="fill:#ffbe9d"></path><path d="M125.28,417l.08,0Z" style="fill:#ffbe9d"></path><path d="M125.4,417Z" style="fill:#ffbe9d"></path><path d="M125.36,417l0,0Z" style="fill:#ffbe9d"></path><path d="M141.78,436a2.06,2.06,0,0,0,0-.53,2.9,2.9,0,0,0,0-.62,4.45,4.45,0,0,0-.14-.81,11.45,11.45,0,0,0-2.19-4.21,24.78,24.78,0,0,0-3.28-3.41,9.77,9.77,0,0,0-1.55-1.2,15.61,15.61,0,0,0,1.4,1.37,30.57,30.57,0,0,1,3.18,3.44,12.31,12.31,0,0,1,2.22,4.07C141.74,435.26,141.71,436,141.78,436Z" style="fill:#eb996e"></path><path d="M120.22,423.17a3.88,3.88,0,0,0,2.29-.21,3.92,3.92,0,0,0,2-1.22c-.06-.07-.88.54-2.06.92S120.22,423.07,120.22,423.17Z" style="fill:#eb996e"></path><path d="M118,432.09a22,22,0,0,0,3.43-1.24,22.27,22.27,0,0,0,3.3-1.53,20.53,20.53,0,0,0-3.42,1.24A20,20,0,0,0,118,432.09Z" style="fill:#eb996e"></path><path d="M125.19,436.64A7.8,7.8,0,0,0,127,436a7.34,7.34,0,0,0,1.71-.74,4.31,4.31,0,0,0-1.82.45A4.43,4.43,0,0,0,125.19,436.64Z" style="fill:#eb996e"></path><path d="M119.09,432.68c0,.09.74.38,1.33,1.16a7.1,7.1,0,0,1,.76,1.59s.08-.21,0-.56a2.78,2.78,0,0,0-.54-1.22,2.87,2.87,0,0,0-1-.85C119.31,432.66,119.1,432.64,119.09,432.68Z" style="fill:#eb996e"></path><path d="M115.93,427.7c0,.09.55.4.93,1.09a8.2,8.2,0,0,1,.49,1.34,1.58,1.58,0,0,0-.21-1.5C116.69,427.85,115.94,427.62,115.93,427.7Z" style="fill:#eb996e"></path><path d="M117,418.81s.16-.13.25-.42a2.19,2.19,0,0,0,0-1.18,2.27,2.27,0,0,0-.57-1c-.21-.22-.39-.29-.41-.26a6.25,6.25,0,0,1,.67,1.38A5.82,5.82,0,0,1,117,418.81Z" style="fill:#eb996e"></path><path d="M178.77,439.54a4.25,4.25,0,0,1-.06-1c0-.31,0-.7,0-1.15s0-1-.11-1.51a33.89,33.89,0,0,0-1.86-8.54,30.63,30.63,0,0,0-2-4.37c-.39-.63-.73-1.25-1.13-1.78l-.55-.78-.54-.69C171,418,170,417.11,170,417.06a5.86,5.86,0,0,1,.76.61,8.22,8.22,0,0,1,.84.79,15.16,15.16,0,0,1,1,1.13l.58.68.57.78c.4.53.76,1.15,1.16,1.78a29.13,29.13,0,0,1,2.07,4.41,31.29,31.29,0,0,1,1.78,8.64c0,.57,0,1.08.06,1.53s0,.83,0,1.15A5.53,5.53,0,0,1,178.77,439.54Z" style="fill:#263238"></path><path d="M16.91,387.72l12.45,61.11H137.41a2.16,2.16,0,0,0,2.16-2.16h0a2.16,2.16,0,0,0-2.16-2.15H115.66l-11.54-56.84a2.37,2.37,0,0,0-2.29-1.89l-82.58-.9A2.35,2.35,0,0,0,16.91,387.72Z" style="fill:#e0e0e0"></path><path d="M16.91,387.72a1.3,1.3,0,0,1,0-.19,2.34,2.34,0,0,1,0-.55A2.4,2.4,0,0,1,18,385.19a2.24,2.24,0,0,1,.71-.28,3.41,3.41,0,0,1,.85-.05h1.95l4.86,0,31.22.3,21.77.22,12.19.12,6.4.07,3.27,0c.28,0,.54,0,.84,0a2.64,2.64,0,0,1,.83.24,2.58,2.58,0,0,1,1.19,1.25,3.64,3.64,0,0,1,.22.83l.17.82c.11.55.22,1.1.34,1.65.22,1.11.45,2.22.68,3.34.45,2.24.91,4.5,1.38,6.8.93,4.58,1.89,9.28,2.86,14.07,2,9.58,4,19.55,6.06,29.82l-.14-.12h21.39a3.48,3.48,0,0,1,.84.05,2.27,2.27,0,0,1,1.42.94,2.31,2.31,0,0,1-.8,3.34,2.26,2.26,0,0,1-1,.28H80.09l-50.73,0h-.1v-.1c-3.81-18.78-6.9-34.06-9-44.65-1.06-5.29-1.89-9.41-2.46-12.21-.27-1.39-.48-2.46-.63-3.18s-.2-1.09-.2-1.09l.24,1.08.66,3.18,2.52,12.19c2.16,10.59,5.29,25.86,9.14,44.64l-.11-.09,50.73,0h57.39a2,2,0,0,0,.35-4,3.32,3.32,0,0,0-.78,0H115.54l0-.11c-2.08-10.27-4.1-20.24-6.05-29.82l-2.85-14.08q-.69-3.43-1.38-6.8c-.22-1.12-.45-2.23-.67-3.33-.11-.56-.23-1.11-.34-1.66l-.16-.82a4.44,4.44,0,0,0-.21-.78,2.25,2.25,0,0,0-1.81-1.33c-.25,0-.54,0-.81,0l-3.27,0-6.4-.07-12.19-.14L57.6,385.4,26.38,385,21.51,385l-1.94,0a3.8,3.8,0,0,0-.84.05,2.68,2.68,0,0,0-.7.27A2.36,2.36,0,0,0,16.89,387,2.61,2.61,0,0,0,16.91,387.72Z" style="fill:#263238"></path><path d="M66.7,415.69a3.57,3.57,0,1,1-3.57-3.57A3.57,3.57,0,0,1,66.7,415.69Z" style="fill:#fff"></path><path d="M17,388.21h5.66l15.45.07,51,.36,7.37.06,1.81,0a4.12,4.12,0,0,1,.92.05,2.72,2.72,0,0,1,.88.36,2.58,2.58,0,0,1,1.1,1.49c.13.59.23,1.16.35,1.74.91,4.6,1.8,9,2.64,13.27,1.67,8.46,3.17,16.08,4.44,22.48s2.27,11.58,3,15.17c.34,1.78.61,3.17.79,4.12.09.46.15.82.2,1.07l.06.37a3.57,3.57,0,0,1-.09-.36c-.05-.25-.13-.61-.23-1.07-.19-.95-.48-2.33-.85-4.11-.72-3.59-1.77-8.76-3.06-15.14s-2.81-14-4.5-22.47c-.85-4.23-1.74-8.67-2.66-13.27-.11-.57-.22-1.17-.35-1.73a2.28,2.28,0,0,0-1-1.31,2.37,2.37,0,0,0-.77-.32,5,5,0,0,0-.87-.05H96.47l-7.38-.06-51-.45-15.45-.16-4.2-.07-1.09,0Z" style="fill:#263238"></path></g><g id="freepik--Coffee--inject-2"><path d="M283.5,425.05c-2.35-2-5.57-2.25-7.56-2.18,0-1.45-.05-2.35-.05-2.35H234.66s-1.29,27.22,19.55,28.18c9.33.43,14.67-3.75,17.72-9a20.61,20.61,0,0,0,4.68.57,10.8,10.8,0,0,0,6.49-1.84c1.42-1.05,3.1-3.12,3.1-7A8,8,0,0,0,283.5,425.05Zm-2.82,10.11c-1.76,1.32-4.92,1.12-7,.75a36.48,36.48,0,0,0,2-9c1.41-.09,3.78,0,5.16,1.19a4.05,4.05,0,0,1,1.26,3.3A4.32,4.32,0,0,1,280.68,435.16Z" style="fill:#263238"></path><path d="M243.86,439.39a21.38,21.38,0,0,1-4.8-11.61c.16,0,.67,2.77,2,6S244,439.3,243.86,439.39Z" style="fill:#fafafa"></path><path d="M247.13,439.83a34.84,34.84,0,0,1-1.53-5.73,33.86,33.86,0,0,1-1-5.85,34.23,34.23,0,0,1,1.54,5.73A33.37,33.37,0,0,1,247.13,439.83Z" style="fill:#fafafa"></path><path d="M252.08,439.37a22.47,22.47,0,0,1-1.23-5.61,23.08,23.08,0,0,1-.26-5.74,53.25,53.25,0,0,1,.78,5.67A53,53,0,0,1,252.08,439.37Z" style="fill:#fafafa"></path><path d="M256.15,428.6a24.28,24.28,0,0,1-.62,10.54c-.15,0,.2-2.37.37-5.27S256,428.61,256.15,428.6Z" style="fill:#fafafa"></path><path d="M262.57,427a19.55,19.55,0,0,1-2.36,11.67c-.15-.07.94-2.53,1.58-5.76S262.41,427,262.57,427Z" style="fill:#fafafa"></path><path d="M269.34,429.51a12.41,12.41,0,0,1-1.26,5.05,12.28,12.28,0,0,1-2.82,4.38c-.13-.1,1.23-2,2.34-4.58S269.18,429.49,269.34,429.51Z" style="fill:#fafafa"></path><path d="M249.16,377.35a8.85,8.85,0,0,0-1.08,1.25,7,7,0,0,0-1,4.29,14,14,0,0,0,2.33,6.18c1.28,2.17,3,4.54,3.61,7.52a8,8,0,0,1-.26,4.37,13.28,13.28,0,0,1-2.05,3.51c-1.58,2-3.1,3.74-3.78,5.52a6.17,6.17,0,0,0-.2,4.36,6.74,6.74,0,0,0,.8,1.44s-.13-.08-.32-.29a4.06,4.06,0,0,1-.67-1.07,6.24,6.24,0,0,1,0-4.57c.67-1.88,2.22-3.68,3.75-5.68a13.15,13.15,0,0,0,2-3.39,7.47,7.47,0,0,0,.23-4.1c-.6-2.83-2.24-5.17-3.51-7.38a13.89,13.89,0,0,1-2.28-6.41,6.92,6.92,0,0,1,1.2-4.41A3.5,3.5,0,0,1,249.16,377.35Z" style="fill:#263238"></path><path d="M253.83,380.72a9.21,9.21,0,0,0-.61,1.35,6.73,6.73,0,0,0,.1,3.94,20.23,20.23,0,0,0,2.89,5.23,19.15,19.15,0,0,1,1.76,3.17,13.84,13.84,0,0,1,.92,3.79,13.6,13.6,0,0,1-1.38,7.34c-1.09,2.06-2.43,3.64-2.93,5.27a5,5,0,0,0,.2,3.86,4.58,4.58,0,0,0,.93,1.12s-.13,0-.34-.18a3.24,3.24,0,0,1-.77-.84,5.1,5.1,0,0,1-.37-4.07c.49-1.73,1.83-3.39,2.85-5.37a13.27,13.27,0,0,0,1.29-7.08,13.63,13.63,0,0,0-.88-3.65,18.73,18.73,0,0,0-1.68-3.1,19.31,19.31,0,0,1-2.84-5.39A6.65,6.65,0,0,1,253,382a4.11,4.11,0,0,1,.53-1C253.72,380.81,253.81,380.71,253.83,380.72Z" style="fill:#263238"></path></g><g id="freepik--Tea--inject-2"><path d="M544.83,390s.46-.13,1.1.34a3.17,3.17,0,0,1,1,3c-.23,1.41-1.3,2.68-2.23,4.06a5.91,5.91,0,0,0-1,2.34,2.58,2.58,0,0,0,.82,2.34,9,9,0,0,1,2,2.21,2.28,2.28,0,0,1,.11,1.56,3.26,3.26,0,0,1-.69,1.27,14.78,14.78,0,0,1-1.86,1.64,4.19,4.19,0,0,0-1.2,1.58,4.52,4.52,0,0,0-.21,2.89c.17.68.41,1,.35,1.05s-.33-.27-.6-1a4.53,4.53,0,0,1,0-3.15,4.67,4.67,0,0,1,1.28-1.82,15.77,15.77,0,0,0,1.75-1.62,2,2,0,0,0,.45-2.16,9.22,9.22,0,0,0-1.9-2,3.5,3.5,0,0,1-.87-1.34,3.33,3.33,0,0,1-.11-1.56,6.23,6.23,0,0,1,1.1-2.6c1-1.41,2-2.58,2.28-3.8a3,3,0,0,0-.72-2.67A3.45,3.45,0,0,0,544.83,390Z" style="fill:#263238"></path><path d="M540.78,389.16s.47-.13,1.11.34a3.17,3.17,0,0,1,1,3c-.23,1.41-1.3,2.69-2.23,4.06a5.91,5.91,0,0,0-1,2.34,2.6,2.6,0,0,0,.81,2.34,8.84,8.84,0,0,1,2,2.21,2.28,2.28,0,0,1,.11,1.56,3.26,3.26,0,0,1-.69,1.27,15.51,15.51,0,0,1-1.86,1.64,4.19,4.19,0,0,0-1.2,1.58,4.53,4.53,0,0,0-.21,2.89c.17.68.4,1,.35,1.06a2.11,2.11,0,0,1-.6-1,4.48,4.48,0,0,1,1.29-5,14.86,14.86,0,0,0,1.75-1.62,2,2,0,0,0,.45-2.16,9,9,0,0,0-1.9-2,3.49,3.49,0,0,1-.87-1.35,3.21,3.21,0,0,1-.11-1.56,6.13,6.13,0,0,1,1.1-2.59c1-1.42,2-2.59,2.28-3.8a3,3,0,0,0-.72-2.68A3.25,3.25,0,0,0,540.78,389.16Z" style="fill:#263238"></path><path d="M529.66,443.3a1.93,1.93,0,0,1-.95-.25,80.25,80.25,0,0,1-12.28-8.85c-4.1-3.6-7.71-9.26-4.41-13.36a7,7,0,0,1,9.59-1.44c3.11,2.09,4.1,7,4.2,7.56a1.95,1.95,0,1,1-3.83.71h0c-.19-1-1.06-4-2.55-5a3.09,3.09,0,0,0-4.38.65c-1.56,1.94,1.51,5.85,4,8a78.65,78.65,0,0,0,11.62,8.39,1.94,1.94,0,0,1,.74,2.65A2,2,0,0,1,529.66,443.3Z" style="fill:#fff"></path><path d="M523.05,415.86s-.44,23.25,9.64,28.62l22.5.06s9.7-8.55,8.17-29.28Z" style="fill:#fff"></path><rect x="532.96" y="441.27" width="22.04" height="7.27" transform="translate(-1.3 1.6) rotate(-0.17)" style="fill:#fff"></rect><path d="M555,444.52c0,.19-5,.35-11.13.38s-11.14-.12-11.14-.3,5-.36,11.14-.38S555,444.33,555,444.52Z" style="fill:#263238"></path><path d="M533,444.8a3.76,3.76,0,0,1-1.08-.64,13.5,13.5,0,0,1-2.51-2.36,28,28,0,0,1-5-10.12,50,50,0,0,1-1.4-11.2c0-1.44,0-2.6,0-3.41a5,5,0,0,1,.08-1.25,33.31,33.31,0,0,1,.44,4.64,59.53,59.53,0,0,0,1.57,11,30.59,30.59,0,0,0,4.69,10A31.58,31.58,0,0,0,533,444.8Z" style="fill:#263238"></path><path d="M526.13,420.88s0,.16-.24.29a.73.73,0,0,1-1-.24.93.93,0,0,1,.55-1.34,1.26,1.26,0,0,1,1.54.92,2.09,2.09,0,0,1-.39,1.81,2.58,2.58,0,0,1-1.23.87,2.27,2.27,0,0,1-1,.12.81.81,0,0,1-.36-.1,3.82,3.82,0,0,0,1.3-.2,2.48,2.48,0,0,0,1.09-.84,1.87,1.87,0,0,0,.33-1.58,1,1,0,0,0-1.21-.76.71.71,0,0,0-.45,1,.61.61,0,0,0,.76.25C526.05,421,526.11,420.87,526.13,420.88Z" style="fill:#455a64"></path><path d="M530.59,421.85a5.4,5.4,0,0,1-4.15-3.53,11.09,11.09,0,0,0,1.77,2.12A11.88,11.88,0,0,0,530.59,421.85Z" style="fill:#455a64"></path><path d="M529.43,420.37s.25.12.66.22a2.37,2.37,0,0,0,.73.08c.25,0,.68-.07.58-.22s-.47-.2-.72-.22a3.21,3.21,0,0,0-.73.06c-.42.09-.66.21-.68.18s.19-.22.63-.36a2.5,2.5,0,0,1,.79-.13,2.59,2.59,0,0,1,.47,0,.6.6,0,0,1,.5.33.36.36,0,0,1-.08.37.54.54,0,0,1-.27.14,2.06,2.06,0,0,1-.48.05,2.34,2.34,0,0,1-.8-.14C529.61,420.61,529.41,420.4,529.43,420.37Z" style="fill:#455a64"></path><path d="M528.19,421.87s.3,0,.69.22a1.9,1.9,0,0,1,.85,1.55.22.22,0,0,1-.19.23.37.37,0,0,1-.21-.09l-.18-.17c-.11-.12-.22-.24-.31-.36a3.61,3.61,0,0,1-.41-.68,1.36,1.36,0,0,1-.18-.7s.14.24.35.61a4.84,4.84,0,0,0,.44.62,3,3,0,0,0,.3.32l.17.16s0,0,0,.08,0,0,0,0h-.06a1.85,1.85,0,0,0-.69-1.39C528.45,422,528.17,421.91,528.19,421.87Z" style="fill:#455a64"></path><path d="M533.2,421.78s0-.13-.2-.27a.6.6,0,0,0-.8,0,.71.71,0,0,0,.1,1.1,1,1,0,0,0,1.39-.32,1.84,1.84,0,0,0,.21-1.6,2.52,2.52,0,0,0-.75-1.16,3.29,3.29,0,0,0-1.16-.61s.14,0,.37,0a2.25,2.25,0,0,1,.91.44,2.58,2.58,0,0,1,.87,1.23,2.11,2.11,0,0,1-.23,1.84,1.27,1.27,0,0,1-1.76.36.92.92,0,0,1-.07-1.45.74.74,0,0,1,1,.09C533.24,421.63,533.21,421.79,533.2,421.78Z" style="fill:#455a64"></path><path d="M537.73,422.35a11.76,11.76,0,0,0-2.71.54,12,12,0,0,0-2.38,1.41,4.6,4.6,0,0,1,2.28-1.66A4.69,4.69,0,0,1,537.73,422.35Z" style="fill:#455a64"></path><path d="M536.14,423.36s.25-.17.71-.18a2.41,2.41,0,0,1,.79.13,2.14,2.14,0,0,1,.44.2.55.55,0,0,1,.22.23.35.35,0,0,1-.06.37.58.58,0,0,1-.58.15,2.37,2.37,0,0,1-.46-.11,3.23,3.23,0,0,1-.7-.38c-.36-.28-.5-.53-.48-.55s.22.17.59.39a2.8,2.8,0,0,0,.67.3c.24.06.64.18.75,0s-.24-.31-.47-.4a2.75,2.75,0,0,0-.72-.17C536.42,423.34,536.15,423.4,536.14,423.36Z" style="fill:#455a64"></path><path d="M535.47,421.54s.28,0,.67-.16a1.89,1.89,0,0,0,1.12-1.09s0,0,0,.06,0,0,0,0l-.22.09-.39.21a4.88,4.88,0,0,0-.61.43c-.33.28-.51.49-.54.47s.09-.28.41-.6a2.94,2.94,0,0,1,.61-.51,3.15,3.15,0,0,1,.41-.23l.23-.11a.36.36,0,0,1,.22,0c.14,0,.13.24.11.28a2,2,0,0,1-1.32,1.18C535.74,421.67,535.46,421.57,535.47,421.54Z" style="fill:#455a64"></path><path d="M553.78,421.32s0,.16-.24.29a.73.73,0,0,1-1-.25.91.91,0,0,1,.55-1.33,1.26,1.26,0,0,1,1.54.92,2.07,2.07,0,0,1-.4,1.8,2.47,2.47,0,0,1-1.22.88,2.27,2.27,0,0,1-1,.11c-.24,0-.36-.08-.35-.1a3.33,3.33,0,0,0,1.29-.19,2.43,2.43,0,0,0,1.09-.84,1.91,1.91,0,0,0,.34-1.58,1,1,0,0,0-1.21-.76.7.7,0,0,0-.46,1,.61.61,0,0,0,.76.25C553.7,421.44,553.75,421.31,553.78,421.32Z" style="fill:#455a64"></path><path d="M558.24,422.29a5.44,5.44,0,0,1-4.16-3.53,11.4,11.4,0,0,0,1.78,2.12A11.58,11.58,0,0,0,558.24,422.29Z" style="fill:#455a64"></path><path d="M557.07,420.81s.26.12.67.22a2.6,2.6,0,0,0,.72.08c.25,0,.69-.08.59-.22s-.47-.2-.72-.22a3.31,3.31,0,0,0-.74.06c-.42.09-.66.21-.68.17s.2-.21.63-.36a3,3,0,0,1,.79-.12,2.74,2.74,0,0,1,.48,0,.59.59,0,0,1,.49.34.36.36,0,0,1-.07.37.53.53,0,0,1-.28.14,2.06,2.06,0,0,1-.48.05,2.48,2.48,0,0,1-.79-.14C557.25,421.05,557.05,420.84,557.07,420.81Z" style="fill:#455a64"></path><path d="M555.83,422.3a1,1,0,0,1,.7.23,1.93,1.93,0,0,1,.85,1.55.23.23,0,0,1-.2.23.31.31,0,0,1-.2-.09l-.18-.17a3.31,3.31,0,0,1-.31-.36,3,3,0,0,1-.41-.68c-.19-.41-.22-.69-.18-.7s.13.24.35.61a4.68,4.68,0,0,0,.43.62l.3.32.17.16s0,0,0,.08,0,0,0,0l0,0h0a1.93,1.93,0,0,0-.7-1.39C556.09,422.41,555.82,422.35,555.83,422.3Z" style="fill:#455a64"></path><path d="M560.85,422.22s0-.13-.2-.28a.61.61,0,0,0-.8,0,.7.7,0,0,0,.09,1.09,1,1,0,0,0,1.4-.31,1.91,1.91,0,0,0,.21-1.6,2.41,2.41,0,0,0-.76-1.16,3.71,3.71,0,0,0-1.15-.62.87.87,0,0,1,.37,0,2.25,2.25,0,0,1,.91.44,2.57,2.57,0,0,1,.86,1.23,2,2,0,0,1-.23,1.84,1.25,1.25,0,0,1-1.75.35.92.92,0,0,1-.08-1.44.73.73,0,0,1,1,.09C560.89,422.07,560.86,422.23,560.85,422.22Z" style="fill:#455a64"></path><path d="M562.62,423.21a10.34,10.34,0,0,1-1.18.75,9.47,9.47,0,0,1-1.16.78,2.55,2.55,0,0,1,1-1A2.4,2.4,0,0,1,562.62,423.21Z" style="fill:#455a64"></path><path d="M540,420.82s0,.16-.26.27a.74.74,0,0,1-1-.32.92.92,0,0,1,.65-1.29,1.26,1.26,0,0,1,1.47,1,2.08,2.08,0,0,1-.53,1.77,2.52,2.52,0,0,1-1.29.78,2.37,2.37,0,0,1-1,0,.79.79,0,0,1-.35-.13,3.4,3.4,0,0,0,1.31-.09,2.52,2.52,0,0,0,1.15-.76,1.86,1.86,0,0,0,.45-1.55,1,1,0,0,0-1.15-.85.7.7,0,0,0-.52,1,.6.6,0,0,0,.73.31C539.86,420.92,539.93,420.8,540,420.82Z" style="fill:#455a64"></path><path d="M544.33,422.12a4.68,4.68,0,0,1-2.46-1.4,4.55,4.55,0,0,1-1.42-2.44,11.33,11.33,0,0,0,1.61,2.25A11.64,11.64,0,0,0,544.33,422.12Z" style="fill:#455a64"></path><path d="M543.28,420.56s.24.13.64.27a2.9,2.9,0,0,0,.72.13c.25,0,.69,0,.6-.18s-.45-.23-.7-.27a3.64,3.64,0,0,0-.74,0c-.42.06-.67.16-.69.13s.21-.2.66-.31a2.42,2.42,0,0,1,.79-.07,2.72,2.72,0,0,1,.47.08.59.59,0,0,1,.47.37.35.35,0,0,1-.1.36.57.57,0,0,1-.29.13,2.6,2.6,0,0,1-.48,0,2.33,2.33,0,0,1-.78-.21C543.44,420.81,543.25,420.58,543.28,420.56Z" style="fill:#455a64"></path><path d="M541.93,422s.3,0,.67.28a1.88,1.88,0,0,1,.73,1.61s-.06.22-.21.21a.36.36,0,0,1-.19-.1l-.17-.19a2.47,2.47,0,0,1-.28-.38,3.17,3.17,0,0,1-.36-.71A1.37,1.37,0,0,1,542,422s.12.25.31.64a4.11,4.11,0,0,0,.38.64,4.29,4.29,0,0,0,.28.35l.16.17s0,0,0,.08,0,0,0,0l-.06,0h0a1.85,1.85,0,0,0-.58-1.44C542.18,422.08,541.91,422,541.93,422Z" style="fill:#455a64"></path><path d="M546.93,422.21a.87.87,0,0,0-.18-.3.6.6,0,0,0-.79-.07.7.7,0,0,0,0,1.1,1,1,0,0,0,1.41-.21,1.86,1.86,0,0,0,.33-1.58,2.51,2.51,0,0,0-.66-1.22,3.32,3.32,0,0,0-1.11-.69s.14,0,.37.05a2.21,2.21,0,0,1,.87.5,2.54,2.54,0,0,1,.78,1.3,2.09,2.09,0,0,1-.37,1.81,1.26,1.26,0,0,1-1.78.23.93.93,0,0,1,0-1.45.75.75,0,0,1,1,.16C547,422.05,546.94,422.21,546.93,422.21Z" style="fill:#455a64"></path><path d="M551.41,423.11a12.07,12.07,0,0,0-2.75.34,11.67,11.67,0,0,0-2.48,1.22,5.45,5.45,0,0,1,5.23-1.56Z" style="fill:#455a64"></path><path d="M549.75,424s.25-.15.71-.13a2.52,2.52,0,0,1,.78.19,2.32,2.32,0,0,1,.43.24.48.48,0,0,1,.19.24.36.36,0,0,1-.08.37.63.63,0,0,1-.59.11,3,3,0,0,1-.45-.16,2.5,2.5,0,0,1-.67-.43c-.34-.3-.46-.56-.44-.58s.21.19.56.43a3,3,0,0,0,.65.35c.23.09.62.23.75.09s-.22-.33-.45-.43a2.48,2.48,0,0,0-.7-.23C550,424,549.75,424,549.75,424Z" style="fill:#455a64"></path><path d="M549.21,422.13s.28,0,.69-.11a1.9,1.9,0,0,0,1.19-1s0,0,0,.06,0,0,0,0l-.22.07c-.14.06-.28.11-.41.18a5.16,5.16,0,0,0-.64.38,4.43,4.43,0,0,1-.57.43s.11-.27.45-.57a2.85,2.85,0,0,1,.65-.46,3.45,3.45,0,0,1,.43-.21l.23-.08a.28.28,0,0,1,.22,0,.21.21,0,0,1,.09.28,1.92,1.92,0,0,1-1.4,1.08C549.48,422.28,549.2,422.16,549.21,422.13Z" style="fill:#455a64"></path></g></svg>